<svg width="261" height="44" viewBox="0 0 261 44" fill="none" xmlns="http://www.w3.org/2000/svg">
<path d="M212.82 0.975653V32.1968H206.219V0.975653H212.82Z" fill="black"/>
<path d="M186.054 32.1968H174.986V0.975653H186.146C189.286 0.975653 191.989 1.60069 194.256 2.85075C196.522 4.09066 198.265 5.87429 199.485 8.20165C200.714 10.529 201.329 13.3137 201.329 16.5558C201.329 19.808 200.714 22.6028 199.485 24.9404C198.265 27.2779 196.512 29.0717 194.225 30.3217C191.949 31.5718 189.225 32.1968 186.054 32.1968ZM181.587 26.541H185.78C187.731 26.541 189.372 26.1955 190.704 25.5044C192.045 24.8032 193.051 23.7208 193.722 22.2573C194.403 20.7836 194.744 18.8831 194.744 16.5558C194.744 14.2487 194.403 12.3635 193.722 10.9C193.051 9.43647 192.05 8.35918 190.719 7.66809C189.388 6.97699 187.746 6.63145 185.795 6.63145H181.587V26.541Z" fill="black"/>
<path d="M162.955 0.975653H169.556V21.2511C169.556 23.5277 169.012 25.5197 167.924 27.2271C166.847 28.9345 165.338 30.2658 163.397 31.2212C161.456 32.1663 159.194 32.6389 156.613 32.6389C154.021 32.6389 151.755 32.1663 149.814 31.2212C147.872 30.2658 146.363 28.9345 145.286 27.2271C144.209 25.5197 143.67 23.5277 143.67 21.2511V0.975653H150.271V20.6871C150.271 21.8762 150.53 22.9331 151.048 23.858C151.577 24.7828 152.319 25.5095 153.274 26.038C154.23 26.5665 155.342 26.8307 156.613 26.8307C157.893 26.8307 159.006 26.5665 159.951 26.038C160.907 25.5095 161.644 24.7828 162.162 23.858C162.69 22.9331 162.955 21.8762 162.955 20.6871V0.975653Z" fill="black"/>
<path d="M116.938 32.1968H109.865L120.643 0.975653H129.149L139.912 32.1968H132.839L125.018 8.11018H124.774L116.938 32.1968ZM116.496 19.9248H133.205V25.0776H116.496V19.9248Z" fill="black"/>
<path d="M67.0806 11.9061H60.4034C60.2814 11.0422 60.0324 10.2749 59.6564 9.60416C59.2804 8.92323 58.7976 8.34393 58.2081 7.86627C57.6187 7.3886 56.9377 7.02272 56.1653 6.76865C55.4031 6.51457 54.5748 6.38753 53.6805 6.38753C52.0645 6.38753 50.6569 6.78897 49.4577 7.59186C48.2584 8.38459 47.3285 9.54319 46.6679 11.0677C46.0073 12.582 45.677 14.4215 45.677 16.5862C45.677 18.812 46.0073 20.682 46.6679 22.1963C47.3387 23.7106 48.2737 24.854 49.4729 25.6264C50.6722 26.3988 52.0594 26.785 53.6347 26.785C54.5189 26.785 55.3371 26.6681 56.0891 26.4343C56.8514 26.2006 57.5272 25.8601 58.1167 25.4129C58.7061 24.9556 59.194 24.4017 59.5802 23.7513C59.9765 23.1008 60.2509 22.3589 60.4034 21.5255L67.0806 21.556C66.9078 22.989 66.4759 24.3712 65.7848 25.7026C65.1038 27.0238 64.1841 28.2078 63.0255 29.2546C61.877 30.2912 60.505 31.1145 58.9094 31.7243C57.3239 32.3239 55.5302 32.6237 53.528 32.6237C50.7433 32.6237 48.2533 31.9936 46.0581 30.7333C43.873 29.4731 42.1453 27.6488 40.8749 25.2605C39.6147 22.8722 38.9846 19.9807 38.9846 16.5862C38.9846 13.1816 39.6248 10.2851 40.9054 7.89676C42.1859 5.50842 43.9238 3.68921 46.1191 2.43915C48.3143 1.17892 50.784 0.5488 53.528 0.5488C55.3371 0.5488 57.014 0.802879 58.5588 1.31104C60.1137 1.81919 61.4908 2.5611 62.6901 3.53676C63.8893 4.50226 64.865 5.68627 65.6171 7.08878C66.3793 8.4913 66.8671 10.0971 67.0806 11.9061Z" fill="black"/>
<path d="M0 32.1968V0.975653H6.60096V14.7416H7.01257L18.2479 0.975653H26.1599L14.574 14.9551L26.2971 32.1968H18.4004L9.84809 19.3608L6.60096 23.3244V32.1968H0Z" fill="black"/>
<path d="M30.3298 11.7059C31.4456 11.9876 32.9338 12.1307 34.4645 11.7321C34.4888 14.0463 34.5137 16.3606 34.5378 18.6746C34.5401 18.8891 34.5419 19.1036 34.5441 19.3181H34.5294C34.5384 19.3777 34.5441 19.4381 34.5441 19.4994C34.5441 20.3885 33.5831 20.9279 32.3977 20.9279C31.2122 20.9279 30.2512 20.3885 30.2512 19.4994C30.2512 19.4381 30.2569 19.3777 30.2659 19.3181H30.2512C30.2534 19.1036 30.2553 18.8891 30.2575 18.6746C30.2817 16.3519 30.3054 14.0289 30.3298 11.7059ZM30.3749 7.4256C31.4745 7.69698 32.9253 7.82965 34.4194 7.45076C34.4304 8.50717 34.4408 9.56364 34.4519 10.6201C32.9175 11.0904 31.387 10.902 30.3413 10.5992C30.3525 9.54128 30.3638 8.48341 30.3749 7.4256ZM32.3977 4.44802C32.9257 4.44802 33.433 4.65734 33.8105 5.03075C34.1644 5.38114 34.3741 5.84923 34.4037 6.34189C32.91 6.78636 31.4246 6.61208 30.3916 6.32093C30.4258 5.83594 30.6359 5.37619 30.9849 5.03075C31.3623 4.65734 31.8696 4.44802 32.3977 4.44802Z" fill="black"/>
<path d="M92.4984 6.43994H82.3028C78.4373 6.44011 77.3391 8.56234 77.3391 9.92793C77.3393 11.2935 78.4377 13.4158 82.3028 13.4159C88.4992 13.4161 92.9173 17.3047 93.23 22.095C93.3849 24.4728 92.4597 26.8387 90.4631 28.5501C88.4978 30.2343 85.7006 31.1241 82.3028 31.1242C80.556 31.1242 78.5365 31.4132 76.705 31.9302C74.8192 32.4626 73.4154 33.1566 72.6877 33.7852C72.558 33.8974 72.473 33.9898 72.4173 34.0567C72.7376 34.4915 73.8343 35.4721 76.8591 36.6821C77.268 36.8457 77.7303 37.0586 78.1377 37.3424C78.3768 37.509 79.4216 38.2425 79.5275 39.6503C79.6554 41.3577 78.3667 42.2167 78.0182 42.4203C77.5494 42.6942 77.0542 42.8339 76.727 42.9129C75.4198 43.2284 73.2852 43.3438 71.2393 43.3982C69.0907 43.4553 66.692 43.4495 64.6836 43.4412C62.5964 43.4325 61.067 43.4236 60.4682 43.4611L60.3844 43.4663H43.6666C37.17 43.4662 33.2528 41.349 31.2752 37.8885C30.197 36.0016 29.8552 33.9111 29.7513 32.1974H29.7146C29.122 32.1974 28.6416 31.7167 28.6414 31.1242V21.4651C28.6414 20.8724 29.1219 20.3919 29.7146 20.3919H29.8708C30.24 21.0162 31.2306 21.4651 32.3977 21.4651C33.5647 21.4651 34.5554 21.0162 34.9246 20.3919H35.0807C35.6735 20.3919 36.154 20.8724 36.154 21.4651V31.1242C36.1537 31.6995 35.7008 32.1674 35.1321 32.1943C35.2134 33.2993 35.4192 34.3255 35.9339 35.2263C36.6394 36.4609 38.359 38.1001 43.6666 38.1002H60.245C61.1192 38.0556 62.8509 38.0673 64.7056 38.075C66.0005 38.0804 67.4214 38.082 68.8161 38.0698C68.312 37.56 67.8989 37.0193 67.593 36.44C66.9457 35.2135 66.7988 33.8662 67.2063 32.5684C67.5865 31.3585 68.3746 30.4208 69.1798 29.725C70.7656 28.3549 73.034 27.3911 75.2471 26.7663C77.515 26.1261 80.0251 25.7581 82.3028 25.758C84.8063 25.758 86.2363 25.1046 86.9709 24.4752C87.6733 23.8729 87.9213 23.1522 87.8754 22.4451C87.7853 21.0648 86.3012 18.7822 82.3028 18.7821C75.9734 18.7819 71.9732 14.733 71.9729 9.92793C71.9729 5.12263 75.9732 1.074 82.3028 1.0738H92.4984V6.43994ZM32.0623 0.804444C32.2582 0.647788 32.5371 0.647788 32.733 0.804444L34.6961 2.37551C34.9134 2.54932 34.9624 2.86082 34.8082 3.09239L34.1668 4.05452C34.1131 4.13494 34.0385 4.19583 33.954 4.23689C33.9699 4.57778 33.9863 4.91913 34.0023 5.25981C34.0039 5.29529 34.0058 5.33123 34.0075 5.36671H30.7878C30.7895 5.33123 30.7914 5.29529 30.7931 5.25981C30.809 4.91915 30.8244 4.57777 30.8402 4.23689C30.7562 4.19582 30.682 4.13467 30.6285 4.05452L29.9871 3.09239C29.8329 2.86082 29.882 2.54932 30.0992 2.37551L32.0623 0.804444Z" fill="black"/>
<path d="M36.1124 31.6605C35.5406 35.2376 29.2547 35.2376 28.6829 31.6605C28.6362 31.3679 28.8816 31.1236 29.178 31.1236H35.6173C35.9137 31.1236 36.1592 31.3679 36.1124 31.6605Z" fill="black"/>
<path d="M92.4984 6.43994V1.0738L95.1815 1.07322L93.035 6.43936L92.4984 6.43994Z" fill="black"/>
<path d="M94.1083 6.43936L96.2547 1.07322H97.328L95.1815 6.43936H94.1083Z" fill="black"/>
<path d="M96.2547 6.43936L98.4012 1.07322H99.4744L97.328 6.43936H96.2547Z" fill="black"/>
<path d="M245.932 16.0984C245.932 8.98569 240.166 3.21968 233.053 3.21968C225.94 3.21968 220.174 8.98569 220.174 16.0984C220.174 23.2112 225.94 28.9772 233.053 28.9772V32.1968C224.162 32.1968 216.954 24.9893 216.954 16.0984C216.954 7.20751 224.162 -3.8147e-06 233.053 -3.8147e-06C241.944 -3.8147e-06 249.151 7.20751 249.151 16.0984C249.151 24.9893 241.944 32.1968 233.053 32.1968V28.9772C240.166 28.9772 245.932 23.2112 245.932 16.0984Z" fill="black"/>
<path d="M235.199 23.611C235.199 24.7965 234.238 25.7575 233.053 25.7575C231.867 25.7575 230.906 24.7965 230.906 23.611C230.906 22.4256 231.867 21.4646 233.053 21.4646C234.238 21.4646 235.199 22.4256 235.199 23.611Z" fill="black"/>
<path d="M241.639 17.1716C241.639 18.3571 240.678 19.3181 239.492 19.3181C238.307 19.3181 237.346 18.3571 237.346 17.1716C237.346 15.9862 238.307 15.0252 239.492 15.0252C240.678 15.0252 241.639 15.9862 241.639 17.1716Z" fill="black"/>
<path d="M228.76 17.1716C228.76 18.3571 227.799 19.3181 226.613 19.3181C225.428 19.3181 224.467 18.3571 224.467 17.1716C224.467 15.9862 225.428 15.0252 226.613 15.0252C227.799 15.0252 228.76 15.9862 228.76 17.1716Z" fill="black"/>
<path d="M118.217 1.07322H119.291L108.558 32.1968H107.485L118.217 1.07322Z" fill="black"/>
<path d="M116.071 1.07322H117.144L106.412 32.1968H105.339L116.071 1.07322Z" fill="black"/>
<path d="M238.384 2.87172L236.775 7.16463L236.645 7.51259H228.388L228.258 7.16463L226.648 2.87172L227.652 2.49441L229.132 6.43937H235.9L237.38 2.49441L238.384 2.87172Z" fill="black"/>
<path d="M254.607 28.0865V24.1554H256.529C256.778 24.1554 257.005 24.2069 257.211 24.3099C257.421 24.4129 257.586 24.562 257.707 24.7573C257.831 24.9491 257.893 25.1835 257.893 25.4604C257.893 25.7374 257.829 25.9736 257.701 26.1689C257.574 26.3642 257.403 26.5134 257.19 26.6163C256.977 26.7158 256.741 26.7655 256.482 26.7655H255.166V26.0251H256.268C256.418 26.0251 256.545 25.9771 256.652 25.8813C256.762 25.7854 256.817 25.6433 256.817 25.4551C256.817 25.2598 256.762 25.1213 256.652 25.0396C256.545 24.9544 256.419 24.9118 256.274 24.9118H255.629V28.0865H254.607ZM257.115 26.2701L258.01 28.0865H256.892L256.055 26.2701H257.115ZM256.146 30.4303C255.556 30.4303 255.004 30.3202 254.489 30.1C253.974 29.8798 253.522 29.5744 253.131 29.1838C252.74 28.7932 252.435 28.3404 252.215 27.8255C251.995 27.3106 251.885 26.7584 251.885 26.1689C251.885 25.5794 251.995 25.0272 252.215 24.5123C252.435 23.9974 252.74 23.5446 253.131 23.154C253.522 22.7634 253.974 22.458 254.489 22.2378C255.004 22.0176 255.556 21.9075 256.146 21.9075C256.735 21.9075 257.288 22.0176 257.803 22.2378C258.317 22.458 258.77 22.7634 259.161 23.154C259.551 23.5446 259.857 23.9974 260.077 24.5123C260.297 25.0272 260.407 25.5794 260.407 26.1689C260.407 26.7584 260.297 27.3106 260.077 27.8255C259.857 28.3404 259.551 28.7932 259.161 29.1838C258.77 29.5744 258.317 29.8798 257.803 30.1C257.288 30.3202 256.735 30.4303 256.146 30.4303ZM256.146 29.3063C256.728 29.3063 257.256 29.1661 257.728 28.8855C258.204 28.6014 258.582 28.2232 258.863 27.7509C259.143 27.2751 259.283 26.7477 259.283 26.1689C259.283 25.5901 259.141 25.0645 258.857 24.5922C258.577 24.1163 258.199 23.7381 257.723 23.4576C257.25 23.1735 256.725 23.0315 256.146 23.0315C255.571 23.0315 255.045 23.1735 254.569 23.4576C254.093 23.7381 253.715 24.1163 253.435 24.5922C253.154 25.0645 253.014 25.5901 253.014 26.1689C253.014 26.7477 253.154 27.2751 253.435 27.7509C253.715 28.2232 254.093 28.6014 254.569 28.8855C255.045 29.1661 255.571 29.3063 256.146 29.3063Z" fill="black"/>
</svg>
