<svg width="404" height="548" viewBox="0 0 404 548" fill="none" xmlns="http://www.w3.org/2000/svg">
<rect width="404" height="548" fill="white"/>
<path d="M186.554 288.988V339.559H77.1572V288.988H186.554ZM186.554 286H77.1572C75.4207 286 74 287.345 74 288.988V339.559C74 341.202 75.4207 342.547 77.1572 342.547H186.554C188.291 342.547 189.712 341.202 189.712 339.559V288.988C189.712 287.345 188.291 286 186.554 286Z" fill="#001689"/>
<path d="M183.318 288.988V336.571H77.1572V339.559H186.554V288.988H183.318Z" fill="#ACC4E5"/>
<path d="M193.421 348H86.2341C85.3659 348 84.6555 347.328 84.6555 346.506C84.6555 345.684 85.3659 345.012 86.2341 345.012H191.843V297.205C191.843 296.383 192.553 295.711 193.421 295.711C194.29 295.711 195 296.383 195 297.205V346.506C195 347.328 194.29 348 193.421 348Z" fill="#001689"/>
<path d="M118.675 298.027H86.0764C85.2082 298.027 84.4978 297.354 84.4978 296.533C84.4978 295.711 85.2082 295.039 86.0764 295.039H118.675C119.543 295.039 120.253 295.711 120.253 296.533C120.253 297.354 119.543 298.027 118.675 298.027Z" fill="#001689"/>
<path d="M176.609 321.781H86.0764C85.2082 321.781 84.4978 321.108 84.4978 320.287C84.4978 319.465 85.2082 318.793 86.0764 318.793H176.53C177.399 318.793 178.109 319.465 178.109 320.287C178.109 321.108 177.478 321.781 176.609 321.781Z" fill="#001689"/>
<path d="M176.609 332.537H140.538C139.67 332.537 138.959 331.865 138.959 331.043C138.959 330.222 139.67 329.549 140.538 329.549H176.609C177.477 329.549 178.188 330.222 178.188 331.043C178.188 331.865 177.477 332.537 176.609 332.537Z" fill="#001689"/>
<path d="M173.373 306.318H146.774C144.169 306.318 142.038 304.301 142.038 301.836V299.521C142.038 297.055 144.169 295.039 146.774 295.039H173.373C175.978 295.039 178.109 297.055 178.109 299.521V301.836C178.109 304.301 176.057 306.318 173.373 306.318Z" fill="#ACC4E5"/>
<g clip-path="url(#clip0_59_88)">
<path d="M185.554 391.988V442.559H76.1572V391.988H185.554ZM185.554 389H76.1572C74.4207 389 73 390.345 73 391.988V442.559C73 444.202 74.4207 445.547 76.1572 445.547H185.554C187.291 445.547 188.712 444.202 188.712 442.559V391.988C188.712 390.345 187.291 389 185.554 389Z" fill="#001689"/>
<path d="M182.318 391.988V439.571H76.1572V442.559H185.554V391.988H182.318Z" fill="#ACC4E5"/>
<path d="M192.421 451H85.2341C84.3659 451 83.6555 450.328 83.6555 449.506C83.6555 448.684 84.3659 448.012 85.2341 448.012H190.843V400.205C190.843 399.383 191.553 398.711 192.421 398.711C193.29 398.711 194 399.383 194 400.205V449.506C194 450.328 193.29 451 192.421 451Z" fill="#001689"/>
<path d="M117.675 401.027H85.0764C84.2082 401.027 83.4978 400.354 83.4978 399.533C83.4978 398.711 84.2082 398.039 85.0764 398.039H117.675C118.543 398.039 119.253 398.711 119.253 399.533C119.253 400.354 118.543 401.027 117.675 401.027Z" fill="#001689"/>
<path d="M175.609 424.781H85.0764C84.2082 424.781 83.4978 424.108 83.4978 423.287C83.4978 422.465 84.2082 421.793 85.0764 421.793H175.53C176.399 421.793 177.109 422.465 177.109 423.287C177.109 424.108 176.478 424.781 175.609 424.781Z" fill="#001689"/>
<path d="M175.609 435.537H139.538C138.67 435.537 137.959 434.865 137.959 434.043C137.959 433.222 138.67 432.549 139.538 432.549H175.609C176.477 432.549 177.188 433.222 177.188 434.043C177.188 434.865 176.477 435.537 175.609 435.537Z" fill="#001689"/>
<path d="M172.373 409.318H145.774C143.169 409.318 141.038 407.301 141.038 404.836V402.521C141.038 400.055 143.169 398.039 145.774 398.039H172.373C174.978 398.039 177.109 400.055 177.109 402.521V404.836C177.109 407.301 175.057 409.318 172.373 409.318Z" fill="#ACC4E5"/>
</g>
<path d="M200.623 378.278L197.03 367.701C196.047 364.807 191.953 364.807 190.97 367.702L187.377 378.278H175.831C172.696 378.278 171.431 382.318 174.006 384.107L183.217 390.505L179.683 400.906C178.69 403.829 182.003 406.325 184.539 404.564L194 397.992L203.461 404.564C205.997 406.325 209.31 403.829 208.317 400.906L204.783 390.505L213.994 384.107C216.569 382.318 215.304 378.278 212.169 378.278H200.623Z" fill="#D2202E" stroke="#F5F5F5" stroke-width="4" stroke-linecap="round" stroke-linejoin="round"/>
<g clip-path="url(#clip1_59_88)">
<path d="M341.554 289.503V340.074H232.157V289.503H341.554ZM341.554 286.515H232.157C230.421 286.515 229 287.859 229 289.503V340.074C229 341.717 230.421 343.062 232.157 343.062H341.554C343.291 343.062 344.712 341.717 344.712 340.074V289.503C344.712 287.859 343.291 286.515 341.554 286.515Z" fill="#001689"/>
<path d="M338.318 289.503V337.086H232.157V340.074H341.554V289.503H338.318Z" fill="#ACC4E5"/>
<path d="M348.421 348.515H241.234C240.366 348.515 239.656 347.842 239.656 347.021C239.656 346.199 240.366 345.527 241.234 345.527H346.843V297.72C346.843 296.898 347.553 296.226 348.421 296.226C349.29 296.226 350 296.898 350 297.72V347.021C350 347.842 349.29 348.515 348.421 348.515Z" fill="#001689"/>
<path d="M273.675 298.541H241.076C240.208 298.541 239.498 297.869 239.498 297.047C239.498 296.226 240.208 295.553 241.076 295.553H273.675C274.543 295.553 275.253 296.226 275.253 297.047C275.253 297.869 274.543 298.541 273.675 298.541Z" fill="#001689"/>
<path d="M331.609 322.295H241.076C240.208 322.295 239.498 321.623 239.498 320.801C239.498 319.98 240.208 319.307 241.076 319.307H331.53C332.399 319.307 333.109 319.98 333.109 320.801C333.109 321.623 332.478 322.295 331.609 322.295Z" fill="#001689"/>
<path d="M331.609 333.052H295.538C294.67 333.052 293.959 332.38 293.959 331.558C293.959 330.736 294.67 330.064 295.538 330.064H331.609C332.477 330.064 333.188 330.736 333.188 331.558C333.188 332.38 332.477 333.052 331.609 333.052Z" fill="#001689"/>
<path d="M328.373 306.833H301.774C299.169 306.833 297.038 304.816 297.038 302.351V300.035C297.038 297.57 299.169 295.553 301.774 295.553H328.373C330.978 295.553 333.109 297.57 333.109 300.035V302.351C333.109 304.816 331.057 306.833 328.373 306.833Z" fill="#ACC4E5"/>
</g>
<mask id="path-23-outside-1_59_88" maskUnits="userSpaceOnUse" x="324.007" y="258" width="42" height="53" fill="black">
<rect fill="white" x="324.007" y="258" width="42" height="53"/>
<path fill-rule="evenodd" clip-rule="evenodd" d="M346.239 262.327C345.843 261.891 345.157 261.891 344.761 262.327L329.27 279.341C328.685 279.984 329.141 281.015 330.009 281.015H340V305.025C340 305.919 340.725 306.645 341.62 306.645H348.58C349.475 306.645 350.2 305.919 350.2 305.025V281.015H360.991C361.859 281.015 362.315 279.984 361.73 279.341L346.239 262.327Z"/>
</mask>
<path fill-rule="evenodd" clip-rule="evenodd" d="M346.239 262.327C345.843 261.891 345.157 261.891 344.761 262.327L329.27 279.341C328.685 279.984 329.141 281.015 330.009 281.015H340V305.025C340 305.919 340.725 306.645 341.62 306.645H348.58C349.475 306.645 350.2 305.919 350.2 305.025V281.015H360.991C361.859 281.015 362.315 279.984 361.73 279.341L346.239 262.327Z" fill="#CF0A23"/>
<path d="M344.761 262.327L347.718 265.02L347.718 265.02L344.761 262.327ZM346.239 262.327L349.197 259.634L349.197 259.634L346.239 262.327ZM329.27 279.341L326.312 276.649L326.312 276.649L329.27 279.341ZM340 281.015H344V277.015H340V281.015ZM350.2 281.015V277.015H346.2V281.015H350.2ZM361.73 279.341L358.772 282.034L358.772 282.034L361.73 279.341ZM347.718 265.02C346.528 266.327 344.472 266.327 343.282 265.02L349.197 259.634C347.214 257.455 343.786 257.455 341.803 259.634L347.718 265.02ZM332.228 282.034L347.718 265.02L341.803 259.634L326.312 276.649L332.228 282.034ZM330.009 277.015C332.615 277.015 333.982 280.108 332.228 282.034L326.312 276.649C323.389 279.859 325.667 285.015 330.009 285.015V277.015ZM340 277.015H330.009V285.015H340V277.015ZM336 281.015V305.025H344V281.015H336ZM336 305.025C336 308.128 338.516 310.645 341.62 310.645V302.645C342.934 302.645 344 303.71 344 305.025H336ZM341.62 310.645H348.58V302.645H341.62V310.645ZM348.58 310.645C351.684 310.645 354.2 308.129 354.2 305.025H346.2C346.2 303.71 347.266 302.645 348.58 302.645V310.645ZM354.2 305.025V281.015H346.2V305.025H354.2ZM360.991 277.015H350.2V285.015H360.991V277.015ZM358.772 282.034C357.018 280.108 358.385 277.015 360.991 277.015V285.015C365.333 285.015 367.611 279.86 364.688 276.649L358.772 282.034ZM343.282 265.02L358.772 282.034L364.688 276.649L349.197 259.634L343.282 265.02Z" fill="#F5F5F5" mask="url(#path-23-outside-1_59_88)"/>
<g clip-path="url(#clip2_59_88)">
<path d="M343.554 389.72V440.291H234.157V389.72H343.554ZM343.554 386.732H234.157C232.421 386.732 231 388.076 231 389.72V440.291C231 441.934 232.421 443.279 234.157 443.279H343.554C345.291 443.279 346.712 441.934 346.712 440.291V389.72C346.712 388.076 345.291 386.732 343.554 386.732Z" fill="#001689"/>
<path d="M340.318 389.72V437.303H234.157V440.291H343.554V389.72H340.318Z" fill="#ACC4E5"/>
<path d="M350.421 448.732H243.234C242.366 448.732 241.656 448.059 241.656 447.238C241.656 446.416 242.366 445.744 243.234 445.744H348.843V397.937C348.843 397.115 349.553 396.443 350.421 396.443C351.29 396.443 352 397.115 352 397.937V447.238C352 448.059 351.29 448.732 350.421 448.732Z" fill="#001689"/>
<path d="M275.675 398.758H243.076C242.208 398.758 241.498 398.086 241.498 397.264C241.498 396.443 242.208 395.77 243.076 395.77H275.675C276.543 395.77 277.253 396.443 277.253 397.264C277.253 398.086 276.543 398.758 275.675 398.758Z" fill="#001689"/>
<path d="M333.609 422.512H243.076C242.208 422.512 241.498 421.84 241.498 421.018C241.498 420.197 242.208 419.524 243.076 419.524H333.53C334.399 419.524 335.109 420.197 335.109 421.018C335.109 421.84 334.478 422.512 333.609 422.512Z" fill="#001689"/>
<path d="M333.609 433.269H297.538C296.67 433.269 295.959 432.597 295.959 431.775C295.959 430.953 296.67 430.281 297.538 430.281H333.609C334.477 430.281 335.188 430.953 335.188 431.775C335.188 432.597 334.477 433.269 333.609 433.269Z" fill="#001689"/>
<path d="M330.373 407.05H303.774C301.169 407.05 299.038 405.033 299.038 402.568V400.252C299.038 397.787 301.169 395.77 303.774 395.77H330.373C332.978 395.77 335.109 397.787 335.109 400.252V402.568C335.109 405.033 333.057 407.05 330.373 407.05Z" fill="#ACC4E5"/>
</g>
<mask id="path-32-outside-2_59_88" maskUnits="userSpaceOnUse" x="324" y="360" width="47" height="46" fill="black">
<rect fill="white" x="324" y="360" width="47" height="46"/>
<path fill-rule="evenodd" clip-rule="evenodd" d="M343.58 364H350.54C351.435 364 352.16 364.716 352.16 365.598V377.784H364.51C365.405 377.784 366.13 378.5 366.13 379.383V386.25C366.13 387.133 365.405 387.849 364.51 387.849H352.16V400.024C352.16 400.907 351.435 401.623 350.54 401.623H343.58C342.685 401.623 341.96 400.907 341.96 400.024V387.849H329.62C328.725 387.849 328 387.133 328 386.25V379.383C328 378.5 328.725 377.784 329.62 377.784H341.96V365.598C341.96 364.716 342.685 364 343.58 364Z"/>
</mask>
<path fill-rule="evenodd" clip-rule="evenodd" d="M343.58 364H350.54C351.435 364 352.16 364.716 352.16 365.598V377.784H364.51C365.405 377.784 366.13 378.5 366.13 379.383V386.25C366.13 387.133 365.405 387.849 364.51 387.849H352.16V400.024C352.16 400.907 351.435 401.623 350.54 401.623H343.58C342.685 401.623 341.96 400.907 341.96 400.024V387.849H329.62C328.725 387.849 328 387.133 328 386.25V379.383C328 378.5 328.725 377.784 329.62 377.784H341.96V365.598C341.96 364.716 342.685 364 343.58 364Z" fill="#D2202E"/>
<path d="M352.16 377.784H348.16V381.784H352.16V377.784ZM352.16 387.849V383.849H348.16V387.849H352.16ZM341.96 387.849H345.96V383.849H341.96V387.849ZM341.96 377.784V381.784H345.96V377.784H341.96ZM350.54 360H343.58V368H350.54V360ZM356.16 365.598C356.16 362.456 353.593 360 350.54 360V368C349.276 368 348.16 366.975 348.16 365.598H356.16ZM356.16 377.784V365.598H348.16V377.784H356.16ZM364.51 373.784H352.16V381.784H364.51V373.784ZM370.13 379.383C370.13 376.24 367.563 373.784 364.51 373.784V381.784C363.246 381.784 362.13 380.759 362.13 379.383H370.13ZM370.13 386.25V379.383H362.13V386.25H370.13ZM364.51 391.849C367.563 391.849 370.13 389.392 370.13 386.25H362.13C362.13 384.873 363.246 383.849 364.51 383.849V391.849ZM352.16 391.849H364.51V383.849H352.16V391.849ZM356.16 400.024V387.849H348.16V400.024H356.16ZM350.54 405.623C353.593 405.623 356.16 403.167 356.16 400.024H348.16C348.16 398.648 349.276 397.623 350.54 397.623V405.623ZM343.58 405.623H350.54V397.623H343.58V405.623ZM337.96 400.024C337.96 403.167 340.527 405.623 343.58 405.623V397.623C344.844 397.623 345.96 398.648 345.96 400.024H337.96ZM337.96 387.849V400.024H345.96V387.849H337.96ZM329.62 391.849H341.96V383.849H329.62V391.849ZM324 386.25C324 389.392 326.567 391.849 329.62 391.849V383.849C330.884 383.849 332 384.873 332 386.25H324ZM324 379.383V386.25H332V379.383H324ZM329.62 373.784C326.567 373.784 324 376.24 324 379.383H332C332 380.759 330.884 381.784 329.62 381.784V373.784ZM341.96 373.784H329.62V381.784H341.96V373.784ZM337.96 365.598V377.784H345.96V365.598H337.96ZM343.58 360C340.527 360 337.96 362.456 337.96 365.598H345.96C345.96 366.975 344.844 368 343.58 368V360Z" fill="#F5F5F5" mask="url(#path-32-outside-2_59_88)"/>
<path d="M339.554 189.988V240.559H230.157V189.988H339.554ZM339.554 187H230.157C228.421 187 227 188.345 227 189.988V240.559C227 242.202 228.421 243.547 230.157 243.547H339.554C341.291 243.547 342.712 242.202 342.712 240.559V189.988C342.712 188.345 341.291 187 339.554 187Z" fill="#001689"/>
<path d="M336.318 189.988V237.571H230.157V240.559H339.554V189.988H336.318Z" fill="#ACC4E5"/>
<path d="M346.421 249H239.234C238.366 249 237.656 248.328 237.656 247.506C237.656 246.684 238.366 246.012 239.234 246.012H344.843V198.205C344.843 197.383 345.553 196.711 346.421 196.711C347.29 196.711 348 197.383 348 198.205V247.506C348 248.328 347.29 249 346.421 249Z" fill="#001689"/>
<path d="M271.675 199.027H239.076C238.208 199.027 237.498 198.354 237.498 197.533C237.498 196.711 238.208 196.039 239.076 196.039H271.675C272.543 196.039 273.253 196.711 273.253 197.533C273.253 198.354 272.543 199.027 271.675 199.027Z" fill="#001689"/>
<path d="M329.609 222.781H239.076C238.208 222.781 237.498 222.108 237.498 221.287C237.498 220.465 238.208 219.793 239.076 219.793H329.53C330.399 219.793 331.109 220.465 331.109 221.287C331.109 222.108 330.478 222.781 329.609 222.781Z" fill="#001689"/>
<path d="M329.609 233.537H293.538C292.67 233.537 291.959 232.865 291.959 232.043C291.959 231.222 292.67 230.549 293.538 230.549H329.609C330.477 230.549 331.188 231.222 331.188 232.043C331.188 232.865 330.477 233.537 329.609 233.537Z" fill="#001689"/>
<path d="M326.373 207.318H299.774C297.169 207.318 295.038 205.301 295.038 202.836V200.521C295.038 198.055 297.169 196.039 299.774 196.039H326.373C328.978 196.039 331.109 198.055 331.109 200.521V202.836C331.109 205.301 329.057 207.318 326.373 207.318Z" fill="#ACC4E5"/>
<mask id="path-41-outside-3_59_88" maskUnits="userSpaceOnUse" x="319" y="165" width="49" height="49" fill="black">
<rect fill="white" x="319" y="165" width="49" height="49"/>
<path fill-rule="evenodd" clip-rule="evenodd" d="M349.87 190.31C351.513 188.118 352.475 185.458 352.475 182.592C352.475 175.085 345.877 169 337.738 169C329.598 169 323 175.085 323 182.592C323 190.098 329.598 196.183 337.738 196.183C340.097 196.183 342.326 195.672 344.303 194.763L357.292 208.436C358.053 209.236 359.366 209.323 360.225 208.629L362.656 206.664C363.516 205.97 363.595 204.758 362.834 203.957L349.87 190.31Z"/>
</mask>
<path fill-rule="evenodd" clip-rule="evenodd" d="M349.87 190.31C351.513 188.118 352.475 185.458 352.475 182.592C352.475 175.085 345.877 169 337.738 169C329.598 169 323 175.085 323 182.592C323 190.098 329.598 196.183 337.738 196.183C340.097 196.183 342.326 195.672 344.303 194.763L357.292 208.436C358.053 209.236 359.366 209.323 360.225 208.629L362.656 206.664C363.516 205.97 363.595 204.758 362.834 203.957L349.87 190.31Z" fill="#D2202E"/>
<path d="M349.87 190.31L346.669 187.911L344.642 190.615L346.97 193.065L349.87 190.31ZM344.303 194.763L347.203 192.008L345.232 189.934L342.633 191.129L344.303 194.763ZM357.292 208.436L354.392 211.191L354.392 211.191L357.292 208.436ZM360.225 208.629L357.711 205.517L357.711 205.517L360.225 208.629ZM362.656 206.664L360.142 203.553L360.142 203.553L362.656 206.664ZM362.834 203.957L359.935 206.712L359.935 206.712L362.834 203.957ZM348.475 182.592C348.475 184.54 347.826 186.368 346.669 187.911L353.071 192.709C355.2 189.868 356.475 186.376 356.475 182.592H348.475ZM337.738 173C343.979 173 348.475 177.593 348.475 182.592H356.475C356.475 172.577 347.775 165 337.738 165V173ZM327 182.592C327 177.593 331.496 173 337.738 173V165C327.7 165 319 172.577 319 182.592H327ZM337.738 192.183C331.496 192.183 327 187.59 327 182.592H319C319 192.606 327.7 200.183 337.738 200.183V192.183ZM342.633 191.129C341.176 191.798 339.516 192.183 337.738 192.183V200.183C340.677 200.183 343.476 199.546 345.974 198.398L342.633 191.129ZM360.192 205.681L347.203 192.008L341.403 197.518L354.392 211.191L360.192 205.681ZM357.711 205.517C358.127 205.181 358.597 205.076 358.984 205.101C359.372 205.127 359.824 205.293 360.192 205.681L354.392 211.191C356.589 213.503 360.258 213.744 362.739 211.74L357.711 205.517ZM360.142 203.553L357.711 205.517L362.739 211.74L365.17 209.775L360.142 203.553ZM359.935 206.712C359.551 206.308 359.32 205.72 359.362 205.088C359.403 204.456 359.709 203.903 360.142 203.553L365.17 209.775C367.846 207.613 368.104 203.696 365.734 201.202L359.935 206.712ZM346.97 193.065L359.935 206.712L365.734 201.202L352.77 187.555L346.97 193.065Z" fill="#F5F5F5" mask="url(#path-41-outside-3_59_88)"/>
<ellipse cx="337.738" cy="182.591" rx="10.3164" ry="9.5141" fill="#F5F5F5"/>
<path d="M183.554 98.988V149.559H74.1572V98.988H183.554ZM183.554 96H74.1572C72.4207 96 71 97.3446 71 98.988V149.559C71 151.202 72.4207 152.547 74.1572 152.547H183.554C185.291 152.547 186.712 151.202 186.712 149.559V98.988C186.712 97.3446 185.291 96 183.554 96Z" fill="#001689"/>
<path d="M180.318 98.988V146.571H74.1572V149.559H183.554V98.988H180.318Z" fill="#ACC4E5"/>
<path d="M190.421 158H83.2341C82.3659 158 81.6555 157.328 81.6555 156.506C81.6555 155.684 82.3659 155.012 83.2341 155.012H188.843V107.205C188.843 106.383 189.553 105.711 190.421 105.711C191.29 105.711 192 106.383 192 107.205V156.506C192 157.328 191.29 158 190.421 158Z" fill="#001689"/>
<path d="M115.675 108.027H83.0764C82.2082 108.027 81.4978 107.354 81.4978 106.533C81.4978 105.711 82.2082 105.039 83.0764 105.039H115.675C116.543 105.039 117.253 105.711 117.253 106.533C117.253 107.354 116.543 108.027 115.675 108.027Z" fill="#001689"/>
<path d="M173.609 131.781H83.0764C82.2082 131.781 81.4978 131.108 81.4978 130.287C81.4978 129.465 82.2082 128.793 83.0764 128.793H173.53C174.399 128.793 175.109 129.465 175.109 130.287C175.109 131.108 174.478 131.781 173.609 131.781Z" fill="#001689"/>
<path d="M173.609 142.537H137.538C136.67 142.537 135.959 141.865 135.959 141.043C135.959 140.222 136.67 139.549 137.538 139.549H173.609C174.477 139.549 175.188 140.222 175.188 141.043C175.188 141.865 174.477 142.537 173.609 142.537Z" fill="#001689"/>
<path d="M170.373 116.318H143.774C141.169 116.318 139.038 114.301 139.038 111.836V109.521C139.038 107.055 141.169 105.039 143.774 105.039H170.373C172.978 105.039 175.109 107.055 175.109 109.521V111.836C175.109 114.301 173.057 116.318 170.373 116.318Z" fill="#ACC4E5"/>
<path d="M204.006 77.6504C198.856 74.3204 190.556 76.1504 187.976 82.0504C185.706 76.7904 176.746 74.3104 171.596 77.6404C166.286 81.0804 164.286 86.7704 167.656 93.6004C171.026 100.43 187.796 115.83 187.796 115.83C187.796 115.83 205.536 99.3904 208.286 93.4004C211.036 87.4104 209.316 81.0804 203.996 77.6504H204.006Z" fill="#D2202E"/>
<path d="M187.796 115.83C187.796 115.83 171.026 100.43 167.656 93.6004C164.286 86.7704 166.286 81.0804 171.596 77.6404C176.746 74.3104 185.706 76.7904 187.976 82.0504C190.556 76.1504 198.856 74.3204 204.006 77.6504H203.996C209.316 81.0804 211.036 87.4104 208.286 93.4004C205.536 99.3904 187.796 115.83 187.796 115.83ZM187.796 115.83V115.81" stroke="#F5F5F5" stroke-width="4" stroke-linecap="round" stroke-linejoin="round"/>
<g clip-path="url(#clip3_59_88)">
<path d="M183.554 197.988V248.559H74.1572V197.988H183.554ZM183.554 195H74.1572C72.4207 195 71 196.345 71 197.988V248.559C71 250.202 72.4207 251.547 74.1572 251.547H183.554C185.291 251.547 186.712 250.202 186.712 248.559V197.988C186.712 196.345 185.291 195 183.554 195Z" fill="#001689"/>
<path d="M180.318 197.988V245.571H74.1572V248.559H183.554V197.988H180.318Z" fill="#ACC4E5"/>
<path d="M190.421 257H83.2341C82.3659 257 81.6555 256.328 81.6555 255.506C81.6555 254.684 82.3659 254.012 83.2341 254.012H188.843V206.205C188.843 205.383 189.553 204.711 190.421 204.711C191.29 204.711 192 205.383 192 206.205V255.506C192 256.328 191.29 257 190.421 257Z" fill="#001689"/>
<path d="M115.675 207.027H83.0764C82.2082 207.027 81.4978 206.354 81.4978 205.533C81.4978 204.711 82.2082 204.039 83.0764 204.039H115.675C116.543 204.039 117.253 204.711 117.253 205.533C117.253 206.354 116.543 207.027 115.675 207.027Z" fill="#001689"/>
<path d="M173.609 230.781H83.0764C82.2082 230.781 81.4978 230.108 81.4978 229.287C81.4978 228.465 82.2082 227.793 83.0764 227.793H173.53C174.399 227.793 175.109 228.465 175.109 229.287C175.109 230.108 174.478 230.781 173.609 230.781Z" fill="#001689"/>
<path d="M173.609 241.537H137.538C136.67 241.537 135.959 240.865 135.959 240.043C135.959 239.222 136.67 238.549 137.538 238.549H173.609C174.477 238.549 175.188 239.222 175.188 240.043C175.188 240.865 174.477 241.537 173.609 241.537Z" fill="#001689"/>
<path d="M170.373 215.318H143.774C141.169 215.318 139.038 213.301 139.038 210.836V208.521C139.038 206.055 141.169 204.039 143.774 204.039H170.373C172.978 204.039 175.109 206.055 175.109 208.521V210.836C175.109 213.301 173.057 215.318 170.373 215.318Z" fill="#ACC4E5"/>
</g>
<mask id="path-60-outside-4_59_88" maskUnits="userSpaceOnUse" x="164.235" y="173" width="40" height="42" fill="black">
<rect fill="white" x="164.235" y="173" width="40" height="42"/>
<path fill-rule="evenodd" clip-rule="evenodd" d="M174.681 176C173.576 176 172.678 176.898 172.709 178.002C173.076 191.107 177.016 201.773 182.129 204.056C182.106 205.351 181.822 206.632 181.046 207.5H180C178.895 207.5 178 208.395 178 209.5V210C178 211.105 178.895 212 180 212H189C190.104 212 191 211.105 191 210V209.5C191 208.395 190.104 207.5 189 207.5H188.104C187.49 206.796 186.988 205.609 186.901 203.706C191.686 200.828 195.302 190.529 195.653 178.002C195.684 176.898 194.785 176 193.681 176H174.681ZM169.884 188.024C170.288 190.413 172.238 192.299 173.619 193.636C174.915 194.889 175.71 195.659 174.26 195.904C171.265 196.411 168.202 193.07 167.419 188.441C166.635 183.813 168.428 179.65 171.423 179.143C172.838 178.903 172.386 179.772 171.603 181.277C170.729 182.955 169.444 185.424 169.884 188.024ZM194.484 193.636C195.865 192.299 197.815 190.413 198.219 188.024C198.659 185.424 197.374 182.955 196.5 181.277C195.717 179.772 195.265 178.903 196.68 179.143C199.675 179.65 201.468 183.813 200.684 188.441C199.901 193.07 196.837 196.411 193.842 195.904C192.393 195.659 193.188 194.889 194.484 193.636Z"/>
</mask>
<path fill-rule="evenodd" clip-rule="evenodd" d="M174.681 176C173.576 176 172.678 176.898 172.709 178.002C173.076 191.107 177.016 201.773 182.129 204.056C182.106 205.351 181.822 206.632 181.046 207.5H180C178.895 207.5 178 208.395 178 209.5V210C178 211.105 178.895 212 180 212H189C190.104 212 191 211.105 191 210V209.5C191 208.395 190.104 207.5 189 207.5H188.104C187.49 206.796 186.988 205.609 186.901 203.706C191.686 200.828 195.302 190.529 195.653 178.002C195.684 176.898 194.785 176 193.681 176H174.681ZM169.884 188.024C170.288 190.413 172.238 192.299 173.619 193.636C174.915 194.889 175.71 195.659 174.26 195.904C171.265 196.411 168.202 193.07 167.419 188.441C166.635 183.813 168.428 179.65 171.423 179.143C172.838 178.903 172.386 179.772 171.603 181.277C170.729 182.955 169.444 185.424 169.884 188.024ZM194.484 193.636C195.865 192.299 197.815 190.413 198.219 188.024C198.659 185.424 197.374 182.955 196.5 181.277C195.717 179.772 195.265 178.903 196.68 179.143C199.675 179.65 201.468 183.813 200.684 188.441C199.901 193.07 196.837 196.411 193.842 195.904C192.393 195.659 193.188 194.889 194.484 193.636Z" fill="#D2202E"/>
<path d="M172.709 178.002L169.71 178.086L169.71 178.086L172.709 178.002ZM182.129 204.056L185.129 204.109L185.164 202.126L183.353 201.317L182.129 204.056ZM181.046 207.5V210.5H182.387L183.282 209.5L181.046 207.5ZM188.104 207.5L185.842 209.472L186.739 210.5H188.104V207.5ZM186.901 203.706L185.355 201.135L183.823 202.057L183.904 203.843L186.901 203.706ZM195.653 178.002L198.652 178.086L198.652 178.086L195.653 178.002ZM173.619 193.636L171.533 195.792L171.533 195.792L173.619 193.636ZM169.884 188.024L172.842 187.523L169.884 188.024ZM174.26 195.904L173.76 192.946L173.76 192.946L174.26 195.904ZM167.419 188.441L164.461 188.942L164.461 188.942L167.419 188.441ZM171.423 179.143L170.922 176.185L170.922 176.185L171.423 179.143ZM171.603 181.277L168.942 179.891L168.942 179.891L171.603 181.277ZM198.219 188.024L201.177 188.525L201.177 188.525L198.219 188.024ZM194.484 193.636L192.398 191.48L192.398 191.48L194.484 193.636ZM196.5 181.277L199.161 179.891L199.161 179.891L196.5 181.277ZM196.68 179.143L196.179 182.101L196.179 182.101L196.68 179.143ZM200.684 188.441L203.642 188.942L203.642 188.942L200.684 188.441ZM193.842 195.904L194.343 192.946L194.343 192.946L193.842 195.904ZM175.708 177.918C175.725 178.554 175.215 179 174.681 179V173C171.938 173 169.63 175.242 169.71 178.086L175.708 177.918ZM183.353 201.317C181.967 200.698 180.068 198.486 178.458 194.061C176.92 189.832 175.884 184.218 175.708 177.918L169.71 178.086C169.9 184.891 171.019 191.162 172.82 196.113C174.55 200.868 177.178 205.131 180.906 206.795L183.353 201.317ZM183.282 209.5C184.767 207.84 185.101 205.682 185.129 204.109L179.13 204.003C179.112 205.019 178.877 205.425 178.81 205.5L183.282 209.5ZM180 210.5H181.046V204.5H180V210.5ZM181 209.5C181 210.052 180.552 210.5 180 210.5V204.5C177.238 204.5 175 206.739 175 209.5H181ZM181 210V209.5H175V210H181ZM180 209C180.552 209 181 209.448 181 210H175C175 212.761 177.238 215 180 215V209ZM189 209H180V215H189V209ZM188 210C188 209.448 188.448 209 189 209V215C191.761 215 194 212.761 194 210H188ZM188 209.5V210H194V209.5H188ZM189 210.5C188.448 210.5 188 210.052 188 209.5H194C194 206.739 191.761 204.5 189 204.5V210.5ZM188.104 210.5H189V204.5H188.104V210.5ZM183.904 203.843C184.011 206.188 184.65 208.104 185.842 209.472L190.365 205.528C190.33 205.488 189.965 205.031 189.898 203.569L183.904 203.843ZM192.654 177.918C192.486 183.937 191.532 189.335 190.102 193.498C188.622 197.808 186.818 200.255 185.355 201.135L188.448 206.277C191.769 204.279 194.166 200.137 195.777 195.447C197.439 190.609 198.47 184.594 198.652 178.086L192.654 177.918ZM193.681 179C193.147 179 192.636 178.554 192.654 177.918L198.652 178.086C198.731 175.242 196.424 173 193.681 173V179ZM174.681 179H193.681V173H174.681V179ZM175.705 191.48C174.996 190.793 174.327 190.139 173.776 189.412C173.229 188.691 172.934 188.068 172.842 187.523L166.926 188.525C167.523 192.052 170.31 194.608 171.533 195.792L175.705 191.48ZM174.761 198.862C175.206 198.787 176.376 198.566 177.224 197.583C178.442 196.173 178.018 194.577 177.681 193.865C177.38 193.229 176.927 192.722 176.669 192.444C176.368 192.12 176.011 191.775 175.705 191.48L171.533 195.792C171.875 196.123 172.103 196.345 172.271 196.525C172.481 196.752 172.379 196.687 172.257 196.43C172.185 196.278 172.027 195.895 172.037 195.356C172.048 194.737 172.277 194.132 172.684 193.661C173.039 193.25 173.414 193.073 173.563 193.012C173.722 192.947 173.809 192.938 173.76 192.946L174.761 198.862ZM164.461 188.942C164.935 191.742 166.116 194.29 167.799 196.126C169.458 197.936 171.925 199.342 174.761 198.862L173.76 192.946C173.601 192.973 173.039 192.962 172.222 192.071C171.429 191.207 170.686 189.77 170.377 187.941L164.461 188.942ZM170.922 176.185C168.086 176.665 166.219 178.805 165.248 181.06C164.263 183.348 163.987 186.143 164.461 188.942L170.377 187.941C170.067 186.111 170.295 184.51 170.759 183.433C171.237 182.323 171.765 182.127 171.924 182.101L170.922 176.185ZM174.264 182.662C174.447 182.31 174.666 181.891 174.839 181.508C174.981 181.192 175.259 180.555 175.325 179.827C175.361 179.427 175.355 178.794 175.055 178.11C174.724 177.355 174.148 176.8 173.487 176.474C172.422 175.948 171.341 176.114 170.922 176.185L171.924 182.101C171.982 182.091 171.919 182.107 171.776 182.102C171.648 182.098 171.276 182.074 170.829 181.853C170.313 181.598 169.835 181.145 169.561 180.522C169.319 179.969 169.33 179.496 169.349 179.284C169.381 178.932 169.487 178.779 169.369 179.042C169.281 179.238 169.15 179.491 168.942 179.891L174.264 182.662ZM172.842 187.523C172.596 186.07 173.31 184.494 174.264 182.662L168.942 179.891C168.148 181.417 166.292 184.778 166.926 188.525L172.842 187.523ZM195.261 187.523C195.169 188.068 194.874 188.691 194.327 189.412C193.776 190.139 193.107 190.793 192.398 191.48L196.57 195.792C197.793 194.608 200.58 192.052 201.177 188.525L195.261 187.523ZM193.839 182.662C194.793 184.494 195.507 186.07 195.261 187.523L201.177 188.525C201.811 184.778 199.955 181.417 199.161 179.891L193.839 182.662ZM197.181 176.185C196.761 176.114 195.681 175.948 194.616 176.474C193.955 176.8 193.379 177.355 193.048 178.11C192.748 178.794 192.742 179.427 192.778 179.827C192.844 180.555 193.122 181.192 193.264 181.508C193.437 181.891 193.656 182.31 193.839 182.662L199.161 179.891C198.953 179.491 198.822 179.238 198.734 179.042C198.615 178.779 198.722 178.932 198.754 179.284C198.773 179.496 198.784 179.969 198.542 180.522C198.268 181.145 197.79 181.598 197.274 181.853C196.827 182.074 196.455 182.098 196.327 182.102C196.184 182.107 196.121 182.091 196.179 182.101L197.181 176.185ZM203.642 188.942C204.116 186.143 203.84 183.348 202.855 181.06C201.883 178.805 200.017 176.665 197.181 176.185L196.179 182.101C196.338 182.127 196.866 182.323 197.344 183.433C197.808 184.51 198.036 186.111 197.726 187.941L203.642 188.942ZM193.342 198.862C196.178 199.342 198.645 197.936 200.304 196.126C201.987 194.29 203.168 191.742 203.642 188.942L197.726 187.941C197.417 189.77 196.674 191.207 195.881 192.071C195.064 192.962 194.502 192.973 194.343 192.946L193.342 198.862ZM192.398 191.48C192.092 191.775 191.735 192.12 191.434 192.444C191.176 192.722 190.723 193.229 190.422 193.865C190.085 194.577 189.661 196.173 190.879 197.583C191.727 198.566 192.897 198.787 193.342 198.862L194.343 192.946C194.294 192.938 194.381 192.947 194.54 193.012C194.689 193.073 195.064 193.25 195.419 193.661C195.826 194.132 196.055 194.737 196.066 195.356C196.076 195.895 195.918 196.278 195.846 196.43C195.724 196.687 195.622 196.752 195.832 196.525C196 196.345 196.228 196.123 196.57 195.792L192.398 191.48Z" fill="#F5F5F5" mask="url(#path-60-outside-4_59_88)"/>
<defs>
<clipPath id="clip0_59_88">
<rect width="121" height="62" fill="white" transform="translate(73 389)"/>
</clipPath>
<clipPath id="clip1_59_88">
<rect width="121" height="62" fill="white" transform="translate(229 286.515)"/>
</clipPath>
<clipPath id="clip2_59_88">
<rect width="121" height="62" fill="white" transform="translate(231 386.732)"/>
</clipPath>
<clipPath id="clip3_59_88">
<rect width="121" height="62" fill="white" transform="translate(71 195)"/>
</clipPath>
</defs>
</svg>
