<?xml version="1.0" encoding="UTF-8"?>
<svg xmlns="http://www.w3.org/2000/svg" xmlns:xlink="http://www.w3.org/1999/xlink" version="1.1" viewBox="0 0 300 300">
  <defs>
    <style>
      .cls-1, .cls-2 {
        fill: none;
      }

      .cls-3 {
        fill: #f2f2f3;
      }

      .cls-4 {
        fill: #0557a3;
      }

      .cls-2 {
        stroke: #0557a3;
        stroke-width: 5px;
      }

      .cls-2, .cls-5 {
        stroke-miterlimit: 10;
      }

      .cls-5 {
        fill: #231f20;
        stroke: #231f20;
        stroke-width: 25px;
      }

      .cls-6 {
        clip-path: url(#clippath);
      }
    </style>
    <clipPath id="clippath">
      <rect class="cls-1" x="37.6" y="9.5" width="224.8" height="281"/>
    </clipPath>
  </defs>
  <!-- Generator: Adobe Illustrator 28.7.1, SVG Export Plug-In . SVG Version: 1.2.0 Build 142)  -->
  <g>
    <g id="Layer_1">
      <g class="cls-6">
        <g>
          <path class="cls-5" d="M54.7,48s13.9,33,10.8,55.4c-4.6,33.2-6.2,47.9-6.2,47.9,0,0-16.9,75,90.3,125.6,0,0,101.1-41.5,90.3-128.8,0,0-6.7-39.4-6.2-51.6.5-12.2,5.1-39.9,9.8-47.9l-93.9-26.1-94.9,25.5Z"/>
          <path class="cls-3" d="M82.2,107.8l1.4-3.7-5.6.2,4.2,3.6ZM77.5,105.5l-.5,1.3c-.1.4-.3.6-.4.7-.2.1-.4.1-.6,0-.3,0-.4-.2-.4-.4,0-.2,0-.5.3-1.1l1-2.6c.1-.3.3-.5.4-.6.1,0,.3-.1.6-.1l10.3-.3v-.2c.2-.3.3-.5.4-.6.1,0,.3,0,.6,0,.3,0,.4.2.5.4,0,.2,0,.4-.1.7l-.9,2.5c-.2.5-.3.7-.5.8-.1,0-.3,0-.6,0-.2,0-.4-.2-.4-.4,0-.2,0-.5.2-.9l.3-.9h-2.5c0,0-1.7,4.7-1.7,4.7l1.9,1.6.3-.9c.1-.4.3-.7.5-.8.1-.1.3-.1.6,0,.3,0,.4.2.4.4,0,.2,0,.5-.2.9l-.9,2.4c-.1.4-.3.6-.4.7-.1,0-.3,0-.6,0-.2,0-.4-.2-.4-.4,0-.2,0-.4.1-.8v-.2c0,0-7-6.2-7-6.2Z"/>
          <path class="cls-3" d="M94.5,88.5c-.4-.3-.6-.6-.6-.7,0-.2,0-.4.2-.6.2-.2.3-.3.5-.3.2,0,.3,0,.5.2l.3.3,2.4,2.1c.2.2.3.3.3.5,0,.2,0,.3-.2.5l-5.8,6.5-.3.3c-.2.2-.3.3-.5.3-.2,0-.3,0-.5-.2-.2-.2-.3-.3-.3-.5,0-.2.2-.4.5-.8l.8-.9-6.6-5.9-.8.9c-.3.4-.6.6-.7.6-.2,0-.4,0-.6-.2-.2-.2-.3-.3-.3-.5,0-.2,0-.4.2-.5l.3-.3,2.9-3.3.3-.3c.2-.2.3-.3.5-.3.2,0,.3,0,.5.2.2.2.3.4.3.5,0,.2-.2.4-.5.8l-1.1,1.2,6.6,5.9,3.5-3.9-1.9-1.7Z"/>
          <path class="cls-3" d="M102.8,79.7l3.4-2.1-4.5-3.3,1.1,5.4ZM100.5,75.1l-1.2.7c-.3.2-.6.3-.8.3-.2,0-.4-.1-.5-.3-.1-.2-.2-.4-.1-.6,0-.2.4-.4.9-.7l2.4-1.4c.3-.2.5-.3.7-.3.2,0,.3,0,.6.3l8.2,6.2h.1c.3-.3.5-.4.7-.3.2,0,.3.1.4.3.1.2.2.4.1.6,0,.1-.2.3-.5.5l-2.3,1.4c-.4.3-.7.4-.9.4-.2,0-.3-.1-.5-.4-.1-.2-.2-.4,0-.6,0-.2.3-.4.7-.6l.8-.5-2-1.5-4.2,2.6.5,2.4.8-.5c.4-.2.6-.3.8-.3.2,0,.3.1.5.3.1.2.2.4.1.6,0,.2-.3.4-.7.6l-2.2,1.3c-.4.2-.6.3-.8.3-.2,0-.3-.1-.5-.4-.1-.2-.2-.4,0-.6,0-.2.3-.3.6-.5h.2c0,0-1.7-9.3-1.7-9.3Z"/>
          <path class="cls-3" d="M117,66.4l1.2,3.8,1.9-.6c.9-.3,1.5-.6,1.8-1.1.3-.5.4-1,.2-1.6-.2-.6-.6-1-1.1-1.2-.5-.2-1.2-.1-2.1.1l-2,.6ZM119.7,74.8l.6-.2c.4-.1.6-.1.8,0,.2,0,.3.2.4.4,0,.2,0,.4,0,.6,0,.1-.3.3-.7.4l-3.1,1c-.2,0-.4,0-.5,0-.1,0-.3-.2-.3-.4,0-.2,0-.4,0-.6,0-.1.3-.3.6-.3h.3c0,0,.5-.3.5-.3l-2.7-8.5-.5.2c-.5.1-.8.2-.9.2-.2,0-.3-.2-.4-.4,0-.2,0-.4,0-.5,0-.1.2-.2.4-.3l3.9-1.3c.9-.3,1.7-.5,2.2-.5.5,0,.9,0,1.3,0,.5.1.9.4,1.3.8.4.4.7.8.8,1.4.2.7.2,1.4,0,2.1-.3.6-.8,1.2-1.5,1.6.2,0,.4.1.5.2.2,0,.3.2.5.3l2.8,2.3h.3c.3-.2.6-.2.8-.2.2,0,.3.2.4.4,0,.2,0,.4,0,.6,0,.1-.2.3-.4.3l-1.1.3c-.3,0-.7,0-1.1-.4,0,0,0,0-.1,0l-2.7-2.1c-.5-.4-1-.7-1.3-.8-.3,0-.6,0-1,0l-1.2.4,1.1,3.5Z"/>
          <path class="cls-3" d="M138.4,66.7l1.5-6.3c0-.2.2-.4.3-.5.2-.1.4-.2.7-.2l1.6-.2c.2,0,.4,0,.5.1.1,0,.2.3.2.5,0,.2,0,.4-.2.5-.1.1-.4.2-.7.2h-.2s1.2,8.8,1.2,8.8h.2c.4,0,.7,0,.9,0,.2,0,.2.2.3.5,0,.2,0,.4-.1.5-.1.1-.3.2-.5.2l-2.7.3c-.4,0-.6,0-.8,0-.1,0-.2-.3-.3-.5,0-.3,0-.4.2-.5.2-.1.5-.2.9-.2h.4s-1-8.4-1-8.4l-1.4,5.8c0,.3-.2.5-.3.6-.1.1-.3.2-.6.2-.3,0-.5,0-.6,0-.2,0-.3-.3-.4-.5l-2.5-5.4.7,8.4h.7c.4-.1.7,0,.8,0,.2,0,.3.3.3.5,0,.3,0,.4-.1.6-.1.1-.4.2-.8.2l-2.7.3c-.2,0-.4,0-.5-.1-.1-.1-.2-.3-.2-.5,0-.3,0-.4.2-.5.1-.1.4-.2.8-.2h.2s-.6-8.9-.6-8.9h-.2c-.4,0-.6,0-.8,0-.1,0-.2-.2-.3-.5,0-.2,0-.4.1-.5,0-.1.3-.2.5-.2l1.6-.2c.3,0,.5,0,.7,0,.2,0,.3.2.4.5l2.7,5.9Z"/>
          <path class="cls-3" d="M153.8,68.3l2.2-5.6c0-.2.2-.3.2-.4,0,0,.2,0,.4,0h.4c.2,0,.3.1.4.2,0,0,.1.2.2.4l1.3,6,1.7-7.6h-1.5c-.3-.2-.5-.3-.6-.4-.1-.1-.2-.3-.2-.5,0-.2.1-.4.2-.5.1,0,.4-.1.8,0l3.1.3c.1,0,.3,0,.4.2,0,.1.1.3.1.5,0,.2,0,.4-.2.5-.1,0-.3.1-.6.1h-.1s-2.3,9.6-2.3,9.6c0,.2,0,.3-.2.4,0,0-.1,0-.3,0h-.7c-.1,0-.3-.1-.3-.2s-.1-.2-.2-.4l-1.5-6.9-2.5,6.5c0,.2-.1.3-.2.3,0,0-.2,0-.4,0h-.7c-.1,0-.2-.1-.3-.2,0,0,0-.2,0-.4l-.5-9.8h-.1c-.3,0-.4-.1-.6-.2-.1-.1-.2-.3-.1-.5,0-.2,0-.3.2-.5.1-.1.2-.2.4-.1l3.1.3c.4,0,.6.1.7.2.1.1.2.3.2.5,0,.2-.1.4-.3.5-.1,0-.4.1-.7,0h-1.4c0-.1.3,7.7.3,7.7Z"/>
          <path class="cls-3" d="M179.8,69.9c-.5,1.7-1.5,2.9-2.7,3.7-1.3.8-2.7.9-4.1.5-1.5-.5-2.5-1.4-3.1-2.8-.6-1.4-.6-2.9,0-4.6.5-1.7,1.5-3,2.7-3.7,1.3-.8,2.7-1,4.1-.5,1.5.5,2.5,1.4,3.1,2.8.6,1.4.6,2.9,0,4.6ZM173.3,72.8c1,.3,2,.2,2.8-.4.9-.6,1.5-1.6,1.9-3,.4-1.4.5-2.6.1-3.6-.3-1-1-1.6-2.1-2-1-.3-2-.2-2.8.4-.8.6-1.5,1.6-1.9,3-.4,1.4-.5,2.6-.2,3.6.4,1,1,1.6,2.1,2Z"/>
          <path class="cls-3" d="M192.1,70.3l-2,3.4,1.7,1c.8.5,1.4.7,2,.6.6,0,1-.3,1.4-.9.3-.6.4-1.1.2-1.6-.2-.5-.7-1-1.5-1.5l-1.8-1.1ZM187.5,77.9l.6.3c.3.2.5.4.6.5,0,.2,0,.4,0,.6-.1.2-.3.3-.5.4-.2,0-.4,0-.7-.3l-2.8-1.7c-.2-.1-.3-.3-.3-.4,0-.2,0-.3.1-.5.1-.2.3-.3.4-.3.2,0,.4,0,.6.2l.3.2.5.3,4.6-7.6-.5-.3c-.4-.3-.7-.5-.7-.6,0-.2,0-.3,0-.6.1-.2.2-.3.4-.3.2,0,.3,0,.5.1l3.5,2.1c.9.5,1.5.9,1.8,1.3.4.3.6.7.8,1.1.2.5.3,1,.3,1.5,0,.5-.2,1.1-.5,1.5-.4.6-.9,1.1-1.6,1.3-.7.2-1.4.2-2.2,0,0,.2.2.3.2.5,0,.2,0,.4,0,.6v3.6c.1,0,.4.2.4.2.3.2.5.4.6.5,0,.2,0,.3,0,.5-.1.2-.3.3-.4.4-.2,0-.3,0-.5-.1l-.9-.6c-.3-.2-.4-.5-.4-1.1,0,0,0,0,0-.1v-3.4c-.2-.7-.2-1.2-.4-1.5-.1-.3-.4-.5-.7-.7l-1.1-.7-1.9,3.1Z"/>
          <path class="cls-3" d="M201.4,87.6l.4.5c.3.3.4.5.4.7,0,.2,0,.4-.2.5-.2.2-.4.2-.5.2-.2,0-.4-.2-.6-.5l-2.2-2.5c-.1-.2-.2-.3-.2-.5,0-.2.1-.3.3-.5.2-.2.3-.2.5-.2.2,0,.3.2.6.4l.2.2.4.5,6.5-5.9-.4-.5c-.3-.4-.5-.6-.5-.8,0-.2,0-.3.3-.5.2-.2.3-.2.5-.2.2,0,.3,0,.5.3l2.2,2.5c.3.3.4.5.4.7,0,.2,0,.3-.3.5-.2.2-.4.2-.6.2-.2,0-.5-.3-.8-.6l-.3-.3-2.9,2.7,5.7.4h0c0,0-.1-.2-.1-.2-.2-.2-.3-.4-.3-.6,0-.2,0-.4.3-.5.2-.2.4-.2.5-.2.2,0,.3.1.5.3l1.9,2.1c.1.2.2.3.2.5,0,.2,0,.3-.3.5-.2.2-.4.2-.6.2-.2,0-.4-.2-.7-.5h0c0-.1-5.2-.5-5.2-.5.3.5.4,1.1.3,2,0,.8-.6,2.3-1.4,4.5h.1c.3.4.4.7.4.8,0,.2,0,.3-.3.5-.2.2-.3.2-.5.2-.2,0-.3,0-.5-.3l-.6-.7c-.1-.2-.2-.3-.3-.4,0,0,0-.2,0-.4,0-.1.3-.8.7-2.1l.3-.8c.3-.8.4-1.5.4-2.1,0-.6-.1-1-.4-1.4h-1.5c0-.1-2.3,1.9-2.3,1.9Z"/>
          <path class="cls-3" d="M219.5,96.9l-1.9.6c0,0-.2,0-.2,0,0,0-.1,0-.2,0-.2,0-.4,0-.6,0-.1,0-.3-.2-.3-.5,0-.2,0-.4,0-.6,0-.1.3-.3.5-.4h.4c0-.1,2.6-1,2.6-1,.2,0,.4,0,.6,0,.1,0,.3.2.4.5l2,5.2c.1.4.2.7,0,.9,0,.2-.2.4-.5.5-.1,0-.3,0-.5,0-.2,0-.4,0-.6,0l-9.9-2.4,1.6,4.2,2.2-.7s0,0,0,0c.7-.2,1.1-.1,1.3.3,0,.2,0,.4,0,.6,0,.1-.3.3-.5.4,0,0,0,0-.1,0,0,0-.2,0-.2,0l-2.8.9c-.2,0-.4,0-.6,0-.1,0-.2-.2-.3-.5l-2.2-5.7c0-.3-.1-.5,0-.7s.3-.4.5-.5c.1,0,.3,0,.5,0,.2,0,.4,0,.7.1l9.6,2.4-1.5-3.9Z"/>
          <path class="cls-2" d="M54.6,48.6s13.9,33,10.8,55.3c-4.6,33.2-6.2,47.9-6.2,47.9,0,0-16.9,75,90.3,125.6,0,0,101.1-41.5,90.3-128.8,0,0-6.7-39.4-6.2-51.6s5.1-39.9,9.8-47.9l-93.9-26.1-94.9,25.5Z"/>
          <path class="cls-3" d="M81.2,185.2c-.3.1-.5.2-.6.2-.2,0-.3-.1-.5-.3-.2-.2-.2-.4-.2-.6,0-.2.2-.4.5-.6l1.7-1.5h.1c.3-.3.5-.4.6-.4.2,0,.4.1.5.4.2.3.2.7-.2,1.2-.2.2-.3.4-.4.6-.2.5-.3,1-.2,1.5,0,.5.4,1.1.8,1.6.5.7,1.1,1.1,1.7,1.3.6.2,1.2,0,1.7-.3.4-.3.6-.7.7-1.1,0-.4,0-.9-.4-1.5l-.7-1.3c-.7-1.2-1-2.2-.9-3,0-.8.4-1.5,1.2-2.1.8-.6,1.7-.8,2.7-.5,1,.3,1.9.9,2.7,1.9.2.3.4.6.6,1,.2.4.3.8.5,1.3.2-.1.3-.1.4-.1s.2.1.4.3c.2.2.3.4.3.6,0,.1-.1.3-.4.5l-1.6,1.3h0c-.2.2-.4.2-.5.2-.2,0-.3-.1-.5-.3-.2-.3-.2-.6.1-1.1.2-.2.3-.4.3-.6.1-.4.1-.8,0-1.2-.1-.4-.3-.8-.6-1.3-.5-.6-1-1-1.6-1.2-.6-.2-1.2,0-1.7.3-.4.3-.6.7-.6,1.1,0,.5.2,1,.5,1.7l.8,1.4c.6,1,.8,1.9.7,2.7,0,.8-.5,1.4-1.2,2-.9.7-1.8.9-2.8.6-1-.3-1.9-.9-2.7-2-.3-.4-.5-.8-.7-1.2-.2-.4-.3-.9-.5-1.5Z"/>
          <path class="cls-3" d="M88.9,195l-.3-.3c-.2-.2-.3-.3-.3-.5,0-.2,0-.3.2-.5.2-.2.4-.3.5-.2.2,0,.4.2.8.6l.5.4,6.1-6.4-.5-.4c-.4-.3-.5-.6-.6-.8,0-.2,0-.4.2-.6.2-.2.3-.3.5-.3.2,0,.3,0,.5.3l.3.3,5.8,5.6c.2.2.2.3.2.5,0,.2,0,.4-.3.5l-1.6,1.7c-.2.2-.4.4-.6.4-.2,0-.3,0-.5-.2-.2-.2-.3-.4-.3-.5,0-.2.2-.4.6-.8l1-1-3.8-3.6-2.3,2.4,1.8,1.8.4-.4c.2-.3.4-.4.6-.4.2,0,.3,0,.5.2.2.2.2.3.2.5,0,.2-.2.4-.5.8l-1.3,1.3c-.3.4-.6.5-.7.6-.2,0-.3,0-.5-.2-.2-.2-.2-.3-.2-.5,0-.2.2-.4.5-.7l.2-.2-1.8-1.8-3,3.1,3.8,3.6,1.1-1.1c.3-.4.6-.6.8-.6.2,0,.4,0,.6.2.2.2.3.3.2.5,0,.2-.2.4-.4.7l-1.7,1.8c-.2.2-.3.3-.5.3-.2,0-.3,0-.5-.2l-5.8-5.6Z"/>
          <path class="cls-3" d="M111.7,198.9c.2-.1.3-.2.4-.2.1,0,.3,0,.5.2.2.1.3.3.3.4,0,.2,0,.4-.3.7-.4.5-.7,1-1,1.5-.3.5-.4.7-.4.6-.2.3-.3.4-.5.4-.1,0-.3,0-.5-.2-.4-.2-.4-.7-.2-1.2,0-.2.1-.3.1-.4.2-.5.1-1,0-1.5-.2-.5-.6-1-1.1-1.3-1-.6-2-.8-3-.5-1,.3-2,1-2.8,2.2-.8,1.2-1.1,2.3-1,3.4.1,1.1.7,2,1.6,2.6.3.2.7.4,1,.5.4.1.8.2,1.2.2.2,0,.5,0,.9,0,.4,0,.6,0,.7,0,.2.1.3.3.3.5,0,.2,0,.4,0,.5-.1.2-.3.3-.5.3-.2,0-.6,0-1.1,0-.7,0-1.3-.1-1.8-.3s-1.1-.4-1.6-.8c-1.3-.9-2.1-2.1-2.3-3.6-.2-1.5.2-3,1.1-4.5,1-1.4,2.2-2.4,3.8-2.7,1.5-.4,3,0,4.3.8.4.2.7.5,1,.9.3.3.6.7.9,1.2Z"/>
          <path class="cls-3" d="M115.5,202.2h-.1c-.4-.2-.6-.4-.7-.5,0-.2,0-.3,0-.6,0-.2.2-.4.4-.4.2,0,.4,0,.6,0l.4.2,1.8.8c.5.2.8.4.9.6,0,.1,0,.3,0,.6-.1.2-.3.4-.5.4-.2,0-.5,0-.9-.3l-.4-.2-2.2,4.9c-.3.7-.5,1.2-.6,1.5,0,.3,0,.6,0,1,0,.5.2.9.5,1.2.3.4.6.7,1.1.9.8.4,1.6.4,2.2,0,.6-.3,1.2-1.1,1.7-2.2l2.3-5-.5-.2c-.5-.2-.8-.4-.9-.6-.1-.2-.1-.4,0-.6.1-.2.2-.4.4-.4.2,0,.4,0,.8.2l2,.9.4.2c.2,0,.3.2.4.4,0,.2,0,.3,0,.6-.1.2-.2.4-.4.4-.2,0-.4,0-.8-.2h-.1c0,0-2.4,5.2-2.4,5.2-.7,1.4-1.5,2.4-2.4,2.8-1,.4-2.1.3-3.4-.2-1.2-.5-1.9-1.3-2.3-2.4-.4-1-.3-2.2.3-3.4l2.5-5.6Z"/>
          <path class="cls-3" d="M128.8,207.2l-1,3.8,2,.5c.9.2,1.6.3,2.1,0,.5-.2.9-.6,1-1.2.2-.6,0-1.2-.3-1.6-.3-.4-1-.8-1.8-1l-2-.5ZM126.5,215.8l.6.2c.4,0,.6.2.7.4.1.1.2.3,0,.6,0,.3-.2.4-.3.5-.2,0-.4,0-.8,0l-3.2-.8c-.2,0-.4-.2-.4-.3,0-.1,0-.3,0-.6,0-.2.2-.4.3-.4.2,0,.4,0,.7,0h.3c0,0,.5.2.5.2l2.3-8.6h-.5c-.5-.3-.8-.4-.9-.5-.1-.1-.1-.3,0-.6,0-.2.2-.4.3-.4.1,0,.3,0,.5,0l4,1.1c1,.3,1.7.5,2.1.7.5.2.8.5,1.1.8.3.4.6.9.7,1.4.1.5.1,1.1,0,1.6-.2.7-.6,1.3-1.2,1.7-.6.4-1.3.6-2.1.6.1.1.3.3.3.4,0,.2.2.3.3.6l1.1,3.4h.3c.4.2.6.3.7.4.1.1.1.3,0,.6,0,.2-.2.4-.3.5-.1,0-.3,0-.5,0l-1.1-.3c-.3,0-.6-.4-.7-.9,0,0,0,0,0-.1l-1.1-3.2c-.2-.7-.4-1.1-.6-1.3-.2-.2-.5-.4-.9-.5l-1.3-.3-.9,3.5Z"/>
          <path class="cls-3" d="M145.1,218.8c.5,0,.8.1.9.2.1.1.2.3.2.5,0,.3-.1.4-.3.5-.1,0-.5.1-1,0l-5.9-.5h-.5c-.2,0-.4-.1-.5-.3-.1-.1-.2-.3-.1-.5,0-.3.1-.4.3-.5.2,0,.5-.1,1,0l2.2.2.8-8.8-2.2-.2c-.5,0-.8-.1-.9-.2-.1-.1-.2-.3-.2-.6,0-.2,0-.4.2-.5.1-.1.3-.1.6-.1h.4s5.9.6,5.9.6h.5c.2,0,.4.1.5.3.1.1.2.3.1.5,0,.3-.1.4-.3.5-.2,0-.5.1-1,0l-2.2-.2-.8,8.8,2.2.2Z"/>
          <path class="cls-3" d="M151.6,212.5c0,.5,0,.8-.1.9,0,.1-.3.2-.6.2-.2,0-.4,0-.5-.1-.1-.1-.2-.3-.2-.5,0,0,0,0,0-.1,0-.1,0-.2,0-.3v-3.2c-.1-.2,0-.4,0-.5.1-.1.3-.2.5-.2l8.5-.6c.2,0,.4,0,.6.1.1,0,.2.3.2.5l.3,3.2c0,.1,0,.2,0,.3,0,.1,0,.2,0,.1,0,.2,0,.4-.1.5-.1.1-.3.2-.5.2-.3,0-.4,0-.5-.2-.1-.1-.2-.4-.2-.9l-.3-2.5-2.8.2.6,8.8h1.5c0-.1.4-.1.4-.1.3,0,.5,0,.6.1.1,0,.2.3.2.5,0,.2,0,.4-.1.5-.1.1-.3.2-.5.2l-5.5.4c-.2,0-.4,0-.5-.1-.1-.1-.2-.3-.2-.5,0-.2,0-.4.1-.5.1-.1.3-.2.6-.2h.3s1.5-.1,1.5-.1l-.6-8.8-2.8.2v2.5Z"/>
          <path class="cls-3" d="M171.3,215.7c.5-.1.8-.1,1,0,.2,0,.3.2.3.5,0,.3,0,.5,0,.6-.1.1-.4.2-.8.3l-4.5,1.1c-.4.1-.7.1-.9,0-.2,0-.3-.2-.3-.5,0-.3,0-.4,0-.6.1-.1.4-.3.9-.4l1.4-.3-.8-3.1-4.5-4.6h-.2c-.4.1-.7.1-.8,0s-.3-.2-.3-.5c0-.2,0-.4,0-.6,0-.1.3-.2.5-.3h.4c0-.1,2.2-.6,2.2-.6.4,0,.6-.1.8,0,.2,0,.3.2.3.5,0,.3,0,.4-.1.6-.1.1-.4.3-.8.4h-.3c0,0,3.3,3.6,3.3,3.6l1.4-4.7h-.4c-.3.2-.6.2-.7.1-.2,0-.3-.2-.3-.5,0-.3,0-.5,0-.6,0-.1.4-.2.8-.4h.2c0,0,1.5-.4,1.5-.4.5-.1.8-.1,1,0,.2,0,.3.2.3.5,0,.3,0,.4,0,.6-.1.1-.4.2-.7.3h-.2s-1.9,6.4-1.9,6.4l.7,3,1.4-.3Z"/>
          <path class="cls-3" d="M190.4,203.1l3.3-2.2-4.6-3.2,1.2,5.4ZM188,198.5l-1.2.8c-.3.2-.6.3-.8.3-.2,0-.4-.1-.5-.3-.1-.2-.2-.4-.1-.6,0-.2.4-.4.9-.8l2.3-1.5c.3-.2.5-.3.7-.3.2,0,.4,0,.6.2l8.4,5.9h.1c.3-.3.5-.4.7-.4.2,0,.3.1.5.3.1.2.2.4.1.6,0,.1-.2.3-.5.5l-2.2,1.4c-.4.3-.7.4-.9.4-.2,0-.3-.1-.5-.4-.1-.2-.2-.4,0-.6,0-.2.3-.4.6-.6l.8-.5-2.1-1.4-4.2,2.7.6,2.4.8-.5c.4-.2.6-.4.8-.3.2,0,.3,0,.5.3.1.2.2.4.1.6,0,.2-.3.4-.7.6l-2.2,1.4c-.3.2-.6.3-.8.3-.2,0-.3-.1-.5-.4-.1-.2-.2-.4-.1-.6,0-.2.3-.3.6-.6h.2c0-.1-2-9.3-2-9.3Z"/>
          <path class="cls-3" d="M200.3,197.7c0,0-.2.1-.3.1-.1,0-.2,0-.3-.2l-.7-.8c0,0-.1-.2-.1-.3,0-.1,0-.2.2-.3l6-5.5c.1-.1.2-.2.3-.2.1,0,.2,0,.3.1l.7.8c0,0,.1.2.1.3,0,.1,0,.2-.2.3l-6,5.5Z"/>
          <path class="cls-3" d="M205.5,182.7l1.5,1.3c0,0,.1.1.2.2,0,0,.1,0,.2.1.2.1.3.3.3.5,0,.2,0,.3-.2.5-.1.2-.3.3-.5.3-.2,0-.4,0-.6-.3l-.3-.2-2.1-1.8c-.2-.1-.3-.3-.3-.5,0-.2,0-.3.2-.5l3.4-4.4c.2-.3.5-.5.7-.5.2,0,.5,0,.7.2.1,0,.2.2.3.4,0,.1.2.3.2.5l3.1,9.7,2.8-3.6-1.7-1.5s0,0,0,0c-.6-.5-.7-.9-.4-1.3.1-.2.3-.3.5-.3.2,0,.4,0,.6.3,0,0,0,0,0,0,0,0,.1.1.2.2l2.3,1.9c.2.2.3.3.3.5,0,.2,0,.3-.2.5l-3.8,4.8c-.2.2-.4.4-.6.4-.2,0-.5,0-.7-.2-.1,0-.2-.2-.3-.4-.1-.2-.2-.4-.3-.7l-3-9.4-2.5,3.3Z"/>
          <path class="cls-3" d="M194.2,131.1l-9.7-1.6c-.9-3.2-2.1-6.3-3.8-9.2l5.6-7.9c.8-1.2.7-2.7-.3-3.7l-7.1-6.9c-1-1-2.6-1.1-3.8-.3l-7.9,5.4c-2.8-1.6-5.8-2.9-9-3.7l-1.6-9.2c-.2-1.4-1.4-2.4-2.8-2.4h-9.9c-1.4.1-2.7,1.2-2.9,2.6l-1.7,9c-3.5.9-6.7,2.3-9.7,4.2l-7.5-5.3c-1.2-.8-2.7-.7-3.7.3l-6.9,7.1c-1,1-1.1,2.6-.3,3.8l5.4,7.9c-1.6,2.8-2.8,5.9-3.6,9.1l-9.1,1.5c-1.4.2-2.4,1.4-2.4,2.8v9.9c.1,1.4,1.2,2.7,2.6,2.9l9.2,1.7c.9,3.2,2.1,6.2,3.7,8.9l-5.1,7.6c-.8,1.2-.7,2.8.3,3.8l6.9,7.1c1,1,2.6,1.1,3.7.3l7.5-5.3c3,1.7,6.2,3.1,9.6,3.9l1.7,8.9c.3,1.4,1.5,2.4,2.9,2.4h9.9c1.4,0,2.6-.9,2.8-2.3l1.6-9.3c3.1-.9,6.1-2.1,8.8-3.8l7.7,5.2c1.2.8,2.8.7,3.8-.3l7.1-6.9c1-1,1.1-2.6.3-3.7l-5.5-7.8c1.6-2.8,2.9-5.8,3.7-9l9.6-1.8c1.4-.3,2.4-1.5,2.4-2.9v-9.9c.1-1.4-.9-2.6-2.3-2.8h0Z"/>
          <path class="cls-4" d="M160.4,135.4h-22.6c-2.2,0-4,1.8-4,4v13.3c0,2.2,1.8,4,4,4h22.6c2.2,0,4-1.8,4-4v-13.3c0-2.2-1.8-4-4-4Z"/>
          <path class="cls-2" d="M139.8,133.8s-.3-14.1,8.9-14.1c9.9,0,9.6,13.8,9.6,13.8"/>
          <path class="cls-3" d="M151.8,144.7c0-1.5-1.2-2.7-2.7-2.7s-2.7,1.2-2.7,2.7.6,1.9,1.4,2.3v4.6h2.7v-4.7c.8-.5,1.3-1.3,1.3-2.3h0Z"/>
        </g>
      </g>
    </g>
  </g>
</svg>