<svg width="225" height="282" viewBox="0 0 225 282" fill="none" xmlns="http://www.w3.org/2000/svg">
<g clip-path="url(#clip0_3_99)">
<path d="M17.0601 38.51C17.0601 38.51 30.9101 71.51 27.8301 93.86C23.2601 127.04 21.6701 141.76 21.6701 141.76C21.6701 141.76 4.74006 216.8 111.96 267.36C111.96 267.36 213.03 225.85 202.25 138.56C202.25 138.56 195.58 99.18 196.09 86.93C196.6 74.68 201.22 47.01 205.84 39.03L111.97 12.96L17.0601 38.51Z" fill="#231F20" stroke="#231F20" stroke-width="25" stroke-miterlimit="10"/>
<path d="M44.5738 98.2778L45.9647 94.5336L40.3817 94.6994L44.5738 98.2778ZM39.8954 96.0084L39.3989 97.345C39.2606 97.7172 39.1143 97.9615 38.96 98.0778C38.8018 98.1858 38.6037 98.1955 38.3657 98.1071C38.1155 98.0141 37.9684 97.8866 37.9245 97.7244C37.8767 97.5539 37.9617 97.1757 38.1793 96.5898L39.1485 93.9808C39.2732 93.6451 39.4029 93.4363 39.5375 93.3544C39.6683 93.2641 39.8708 93.2143 40.1451 93.2051L50.4186 92.9483L50.4765 92.7927C50.5989 92.4632 50.7285 92.2544 50.8654 92.1663C51.0023 92.0783 51.1898 92.0784 51.4278 92.1669C51.678 92.2598 51.8304 92.3824 51.885 92.5346C51.9334 92.6846 51.8987 92.9183 51.7808 93.2356L50.8558 95.7256C50.6835 96.1894 50.5266 96.4714 50.3852 96.5717C50.2399 96.6636 50.0422 96.6631 49.792 96.5701C49.5601 96.4839 49.4244 96.3537 49.385 96.1793C49.3418 95.9966 49.3939 95.7068 49.5412 95.3102L49.8575 94.4588L47.3489 94.5374L45.6213 99.1878L47.5075 100.784L47.8374 99.8965C47.987 99.4937 48.1379 99.2372 48.29 99.127C48.4359 99.0145 48.6248 99.0014 48.8568 99.0875C49.107 99.1805 49.256 99.3122 49.3037 99.4828C49.3477 99.645 49.2869 99.9488 49.1214 100.394L48.227 102.802C48.0818 103.192 47.9397 103.435 47.8006 103.529C47.6553 103.621 47.4576 103.62 47.2074 103.527C46.9693 103.439 46.8284 103.314 46.7844 103.152C46.7405 102.989 46.7866 102.725 46.9226 102.359L46.9872 102.185L39.8954 96.0084Z" fill="#F2F2F3"/>
<path d="M56.8447 79.0336C56.4811 78.7077 56.2785 78.4605 56.2371 78.2922C56.1956 78.1239 56.2661 77.9379 56.4486 77.7343C56.605 77.5598 56.7684 77.4702 56.9388 77.4655C57.1042 77.4564 57.2815 77.5366 57.4706 77.7061L57.7833 77.9864L60.1758 80.1308C60.3455 80.2829 60.4375 80.4484 60.4519 80.6275C60.4615 80.8021 60.3924 80.9719 60.2446 81.1367L54.4632 87.587L54.1568 87.9288C54.0004 88.1034 53.8394 88.1952 53.674 88.2042C53.5085 88.2133 53.3385 88.1396 53.1639 87.9831C52.97 87.8093 52.8848 87.6411 52.9081 87.4784C52.931 87.3066 53.1076 87.0365 53.4378 86.668L54.2526 85.759L47.7004 79.8863L46.8857 80.7953C46.5641 81.1541 46.317 81.3566 46.1443 81.4029C45.9712 81.4401 45.7852 81.3695 45.5864 81.1914C45.4071 81.0306 45.3153 80.8696 45.3111 80.7085C45.3064 80.5382 45.3887 80.3585 45.5582 80.1694L45.8385 79.8567L48.7781 76.577L49.0844 76.2352C49.2409 76.0607 49.404 75.9665 49.5738 75.9526C49.7437 75.9387 49.9158 76.0099 50.0904 76.1664C50.2891 76.3445 50.3773 76.5241 50.355 76.7052C50.3321 76.877 50.1555 77.1471 49.8253 77.5156L48.7303 78.7373L55.2824 84.61L58.75 80.7413L56.8447 79.0336Z" fill="#F2F2F3"/>
<path d="M65.1498 70.2579L68.5598 68.1781L64.0722 64.8526L65.1498 70.2579ZM62.88 65.5798L61.6627 66.3222C61.3237 66.529 61.0576 66.6303 60.8644 66.6262C60.6733 66.613 60.5117 66.4981 60.3795 66.2813C60.2405 66.0534 60.2039 65.8622 60.2698 65.7076C60.3379 65.5441 60.6387 65.2996 61.1722 64.9742L63.5484 63.525C63.8541 63.3385 64.0851 63.2548 64.2416 63.2737C64.4002 63.2837 64.5901 63.37 64.8112 63.5325L73.0392 69.6897L73.1809 69.6033C73.4811 69.4202 73.7122 69.3365 73.8742 69.3521C74.0362 69.3676 74.1833 69.4838 74.3155 69.7006C74.4545 69.9285 74.4983 70.1191 74.447 70.2724C74.3922 70.4202 74.2203 70.5822 73.9313 70.7585L71.6636 72.1416C71.2411 72.3993 70.9434 72.5237 70.7702 72.5149C70.5993 72.4972 70.4443 72.3744 70.3053 72.1465C70.1765 71.9353 70.1506 71.749 70.2276 71.5877C70.3067 71.4174 70.5269 71.222 70.8882 71.0017L71.6636 70.5288L69.6446 69.0378L65.4093 71.621L65.9025 74.0426L66.7113 73.5493C67.0781 73.3256 67.3553 73.2175 67.543 73.2251C67.7272 73.2271 67.8837 73.3337 68.0126 73.5449C68.1516 73.7728 68.187 73.9685 68.119 74.132C68.0531 74.2865 67.8173 74.4876 67.4116 74.735L65.2189 76.0724C64.8632 76.2894 64.6015 76.3918 64.4339 76.3796C64.263 76.3618 64.108 76.239 63.969 76.0111C63.8368 75.7944 63.8036 75.6087 63.8695 75.4541C63.9354 75.2996 64.1351 75.1206 64.4685 74.9172L64.6269 74.8206L62.88 65.5798Z" fill="#F2F2F3"/>
<path d="M79.3704 56.8751L80.5719 60.633L82.4973 60.0174C83.3655 59.7399 83.9671 59.3767 84.302 58.9278C84.6412 58.4708 84.7116 57.9322 84.5134 57.3121C84.3131 56.6858 83.9485 56.2829 83.4195 56.1034C82.8905 55.924 82.2012 55.9701 81.3517 56.2417L79.3704 56.8751ZM82.0767 65.3397L82.7092 65.1375C83.0689 65.0225 83.339 64.9908 83.5195 65.0425C83.7001 65.0941 83.827 65.2347 83.9004 65.4641C83.9797 65.7121 83.9701 65.9066 83.8716 66.0475C83.7731 66.1883 83.544 66.3162 83.1843 66.4312L80.0589 67.4305C79.8481 67.4979 79.669 67.4936 79.5217 67.4177C79.3724 67.3355 79.2631 67.186 79.1937 66.9689C79.1203 66.7395 79.1298 66.5553 79.2221 66.4164C79.3144 66.2776 79.5032 66.1625 79.7884 66.0713L80.0954 65.9732L80.6349 65.8007L77.9286 57.3361L77.3891 57.5086C76.924 57.6573 76.6094 57.71 76.4452 57.6668C76.281 57.6236 76.1603 57.4811 76.083 57.2393C76.0155 57.0284 76.0177 56.8534 76.0894 56.7143C76.1673 56.5732 76.3148 56.4679 76.5318 56.3986L80.4572 55.1436C81.406 54.8402 82.1278 54.6607 82.6226 54.605C83.1217 54.5412 83.5671 54.5662 83.959 54.6801C84.4637 54.8264 84.9072 55.0912 85.2895 55.4748C85.6781 55.8564 85.9567 56.3107 86.1252 56.8378C86.3532 57.5509 86.3293 58.2352 86.0536 58.8907C85.7821 59.538 85.2874 60.0857 84.5695 60.534C84.7604 60.5755 84.9378 60.6384 85.1014 60.7227C85.2713 60.8051 85.4429 60.9143 85.6163 61.0503L88.4019 63.3175L88.7089 63.2193C89.0561 63.1083 89.3107 63.0816 89.4727 63.1392C89.6326 63.1905 89.7503 63.3341 89.8256 63.5697C89.895 63.7867 89.8927 63.972 89.8188 64.1255C89.7491 64.2709 89.6088 64.3772 89.3979 64.4446L88.3468 64.7807C88.043 64.8778 87.6739 64.7498 87.2397 64.3965C87.1906 64.3711 87.1528 64.3491 87.1263 64.3302L84.4749 62.1944C83.9326 61.7595 83.5147 61.5 83.2213 61.4161C82.9341 61.3302 82.5952 61.3497 82.2045 61.4746L80.9674 61.8702L82.0767 65.3397Z" fill="#F2F2F3"/>
<path d="M100.788 57.2286L102.267 50.9362C102.334 50.6939 102.441 50.5132 102.586 50.3939C102.737 50.274 102.962 50.1991 103.26 50.1692L104.854 50.0093C105.061 49.9885 105.222 50.0312 105.337 50.1374C105.459 50.2365 105.53 50.3929 105.551 50.6067C105.576 50.8529 105.525 51.0313 105.399 51.1422C105.279 51.2458 105.04 51.3156 104.684 51.3513L104.528 51.3669L105.688 60.1819L105.911 60.1595C106.332 60.1173 106.619 60.1376 106.771 60.2204C106.923 60.2968 107.012 60.4646 107.038 60.7237C107.06 60.9504 107.02 61.1312 106.915 61.266C106.811 61.3943 106.648 61.4695 106.428 61.4916L103.697 61.7655C103.322 61.8032 103.06 61.7771 102.914 61.6871C102.768 61.5971 102.681 61.4225 102.655 61.1634C102.63 60.9108 102.693 60.7278 102.846 60.6143C102.998 60.5009 103.304 60.4211 103.764 60.375L104.182 60.3331L103.139 51.9971L101.776 57.7773C101.706 58.0591 101.605 58.259 101.473 58.3769C101.341 58.4949 101.132 58.5682 100.847 58.5968C100.575 58.6241 100.363 58.593 100.21 58.5037C100.056 58.4079 99.9206 58.2317 99.8033 57.9752L97.2896 52.584L97.9532 60.958L98.6042 60.8927C98.9864 60.8544 99.2604 60.8792 99.4263 60.9673C99.5922 61.0553 99.6871 61.2192 99.7112 61.4589C99.7372 61.718 99.6874 61.9062 99.5617 62.0235C99.4361 62.1408 99.1822 62.2186 98.8 62.2569L96.0793 62.5299C95.8525 62.5527 95.675 62.5116 95.5467 62.4067C95.4249 62.3012 95.3523 62.1318 95.3289 61.8986C95.3029 61.6395 95.3566 61.4574 95.49 61.3524C95.6228 61.241 95.8997 61.1641 96.3207 61.1218L96.5345 61.1004L95.929 52.2298L95.7736 52.2454C95.4173 52.2812 95.1666 52.2605 95.0214 52.1835C94.8757 52.0999 94.7904 51.9351 94.7657 51.6889C94.7443 51.4752 94.7831 51.3077 94.8822 51.1865C94.9806 51.0589 95.1334 50.9847 95.3407 50.9639L96.9343 50.804C97.2323 50.7741 97.4642 50.8031 97.6301 50.8912C97.8024 50.9786 97.9424 51.1346 98.05 51.3594L100.788 57.2286Z" fill="#F2F2F3"/>
<path d="M116.19 58.7639L118.427 53.1143C118.506 52.9126 118.583 52.7893 118.66 52.7444C118.743 52.6937 118.882 52.6778 119.076 52.6967L119.514 52.7393C119.702 52.7576 119.832 52.7996 119.904 52.8655C119.982 52.9321 120.042 53.0556 120.084 53.2363L121.409 59.272L123.114 51.6376L121.588 51.489C121.29 51.46 121.075 51.3867 120.942 51.2692C120.816 51.1523 120.764 50.9804 120.786 50.7536C120.81 50.5074 120.892 50.342 121.031 50.2574C121.177 50.1734 121.431 50.1491 121.794 50.1845L124.933 50.4901C125.076 50.5039 125.196 50.581 125.293 50.7214C125.391 50.8552 125.431 51.0161 125.413 51.204C125.392 51.4243 125.314 51.5835 125.18 51.6817C125.047 51.7734 124.857 51.8073 124.611 51.7833L124.494 51.7719L122.168 61.3573C122.129 61.5562 122.077 61.6853 122.012 61.7444C121.954 61.8042 121.864 61.8281 121.741 61.8161L121.05 61.7489C120.901 61.7344 120.791 61.6942 120.719 61.6283C120.647 61.5624 120.589 61.4456 120.547 61.278L119.089 54.3855L116.57 60.9104C116.509 61.068 116.44 61.1692 116.363 61.2141C116.287 61.259 116.168 61.2736 116.006 61.2578L115.277 61.1869C115.147 61.1743 115.053 61.1356 114.994 61.071C114.942 61.0005 114.914 60.8539 114.909 60.631L114.376 50.787L114.259 50.7756C114.007 50.751 113.821 50.6773 113.702 50.5546C113.59 50.4324 113.544 50.2644 113.565 50.0506C113.584 49.8562 113.651 49.7025 113.767 49.5895C113.882 49.4765 114.015 49.4272 114.164 49.4417L117.313 49.7483C117.669 49.783 117.907 49.8552 118.028 49.965C118.154 50.0755 118.206 50.2538 118.182 50.5C118.159 50.7268 118.072 50.8851 117.919 50.9749C117.773 51.0654 117.554 51.0964 117.263 51.068L115.892 50.9346L116.19 58.7639Z" fill="#F2F2F3"/>
<path d="M142.161 60.443C141.623 62.1438 140.709 63.3913 139.42 64.1854C138.133 64.9733 136.754 65.1346 135.283 64.6693C133.824 64.208 132.793 63.2809 132.189 61.888C131.591 60.4971 131.56 58.9544 132.095 57.2598C132.637 55.5465 133.548 54.2981 134.827 53.5144C136.107 52.7246 137.487 52.5633 138.964 53.0305C140.435 53.4957 141.47 54.4238 142.068 55.8147C142.666 57.2056 142.697 58.7484 142.161 60.443ZM135.701 63.3472C136.744 63.677 137.689 63.5388 138.536 62.9327C139.392 62.3224 140.041 61.3158 140.485 59.9129C140.928 58.5101 140.975 57.3162 140.624 56.3312C140.281 55.342 139.589 54.6825 138.546 54.3527C137.497 54.0209 136.549 54.158 135.701 54.7641C134.862 55.366 134.219 56.3745 133.771 57.7898C133.328 59.1927 133.277 60.3887 133.62 61.3779C133.971 62.3629 134.665 63.0193 135.701 63.3472Z" fill="#F2F2F3"/>
<path d="M154.452 60.8164L152.41 64.1921L154.139 65.2384C154.919 65.7101 155.588 65.9247 156.147 65.882C156.714 65.8372 157.166 65.5362 157.503 64.9792C157.844 64.4166 157.908 63.8769 157.695 63.3603C157.482 62.8437 156.995 62.3546 156.231 61.893L154.452 60.8164ZM149.852 68.4202L150.42 68.7639C150.743 68.9593 150.945 69.142 151.025 69.312C151.104 69.482 151.082 69.6701 150.957 69.8762C150.822 70.099 150.67 70.2196 150.499 70.238C150.328 70.2563 150.081 70.1678 149.758 69.9724L146.95 68.274C146.761 68.1595 146.646 68.0217 146.607 67.8608C146.57 67.6943 146.611 67.5136 146.729 67.3186C146.854 67.1125 146.999 66.9986 147.164 66.9768C147.33 66.9551 147.54 67.0217 147.797 67.1767L148.072 67.3435L148.557 67.6367L153.157 60.0329L152.672 59.7398C152.254 59.487 152.008 59.2846 151.932 59.1325C151.857 58.9804 151.885 58.7957 152.016 58.5784C152.131 58.389 152.264 58.2756 152.416 58.2382C152.574 58.2042 152.75 58.2461 152.945 58.3641L156.471 60.497C157.323 61.0126 157.933 61.4385 158.3 61.7748C158.676 62.1089 158.95 62.461 159.122 62.8312C159.344 63.3077 159.436 63.816 159.398 64.3563C159.366 64.8999 159.207 65.4085 158.92 65.882C158.533 66.5226 158.001 66.9544 157.326 67.1776C156.66 67.3985 155.922 67.3858 155.112 67.1394C155.207 67.3106 155.276 67.4856 155.32 67.6644C155.369 67.8466 155.4 68.0477 155.411 68.2677L155.534 71.8572L155.81 72.024C156.122 72.2127 156.309 72.387 156.372 72.5469C156.439 72.7012 156.408 72.8842 156.28 73.0959C156.162 73.2909 156.021 73.4109 155.857 73.4561C155.701 73.4991 155.529 73.4633 155.339 73.3487L154.395 72.7776C154.122 72.6125 153.976 72.2502 153.957 71.6907C153.944 71.6371 153.936 71.5941 153.932 71.5617L153.799 68.1597C153.77 67.4651 153.691 66.9797 153.561 66.7034C153.437 66.4306 153.2 66.188 152.849 65.9757L151.737 65.3034L149.852 68.4202Z" fill="#F2F2F3"/>
<path d="M163.816 78.062L164.255 78.5471C164.513 78.8319 164.656 79.0671 164.683 79.2529C164.711 79.4386 164.635 79.6123 164.457 79.774C164.264 79.9487 164.083 80.0204 163.914 79.9889C163.745 79.9574 163.531 79.7993 163.274 79.5146L161.032 77.0384C160.884 76.8743 160.814 76.7095 160.822 76.544C160.839 76.3789 160.933 76.2199 161.101 76.067C161.28 75.9054 161.449 75.8354 161.61 75.8572C161.774 75.8839 161.959 76.0106 162.165 76.2375L162.374 76.4692L162.794 76.9325L169.317 71.0279L168.898 70.5645C168.566 70.1977 168.39 69.9308 168.371 69.7639C168.356 69.5926 168.448 69.4174 168.646 69.2383C168.815 69.0854 168.98 69.0106 169.141 69.0141C169.311 69.0179 169.471 69.1019 169.619 69.266L171.86 71.7422C172.118 72.0269 172.254 72.255 172.269 72.4262C172.283 72.5975 172.194 72.7705 172.001 72.9453C171.808 73.12 171.614 73.1772 171.419 73.1168C171.223 73.0563 170.962 72.8451 170.634 72.4831L170.339 72.1573L167.393 74.8246L173.072 75.1765L172.994 75.0896L172.849 74.9303C172.635 74.6938 172.521 74.4853 172.507 74.3048C172.493 74.1244 172.578 73.9511 172.761 73.7851C172.95 73.6147 173.119 73.5356 173.271 73.5478C173.427 73.5555 173.588 73.6511 173.754 73.8346L175.688 75.9704C175.836 76.1345 175.904 76.3015 175.891 76.4714C175.883 76.6369 175.794 76.7961 175.625 76.9491C175.437 77.1194 175.249 77.1839 175.062 77.1423C174.885 77.1012 174.665 76.9358 174.403 76.6462L174.311 76.5448L169.067 76.1939C169.36 76.6925 169.457 77.3426 169.357 78.1442C169.257 78.9459 168.806 80.4606 168.004 82.6884L168.122 82.8188C168.393 83.118 168.538 83.3511 168.557 83.518C168.576 83.6849 168.492 83.8535 168.304 84.0239C168.135 84.1768 167.965 84.2514 167.795 84.2475C167.634 84.2441 167.479 84.1603 167.33 83.9962L166.701 83.3011C166.561 83.1467 166.476 83.018 166.444 82.915C166.416 82.8168 166.43 82.6769 166.485 82.4953C166.514 82.3907 166.761 81.6794 167.228 80.3613L167.501 79.6005C167.79 78.7853 167.937 78.0989 167.942 77.5414C167.952 76.9796 167.825 76.5054 167.563 76.1191L166.09 76.0042L163.816 78.062Z" fill="#F2F2F3"/>
<path d="M181.896 87.4579L179.962 88.0852C179.881 88.1091 179.802 88.1318 179.727 88.1534C179.66 88.1787 179.59 88.2052 179.517 88.2328C179.297 88.3157 179.114 88.3189 178.967 88.2424C178.828 88.1696 178.714 88.0145 178.624 87.777C178.539 87.5517 178.534 87.3654 178.611 87.2182C178.696 87.0747 178.875 86.9511 179.149 86.8474L179.505 86.7127L182.071 85.8778C182.293 85.801 182.476 85.7978 182.621 85.8682C182.768 85.9448 182.887 86.1018 182.977 86.3393L184.953 91.5639C185.089 91.9232 185.121 92.2207 185.051 92.4563C184.986 92.6897 184.822 92.8559 184.56 92.9549C184.426 93.0056 184.272 93.0293 184.097 93.026C183.93 93.0264 183.74 93.0041 183.528 92.959L173.653 90.5344L175.253 94.7635L177.431 94.0646C177.437 94.0623 177.45 94.0577 177.468 94.0508C178.18 93.8163 178.617 93.9153 178.781 94.3476C178.866 94.5729 178.864 94.7615 178.776 94.9134C178.693 95.063 178.515 95.1896 178.241 95.2933C178.241 95.2933 178.2 95.3052 178.119 95.329C178.043 95.3506 177.969 95.3752 177.896 95.4028L175.08 96.3218C174.852 96.401 174.669 96.4042 174.53 96.3314C174.397 96.2564 174.286 96.1001 174.196 95.8626L172.026 90.1265C171.927 89.8646 171.923 89.6227 172.013 89.4007C172.103 89.1787 172.27 89.0216 172.513 88.9295C172.659 88.8742 172.835 88.8497 173.039 88.856C173.243 88.8623 173.487 88.8989 173.77 88.9659L183.361 91.3307L181.896 87.4579Z" fill="#F2F2F3"/>
<path d="M17 39.14C17 39.14 30.85 72.14 27.77 94.49C23.2 127.67 21.61 142.39 21.61 142.39C21.61 142.39 4.68 217.43 111.9 267.99C111.9 267.99 212.97 226.48 202.19 139.19C202.19 139.19 195.52 99.81 196.03 87.56C196.54 75.31 201.16 47.64 205.78 39.66L111.91 13.6L17 39.14Z" stroke="#0557A3" stroke-width="5" stroke-miterlimit="10"/>
<path d="M43.5684 175.673C43.3141 175.823 43.1076 175.883 42.9488 175.855C42.7848 175.832 42.6269 175.718 42.4751 175.514C42.3116 175.295 42.2542 175.082 42.3029 174.875C42.3503 174.677 42.5117 174.464 42.787 174.234L44.5272 172.778L44.6681 172.672C44.9186 172.486 45.131 172.4 45.3055 172.416C45.4838 172.438 45.6567 172.56 45.824 172.785C46.0576 173.098 46.0006 173.49 45.653 173.96C45.4753 174.19 45.3505 174.377 45.2785 174.52C45.0494 174.975 44.9817 175.472 45.0754 176.011C45.1729 176.556 45.426 177.102 45.8347 177.65C46.3369 178.323 46.9028 178.75 47.5326 178.93C48.1662 179.115 48.7309 179.023 49.2267 178.653C49.6389 178.346 49.873 177.968 49.9289 177.52C49.9886 177.078 49.8701 176.581 49.5734 176.031L48.8658 174.756C48.2113 173.563 47.908 172.562 47.9556 171.755C48.0033 170.948 48.4055 170.262 49.1622 169.698C49.9606 169.102 50.8765 168.931 51.9097 169.184C52.9467 169.441 53.8331 170.064 54.5688 171.05C54.7829 171.337 54.9696 171.669 55.1287 172.045C55.2931 172.418 55.4443 172.866 55.5823 173.388C55.7414 173.286 55.8769 173.25 55.9888 173.28C56.1007 173.31 56.2228 173.414 56.3552 173.592C56.5264 173.821 56.6112 174.006 56.6096 174.145C56.6079 174.284 56.487 174.46 56.2469 174.671L54.6926 176.001L54.6143 176.06C54.4317 176.196 54.2492 176.251 54.067 176.224C53.89 176.194 53.7314 176.085 53.5913 175.897C53.385 175.62 53.4185 175.262 53.6918 174.823C53.8565 174.586 53.9664 174.391 54.0214 174.236C54.1539 173.869 54.1699 173.471 54.0695 173.043C53.969 172.614 53.7651 172.194 53.4576 171.781C52.9865 171.15 52.4466 170.753 51.8376 170.59C51.2326 170.432 50.6769 170.542 50.1707 170.919C49.7741 171.215 49.57 171.595 49.5584 172.058C49.5506 172.527 49.7308 173.095 50.0988 173.763L50.8765 175.132C51.4338 176.13 51.6645 177.021 51.5687 177.808C51.4781 178.59 51.0623 179.258 50.3213 179.81C49.4446 180.464 48.4968 180.664 47.4779 180.408C46.4643 180.149 45.5507 179.474 44.7371 178.384C44.4569 178.008 44.2229 177.602 44.0352 177.165C43.8476 176.728 43.692 176.231 43.5684 175.673Z" fill="#F2F2F3"/>
<path d="M51.308 185.551L50.9762 185.234C50.8067 185.072 50.7178 184.906 50.7093 184.735C50.7055 184.57 50.7846 184.402 50.9465 184.233C51.1265 184.044 51.2973 183.965 51.4591 183.993C51.6301 184.021 51.8969 184.209 52.2593 184.555L52.7112 184.987L58.7901 178.626L58.3383 178.194C57.9852 177.857 57.7883 177.601 57.7476 177.427C57.716 177.253 57.7924 177.069 57.9768 176.876C58.1432 176.702 58.307 176.615 58.4682 176.616C58.6386 176.617 58.8132 176.703 58.9921 176.874L59.3098 177.177L65.1416 182.75C65.3016 182.903 65.3744 183.067 65.3599 183.242C65.3547 183.418 65.2644 183.597 65.089 183.78L63.4967 185.447C63.2628 185.691 63.0656 185.827 62.905 185.854C62.7444 185.88 62.5724 185.806 62.3888 185.631C62.1958 185.446 62.1112 185.266 62.1348 185.091C62.1632 184.92 62.3505 184.653 62.6969 184.291L63.6617 183.281L59.9056 179.692L57.6319 182.071L59.4817 183.839L59.8393 183.464C60.0822 183.21 60.2838 183.065 60.4441 183.029C60.6092 182.998 60.7765 183.063 60.9459 183.225C61.1106 183.383 61.1719 183.545 61.1296 183.711C61.0966 183.878 60.9136 184.135 60.5808 184.484L59.3258 185.797C58.9885 186.15 58.7396 186.344 58.5793 186.38C58.4189 186.416 58.254 186.353 58.0846 186.191C57.9151 186.029 57.8514 185.86 57.8935 185.684C57.9403 185.513 58.1188 185.265 58.4292 184.94L58.6653 184.693L56.8155 182.925L53.8267 186.053L57.5827 189.642L58.6757 188.499C59.022 188.136 59.28 187.937 59.4496 187.901C59.6238 187.869 59.8074 187.946 60.0004 188.13C60.1793 188.301 60.2568 188.47 60.2329 188.636C60.2183 188.802 60.0828 189.019 59.8264 189.287L58.1262 191.067C57.9642 191.236 57.7982 191.325 57.628 191.334C57.4578 191.342 57.2951 191.272 57.1397 191.124L51.308 185.551Z" fill="#F2F2F3"/>
<path d="M74.1263 189.44C74.2788 189.331 74.4237 189.28 74.5609 189.286C74.698 189.292 74.8583 189.358 75.0415 189.482C75.2409 189.617 75.3482 189.76 75.3633 189.912C75.3784 190.064 75.2837 190.291 75.0792 190.593C74.7213 191.121 74.3926 191.618 74.093 192.083C73.797 192.543 73.6691 192.744 73.7092 192.684C73.5376 192.938 73.3776 193.081 73.2293 193.114C73.0846 193.142 72.9018 193.081 72.6808 192.931C72.3251 192.69 72.265 192.28 72.5005 191.7C72.565 191.524 72.6139 191.388 72.6471 191.292C72.8186 190.819 72.7961 190.324 72.5797 189.807C72.3669 189.286 71.9991 188.848 71.4763 188.494C70.5223 187.847 69.5196 187.679 68.4682 187.989C67.4204 188.293 66.4984 189.033 65.7023 190.208C64.9062 191.383 64.5618 192.518 64.6692 193.613C64.7856 194.707 65.3235 195.578 66.2828 196.228C66.5954 196.44 66.9426 196.612 67.3245 196.745C67.7099 196.873 68.1192 196.953 68.5523 196.987C68.749 197.011 69.0342 197.019 69.4081 197.013C69.7855 197.001 70.0282 197.032 70.136 197.105C70.303 197.218 70.4048 197.37 70.4413 197.56C70.4869 197.748 70.4549 197.923 70.3453 198.084C70.2357 198.246 70.0652 198.358 69.8336 198.422C69.611 198.483 69.2542 198.505 68.7632 198.487C68.1096 198.477 67.5063 198.386 66.9532 198.216C66.4001 198.046 65.8702 197.789 65.3636 197.446C64.0323 196.544 63.2506 195.33 63.0182 193.804C62.7896 192.273 63.1719 190.774 64.1652 189.308C65.1475 187.858 66.403 186.951 67.9316 186.587C69.4601 186.223 70.89 186.492 72.2213 187.394C72.577 187.635 72.9089 187.923 73.217 188.257C73.5305 188.596 73.8336 188.99 74.1263 189.44Z" fill="#F2F2F3"/>
<path d="M77.8465 192.674L77.7044 192.61C77.3489 192.448 77.1246 192.288 77.0316 192.131C76.9445 191.977 76.9549 191.782 77.0629 191.545C77.1628 191.325 77.2919 191.191 77.4504 191.142C77.6116 191.086 77.8047 191.11 78.0298 191.213L78.4297 191.395L80.2514 192.225C80.7313 192.444 81.0148 192.63 81.1019 192.784C81.1917 192.933 81.1813 193.128 81.0706 193.371C80.9626 193.608 80.81 193.739 80.6128 193.763C80.4156 193.788 80.1007 193.702 79.6682 193.505L79.2861 193.33L77.0669 198.2C76.7672 198.858 76.5781 199.351 76.4997 199.68C76.4299 200.006 76.4093 200.326 76.4381 200.64C76.4808 201.095 76.6399 201.508 76.9154 201.877C77.1968 202.248 77.5626 202.536 78.0129 202.742C78.86 203.128 79.5923 203.154 80.2095 202.82C80.8327 202.488 81.4035 201.754 81.9218 200.617L84.218 195.578L83.7471 195.363C83.285 195.153 82.9942 194.967 82.8748 194.805C82.7639 194.64 82.7638 194.436 82.8745 194.193C82.9852 193.95 83.123 193.813 83.2879 193.781C83.4555 193.742 83.7348 193.812 84.1258 193.991L86.0897 194.886L86.5163 195.08C86.7295 195.177 86.8652 195.303 86.9232 195.459C86.9872 195.617 86.9706 195.802 86.8734 196.015C86.7654 196.252 86.6246 196.389 86.4511 196.424C86.2776 196.459 86.019 196.399 85.6754 196.242L85.551 196.186L83.1657 201.42C82.5096 202.859 81.6941 203.793 80.7189 204.222C79.7524 204.647 78.6235 204.565 77.332 203.977C76.1649 203.445 75.3952 202.661 75.0228 201.626C74.659 200.587 74.7552 199.458 75.3114 198.237L77.8465 192.674Z" fill="#F2F2F3"/>
<path d="M91.1837 197.721L90.1746 201.535L92.1288 202.052C93.0099 202.285 93.7124 202.303 94.2363 202.105C94.768 201.902 95.1172 201.486 95.2837 200.857C95.4519 200.221 95.3613 199.685 95.012 199.249C94.6626 198.813 94.0568 198.481 93.1946 198.253L91.1837 197.721ZM88.9106 206.312L89.5526 206.482C89.9176 206.579 90.1624 206.697 90.2868 206.838C90.4112 206.979 90.4426 207.165 90.381 207.398C90.3144 207.65 90.2016 207.809 90.0428 207.875C89.884 207.94 89.6221 207.925 89.257 207.828L86.085 206.989C85.871 206.932 85.7223 206.832 85.639 206.689C85.5573 206.54 85.5457 206.355 85.6039 206.134C85.6656 205.901 85.7726 205.751 85.9251 205.684C86.0777 205.617 86.2987 205.621 86.5882 205.698L86.8998 205.78L87.4473 205.925L89.7204 197.334L89.1728 197.189C88.7008 197.064 88.4072 196.939 88.292 196.815C88.1769 196.69 88.1518 196.505 88.2167 196.259C88.2734 196.045 88.3693 195.899 88.5046 195.82C88.6462 195.743 88.8272 195.734 89.0474 195.792L93.0314 196.846C93.9944 197.101 94.6994 197.338 95.1465 197.557C95.6015 197.772 95.9635 198.033 96.2325 198.34C96.5792 198.735 96.8106 199.196 96.9265 199.725C97.0488 200.256 97.0391 200.789 96.8975 201.324C96.706 202.048 96.3178 202.612 95.7327 203.016C95.1556 203.415 94.4438 203.611 93.5975 203.603C93.7362 203.74 93.8518 203.889 93.9444 204.048C94.0432 204.209 94.1292 204.393 94.2021 204.601L95.3304 208.011L95.6419 208.093C95.9944 208.186 96.2233 208.301 96.3289 208.437C96.4361 208.566 96.458 208.75 96.3947 208.989C96.3365 209.21 96.2348 209.365 96.0899 209.454C95.9529 209.539 95.7775 209.553 95.5635 209.497L94.4967 209.215C94.1883 209.133 93.9461 208.826 93.7702 208.295C93.7424 208.247 93.7224 208.208 93.7102 208.178L92.6245 204.951C92.4013 204.293 92.1887 203.849 91.9865 203.621C91.7907 203.394 91.4945 203.228 91.098 203.123L89.8423 202.791L88.9106 206.312Z" fill="#F2F2F3"/>
<path d="M107.457 209.341C107.957 209.387 108.27 209.465 108.397 209.575C108.531 209.678 108.587 209.86 108.563 210.119C108.539 210.385 108.45 210.563 108.298 210.654C108.153 210.739 107.831 210.758 107.332 210.713L101.429 210.172L100.972 210.13C100.738 210.109 100.565 210.034 100.453 209.906C100.34 209.778 100.295 209.598 100.316 209.364C100.34 209.105 100.427 208.937 100.578 208.859C100.73 208.775 101.055 208.755 101.554 208.801L103.752 209.002L104.554 200.24L102.356 200.039C101.87 199.994 101.557 199.917 101.417 199.806C101.277 199.688 101.219 199.497 101.244 199.231C101.266 198.991 101.343 198.822 101.477 198.723C101.611 198.617 101.801 198.576 102.047 198.598L102.485 198.638L108.388 199.179L108.845 199.221C109.078 199.242 109.248 199.316 109.354 199.444C109.466 199.572 109.512 199.752 109.491 199.986C109.466 200.252 109.375 200.43 109.216 200.52C109.065 200.604 108.746 200.624 108.259 200.579L106.062 200.378L105.26 209.14L107.457 209.341Z" fill="#F2F2F3"/>
<path d="M114.002 203.042C114.024 203.53 113.989 203.846 113.895 203.99C113.807 204.127 113.617 204.206 113.324 204.227C113.097 204.244 112.921 204.198 112.795 204.089C112.676 203.974 112.608 203.799 112.591 203.566C112.591 203.566 112.591 203.517 112.59 203.419C112.589 203.315 112.584 203.21 112.577 203.107L112.44 199.885C112.435 199.644 112.488 199.467 112.597 199.355C112.706 199.236 112.884 199.168 113.13 199.15L121.594 198.532C121.841 198.514 122.027 198.556 122.152 198.658C122.276 198.754 122.351 198.921 122.375 199.161L122.716 202.367C122.725 202.484 122.736 202.594 122.75 202.698C122.764 202.801 122.771 202.85 122.77 202.843C122.787 203.077 122.738 203.257 122.624 203.383C122.508 203.502 122.327 203.571 122.08 203.589C121.821 203.608 121.637 203.556 121.531 203.433C121.423 203.304 121.345 202.996 121.297 202.51L121.015 199.985L118.22 200.189L118.859 208.964L120.359 208.855L120.739 208.827C121.012 208.807 121.214 208.848 121.345 208.949C121.476 209.044 121.55 209.208 121.567 209.442C121.584 209.669 121.538 209.849 121.43 209.981C121.322 210.106 121.157 210.177 120.937 210.193L115.473 210.592C115.252 210.608 115.079 210.562 114.953 210.453C114.827 210.338 114.756 210.167 114.74 209.94C114.722 209.7 114.771 209.523 114.887 209.41C115.009 209.297 115.223 209.229 115.528 209.207L115.85 209.183L117.35 209.074L116.71 200.299L113.915 200.502L114.002 203.042Z" fill="#F2F2F3"/>
<path d="M133.663 206.211C134.15 206.091 134.472 206.063 134.628 206.125C134.788 206.18 134.9 206.333 134.962 206.586C135.025 206.846 135 207.043 134.885 207.178C134.776 207.305 134.516 207.419 134.105 207.52L129.599 208.623C129.188 208.724 128.904 208.743 128.748 208.681C128.591 208.612 128.48 208.448 128.417 208.189C128.355 207.936 128.386 207.748 128.51 207.623C128.638 207.491 128.936 207.368 129.404 207.254L130.78 206.917L130.009 203.768L125.528 199.144L125.367 199.183C124.988 199.276 124.716 199.289 124.552 199.222C124.388 199.155 124.275 198.995 124.213 198.742C124.156 198.508 124.171 198.323 124.259 198.188C124.351 198.045 124.52 197.943 124.767 197.883L125.194 197.778L127.366 197.246C127.739 197.155 128.001 197.144 128.152 197.214C128.31 197.283 128.42 197.444 128.482 197.697C128.544 197.95 128.508 198.146 128.375 198.286C128.248 198.424 127.979 198.544 127.568 198.645L127.255 198.721L130.558 202.276L131.931 197.576L131.542 197.671C131.2 197.755 130.951 197.762 130.793 197.694C130.636 197.625 130.526 197.464 130.464 197.211C130.399 196.946 130.412 196.752 130.502 196.629C130.593 196.506 130.869 196.388 131.331 196.275L131.577 196.215L133.076 195.848C133.557 195.73 133.876 195.706 134.033 195.774C134.196 195.835 134.309 195.995 134.372 196.254C134.434 196.507 134.408 196.701 134.293 196.837C134.185 196.97 133.942 197.084 133.562 197.176L133.411 197.214L131.54 203.533L132.278 206.55L133.663 206.211Z" fill="#F2F2F3"/>
<path d="M152.802 193.615L156.149 191.437L151.567 188.244L152.802 193.615ZM150.396 189.005L149.201 189.783C148.868 190 148.605 190.109 148.412 190.11C148.221 190.103 148.056 189.992 147.917 189.78C147.772 189.556 147.73 189.366 147.791 189.209C147.854 189.044 148.148 188.791 148.672 188.45L151.005 186.932C151.305 186.737 151.533 186.646 151.69 186.661C151.849 186.666 152.041 186.747 152.267 186.903L160.671 192.818L160.81 192.727C161.105 192.535 161.333 192.445 161.496 192.456C161.658 192.467 161.809 192.578 161.947 192.791C162.093 193.015 162.142 193.204 162.095 193.359C162.045 193.508 161.878 193.675 161.594 193.86L159.367 195.309C158.953 195.578 158.659 195.711 158.485 195.708C158.314 195.695 158.155 195.577 158.01 195.353C157.875 195.146 157.844 194.96 157.916 194.797C157.99 194.624 158.204 194.422 158.559 194.192L159.32 193.696L157.259 192.265L153.101 194.97L153.664 197.377L154.458 196.86C154.818 196.626 155.092 196.509 155.28 196.512C155.464 196.508 155.624 196.61 155.759 196.818C155.904 197.041 155.946 197.236 155.882 197.401C155.821 197.558 155.591 197.766 155.193 198.025L153.04 199.425C152.691 199.653 152.432 199.763 152.264 199.755C152.093 199.743 151.934 199.624 151.789 199.401C151.65 199.188 151.612 199.003 151.673 198.847C151.735 198.69 151.929 198.506 152.256 198.293L152.412 198.191L150.396 189.005Z" fill="#F2F2F3"/>
<path d="M162.679 188.171C162.583 188.259 162.48 188.301 162.37 188.296C162.26 188.282 162.156 188.223 162.059 188.117L161.358 187.356C161.274 187.265 161.234 187.169 161.239 187.067C161.248 186.962 161.3 186.865 161.396 186.777L167.352 181.294C167.462 181.192 167.573 181.139 167.684 181.135C167.794 181.13 167.892 181.173 167.975 181.264L168.676 182.026C168.756 182.112 168.793 182.224 168.787 182.362C168.777 182.495 168.726 182.604 168.635 182.688L162.679 188.171Z" fill="#F2F2F3"/>
<path d="M167.927 173.239L169.473 174.56C169.536 174.617 169.596 174.672 169.654 174.725C169.711 174.769 169.77 174.815 169.832 174.863C170.017 175.007 170.116 175.161 170.127 175.327C170.138 175.483 170.065 175.662 169.91 175.862C169.762 176.053 169.606 176.154 169.44 176.166C169.273 176.168 169.074 176.08 168.843 175.9L168.542 175.667L166.489 173.916C166.308 173.767 166.209 173.613 166.193 173.452C166.182 173.287 166.254 173.103 166.409 172.903L169.83 168.487C170.066 168.184 170.302 168 170.54 167.938C170.773 167.871 171 167.923 171.221 168.095C171.335 168.183 171.436 168.302 171.524 168.453C171.612 168.595 171.692 168.768 171.764 168.973L174.859 178.659L177.628 175.085L175.894 173.593C175.888 173.589 175.878 173.581 175.863 173.569C175.291 173.085 175.146 172.66 175.429 172.294C175.577 172.104 175.739 172.007 175.915 172.003C176.085 171.995 176.286 172.081 176.518 172.261C176.518 172.261 176.549 172.289 176.612 172.346C176.67 172.399 176.73 172.45 176.792 172.497L179.047 174.418C179.233 174.571 179.332 174.725 179.342 174.882C179.348 175.034 179.273 175.211 179.117 175.411L175.361 180.259C175.19 180.48 174.986 180.611 174.749 180.65C174.513 180.689 174.292 180.629 174.086 180.47C173.963 180.374 173.85 180.237 173.749 180.06C173.647 179.883 173.551 179.656 173.461 179.38L170.463 169.966L167.927 173.239Z" fill="#F2F2F3"/>
<path d="M156.62 121.63L146.88 119.98C146.02 116.73 144.74 113.66 143.1 110.82L148.7 102.93C149.51 101.78 149.4 100.22 148.42 99.21L141.35 92.31C140.33 91.31 138.74 91.17 137.55 91.97L129.66 97.33C126.88 95.71 123.87 94.44 120.7 93.59L119.14 84.39C118.9 83 117.71 81.98 116.31 81.96L106.43 82.08C105 82.1 103.77 83.12 103.51 84.53L101.79 93.57C98.3299 94.49 95.0699 95.89 92.0899 97.72L84.5799 92.39C83.4299 91.58 81.8699 91.69 80.8599 92.67L73.9599 99.74C72.9599 100.76 72.8199 102.35 73.6199 103.54L78.9799 111.43C77.4099 114.26 76.1899 117.33 75.3899 120.56L66.3299 122.1C64.9399 122.34 63.9199 123.53 63.8999 124.93L64.0199 134.81C64.0399 136.24 65.0599 137.47 66.4699 137.73L75.6199 139.47C76.4799 142.64 77.7499 145.64 79.3599 148.41L74.2199 155.97C73.4099 157.15 73.5599 158.74 74.5599 159.77L81.4599 166.84C82.4699 167.82 84.0399 167.94 85.1799 167.12L92.6799 161.8C95.6399 163.54 98.8699 164.88 102.28 165.74L103.97 174.6C104.24 176.01 105.46 177.03 106.89 177.05L116.77 177.17C118.18 177.15 119.37 176.12 119.6 174.74L121.17 165.48C124.28 164.61 127.22 163.33 129.94 161.72L137.61 166.93C138.79 167.74 140.38 167.59 141.41 166.59L148.48 159.69C149.46 158.68 149.58 157.11 148.76 155.97L143.23 148.19C144.83 145.38 146.09 142.35 146.93 139.15L156.52 137.32C157.93 137.05 158.95 135.83 158.97 134.4L159.09 124.52C159.07 123.11 158.04 121.92 156.66 121.69L156.62 121.63Z" fill="#F2F2F3"/>
<path d="M122.78 125.87H100.14C97.9089 125.87 96.1001 127.679 96.1001 129.91V143.25C96.1001 145.481 97.9089 147.29 100.14 147.29H122.78C125.011 147.29 126.82 145.481 126.82 143.25V129.91C126.82 127.679 125.011 125.87 122.78 125.87Z" fill="#0557A3"/>
<path d="M102.17 124.34C102.17 124.34 101.89 110.24 111.11 110.25C121.02 110.27 120.66 124.06 120.66 124.06" stroke="#0557A3" stroke-width="5" stroke-miterlimit="10"/>
<path d="M114.14 135.2C114.14 133.72 112.94 132.52 111.46 132.52C109.98 132.52 108.78 133.72 108.78 135.2C108.78 136.2 109.34 137.07 110.15 137.53V142.14H112.86V137.48C113.63 137.01 114.15 136.17 114.15 135.2H114.14Z" fill="#F2F2F3"/>
</g>
<defs>
<clipPath id="clip0_3_99">
<rect width="224.77" height="281.02" fill="white"/>
</clipPath>
</defs>
</svg>
