<svg width="250" height="250" viewBox="0 0 250 250" fill="none" xmlns="http://www.w3.org/2000/svg">
<rect width="250" height="250" rx="45" fill="#223066"/>
<g clip-path="url(#clip0_660_1280)">
<path d="M27 143.76V121.11C27 118.42 28.54 116.89 31.22 116.89H50.65V123.42H37.37C36.22 123.42 35.68 123.96 35.68 125.11V127.11H47.39V133.64H35.68V143.78H27V143.76Z" fill="white"/>
<path d="M57.18 143.76C54.49 143.76 52.96 142.22 52.96 139.54V116.89H61.64V135.39C61.64 136.54 62.18 137.08 63.33 137.08H76.61V143.76H57.18Z" fill="white"/>
<path d="M78.53 143.76V116.89H87.21V143.76H78.53Z" fill="white"/>
<path d="M104.95 123.57C100.73 123.57 99.19 124.95 99.19 130.33C99.19 135.71 100.73 137.09 104.95 137.09H106.79C107.94 137.09 108.48 136.55 108.48 135.4V129.56H117.16V139.54C117.16 142.23 115.62 143.76 112.94 143.76H102.04C93.21 143.76 90.29 139.54 90.29 130.32C90.29 121.1 93.21 116.88 102.04 116.88H116.55V123.56H104.96L104.95 123.57Z" fill="white"/>
<path d="M147.33 143.76H138.65V133.09H128.9V143.76H120.22V116.89H128.9V126.41H138.65V116.89H147.33V143.76Z" fill="white"/>
<path d="M158.86 143.76V123.57H149.26V116.89H177.13V123.57H167.53V143.76H158.85H158.86Z" fill="white"/>
<path d="M188 143.76V116.89H196.68V143.76H188Z" fill="#54C4C3"/>
<path d="M229.31 130.33C229.31 133.09 228.85 135.4 227.97 137.24V137.39L231 137.08V143.76H214.53C203.4 143.76 199.75 141.84 199.75 130.32C199.75 118.8 203.4 116.58 214.53 116.58C225.66 116.58 229.31 118.81 229.31 130.32V130.33ZM214.53 137.08C219.14 137.08 220.4 135.31 220.4 130.32C220.4 125.33 219.13 123.26 214.53 123.26C209.93 123.26 208.66 125.33 208.66 130.32C208.66 135.31 209.93 137.08 214.53 137.08Z" fill="#54C4C3"/>
<path d="M203.405 106.613C204.505 103.811 200.637 99.6715 194.766 97.3671C188.895 95.0627 183.244 95.466 182.144 98.2679C181.045 101.07 184.913 105.209 190.784 107.514C196.655 109.818 202.306 109.415 203.405 106.613Z" stroke="#54C4C3" stroke-width="7" stroke-miterlimit="10"/>
<path d="M169.89 98.81C68.58 67.51 28.79 114.85 28.79 114.85C68.74 56.64 180.6 91.17 180.6 91.17C180.6 91.17 173.95 94.15 174.91 100.07L169.89 98.81Z" fill="white"/>
<path d="M201.405 106.041C202.557 103.237 199.648 99.3845 194.907 97.4372C190.166 95.49 185.389 96.185 184.237 98.9897C183.085 101.794 185.994 105.647 190.735 107.594C195.476 109.541 200.253 108.846 201.405 106.041Z" fill="#233066"/>
</g>
<defs>
<clipPath id="clip0_660_1280">
<rect width="204" height="62.76" fill="white" transform="translate(27 81)"/>
</clipPath>
</defs>
</svg>
