<svg width="1285" height="778" viewBox="0 0 1285 778" fill="none" xmlns="http://www.w3.org/2000/svg">
<rect width="1285" height="778" fill="white"/>
<path d="M141.32 470.8L141.2 500.51H161.29L162.15 470.03L142.87 469.92L141.32 470.8Z" fill="#CBDEF0"/>
<path d="M145.26 445.73L151.57 456.61L158.06 445.73H145.26Z" fill="#CBDEF0"/>
<path d="M175.79 417.15C175.79 417.15 169.86 415.32 168.86 416.98C167.86 418.64 169.97 420.58 169.97 420.58L175.79 417.14V417.15Z" fill="#CBDEF0"/>
<path d="M196.25 417.15C196.25 417.15 202.18 415.32 203.18 416.98C204.18 418.64 202.07 420.58 202.07 420.58L196.25 417.14V417.15Z" fill="#CBDEF0"/>
<path d="M174.68 427.68L186.21 420.81L196.63 426.85C196.63 426.85 197.79 412.88 184.82 414.55C184.82 414.55 173.68 415.22 174.68 427.69V427.68Z" fill="#CBDEF0"/>
<path d="M210.04 456.84L203.72 463.16L196.07 453.96L205.14 480.25H167.85L170.91 470.26C170.91 470.26 179.63 473.36 176.88 463L166.37 450.64L177.01 441.66L184.99 441.44L194.08 441.22L201.73 447.43L210.04 456.85V456.84Z" fill="#CBDEF0"/>
<path d="M535.93 474.24H496.47L471.97 504.17L481.3 510.68C485.97 512.63 491.09 513.71 496.47 513.71C518.26 513.71 535.93 496.04 535.93 474.25V474.24Z" fill="#CBDEF0"/>
<path d="M375.62 313.77C375.62 313.77 367.08 323.1 361.06 353.03C361.06 353.03 359.23 354.69 355.74 350.2C355.74 350.2 341.11 340.72 332.46 355.02C332.46 355.02 335.13 317.25 375.61 313.77H375.62Z" fill="#CBDEF0"/>
<path d="M374.65 108.04L373.72 106.36L367.41 126.12C366.68 128.4 364.56 129.95 362.17 129.95C362.14 129.95 362.1 129.95 362.07 129.95C359.64 129.91 357.53 128.27 356.87 125.93L349.63 100.08L347.49 107.38C346.8 109.72 344.65 111.33 342.21 111.33H334.4C331.36 111.33 328.9 108.87 328.9 105.83C328.9 102.79 331.36 100.33 334.4 100.33H338.1L344.48 78.57C345.17 76.23 347.32 74.62 349.76 74.62H349.79C352.24 74.64 354.39 76.27 355.05 78.64L362.51 105.3L367.12 90.86C367.79 88.77 369.64 87.27 371.82 87.06C374.01 86.85 376.11 87.95 377.17 89.88L382.7 99.9H399.92L400.48 99.13C406.06 86.97 402.56 74.15 391.78 67.18C381.33 60.42 364.5 64.14 359.27 76.11C354.67 65.45 336.5 60.42 326.05 67.17C315.27 74.14 311.22 85.69 318.07 99.54C324.91 113.39 358.92 144.62 358.92 144.62V144.58L358.94 144.62C358.94 144.62 378.47 126.52 390.99 112.13L391.9 110.89H379.48C377.48 110.89 375.63 109.8 374.66 108.05L374.65 108.04Z" fill="#CBDEF0"/>
<path d="M621.7 529.98L619.48 541.28H623.58L621.59 548.15H624.8L622.03 555.03L641.61 555.02L622.47 528.65L621.7 529.98Z" fill="#CBDEF0"/>
<path d="M648.91 578.97L624.14 578.86L626.35 569.33H621.92L623.91 560.02H607.73L610.71 555.02H632.96L648.91 578.97Z" fill="#CBDEF0"/>
<path d="M653.79 601.58L629.01 601.47L631.23 591.94H626.8L628.79 582.63H602.86L605.62 579.18H637.61L653.79 601.58Z" fill="#CBDEF0"/>
<path d="M622.28 360.84L613.97 376.8L621.95 375.97L631.4 391.6L642.4 370.82C642.4 370.82 626.6 370.15 622.28 360.84Z" fill="#CADEF1"/>
<path d="M667.84 360.18L676.15 376.14L668.17 375.31L658.72 390.94L647.72 370.16C647.72 370.16 663.52 369.49 667.84 360.18Z" fill="#CADEF1"/>
<path d="M643.45 370.38L628.17 398.01L619.13 382.74L601.39 383.23L616.63 356.08" stroke="#2C337C" stroke-width="3" stroke-linecap="round" stroke-linejoin="round"/>
<path d="M647.11 370.71L661.91 398.01L670.95 382.74L688.7 383.23L673.38 355.63" stroke="#2C337C" stroke-width="3" stroke-linecap="round" stroke-linejoin="round"/>
<path d="M258.01 173.99V265.91L268.34 261.63C268.34 261.63 295.16 248.55 298.27 216.18L299.47 187.36C299.47 187.36 282.7 187.66 258 173.99H258.01Z" fill="#CBDEF0"/>
<path d="M539.38 185.75C537.32 194.83 518.89 208.18 518.89 208.18C518.89 208.18 500.81 196.27 498.75 185.95C498.61 185.24 498.17 184.66 497.94 184.03C496.65 187.02 496.77 190.62 498.75 194.62C502.12 201.45 518.89 216.85 518.89 216.85C518.89 216.85 536.63 200.41 539.38 194.42C540.94 191.01 541.06 187.5 539.89 184.47C539.74 184.9 539.48 185.29 539.38 185.75Z" fill="#CBDEF0"/>
<path d="M453.42 213.24L453.47 252.96L464.39 253.99L464.57 213.18L453.42 213.24Z" fill="#CBDEF0"/>
<path d="M449.565 209.834L449.465 253.944L464.355 253.978L464.455 209.868L449.565 209.834Z" stroke="#2C337C" stroke-width="3" stroke-linecap="round" stroke-linejoin="round"/>
<path d="M465.12 215.62L477.59 210.67C477.59 210.67 481.02 209.32 488.25 213.74C495.48 218.16 509.5 224.63 509.5 224.63C509.5 224.63 515.83 227.05 513.49 235.21L541.96 226.43C541.96 226.43 550.62 223.83 552.96 231.48C555.3 239.13 548.46 239.93 545.18 241.89C541.9 243.84 504.34 255.89 504.34 255.89C504.34 255.89 498.34 258.11 491.12 254.93C482.44 251.05 464.63 246.23 464.63 246.23" stroke="#2C337C" stroke-width="3" stroke-linecap="round" stroke-linejoin="round"/>
<path d="M487.18 231.89L501.71 239.99C501.71 239.99 510.39 244.73 513.5 235.22" stroke="#2C337C" stroke-width="3" stroke-linecap="round" stroke-linejoin="round"/>
<path d="M518.88 216.85C518.88 216.85 502.11 201.45 498.74 194.62C495.37 187.79 497.37 182.1 502.68 178.66C507.83 175.33 516.79 177.81 519.06 183.07C521.64 177.17 529.94 175.34 535.09 178.67H535.08C540.4 182.1 542.12 188.43 539.37 194.42C536.62 200.41 518.88 216.85 518.88 216.85ZM518.88 216.85V216.83" stroke="#2C337C" stroke-width="3" stroke-linecap="round" stroke-linejoin="round"/>
<path d="M257.94 265.92C220.52 253.99 218.05 218.63 218.05 218.63L216.82 187.37C240.47 186.55 258.02 174 258.02 174C258.02 174 275.84 186.55 299.49 187.37L298.26 218.63C298.26 218.63 295.79 254 258.37 265.92" stroke="#2A2F7D" stroke-width="3" stroke-linecap="round" stroke-linejoin="round"/>
<path d="M263.08 192.99H253.21C251.951 192.99 250.93 194.011 250.93 195.27V244.65C250.93 245.909 251.951 246.93 253.21 246.93H263.08C264.339 246.93 265.36 245.909 265.36 244.65V195.27C265.36 194.011 264.339 192.99 263.08 192.99Z" fill="#2A2F7D"/>
<path d="M231.18 215.02V224.89C231.18 226.149 232.201 227.17 233.46 227.17H282.84C284.099 227.17 285.12 226.149 285.12 224.89V215.02C285.12 213.761 284.099 212.74 282.84 212.74H233.46C232.201 212.74 231.18 213.761 231.18 215.02Z" fill="#2A2F7D"/>
<path d="M355.58 186.59C355.58 186.59 341.45 190.08 339.95 210.7C338.77 226.97 343.44 255.76 360.24 236.31C360.24 236.31 365.39 230.82 370.88 242.13C376.08 252.85 383.52 255.1 390.67 244.62C390.67 244.62 384.19 272.72 368.22 248.94C368.22 248.94 363.82 238.71 359.12 247.73C354.42 256.75 348.2 266.44 339.51 251.12C330.82 235.8 320.51 213.85 328.49 195.06C336.47 176.27 355.59 186.58 355.59 186.58L355.58 186.59Z" fill="#CBDEF0"/>
<path d="M375.7 185C374.73 185.34 373.73 185.76 372.7 186.26C372.7 186.26 368.86 188.87 363.54 189.04C358.22 188.87 354.38 186.26 354.38 186.26C338.43 178.48 330.46 191.25 330.46 191.25C319.25 209.21 330.24 232.36 339.51 251.13C348.78 269.89 359.12 247.74 359.12 247.74C360.77 244.46 362.29 243.4 363.54 243.34C364.79 243.4 366.31 244.46 367.96 247.74C367.96 247.74 378.31 269.89 387.57 251.13C396.84 232.37 407.83 209.22 396.62 191.25C396.62 191.25 392.48 184.61 384.19 183.82" stroke="#2C337C" stroke-width="3" stroke-linecap="round" stroke-linejoin="round"/>
<path d="M380.46 181.56C380.17 188.67 374.44 194.37 367.31 194.59C374.44 194.82 380.17 200.51 380.46 207.62C380.75 200.51 386.48 194.81 393.61 194.59C386.48 194.36 380.75 188.67 380.46 181.56Z" fill="#2A2F7D" stroke="#2A2F7D" stroke-width="3" stroke-linecap="round" stroke-linejoin="round"/>
<path d="M397.21 172.45C397.08 175.72 394.44 178.33 391.17 178.44C394.44 178.54 397.08 181.16 397.21 184.43C397.34 181.16 399.98 178.55 403.25 178.44C399.98 178.34 397.34 175.72 397.21 172.45Z" fill="#2A2F7D" stroke="#2A2F7D" stroke-width="3" stroke-linecap="round" stroke-linejoin="round"/>
<path d="M177.72 110.88H247.67C247.67 110.88 249.57 127.85 228.97 131.83L207.33 132C207.33 132 180.32 137.19 177.72 110.88Z" fill="#CBDEF0"/>
<path d="M215.81 67.08L214.52 89.16L227.16 70.28L215.81 67.08Z" fill="#CBDEF0"/>
<path d="M234.34 74.35L223.78 88.38L240.4 79.98L234.34 74.35Z" fill="#CBDEF0"/>
<path d="M244.04 86.8199L225.42 95.2199L246.81 94.9599L244.04 86.8199Z" fill="#CBDEF0"/>
<path d="M170.97 98.3H248.39V109.48C248.39 122.02 238.21 132.21 225.66 132.21H193.69C181.15 132.21 170.96 122.03 170.96 109.48V98.3H170.97Z" stroke="#2A2F7D" stroke-width="3" stroke-linecap="round" stroke-linejoin="round"/>
<path d="M246.87 98.3C246.87 80.74 231.13 66.5 211.72 66.5V97.56" stroke="#2A2F7D" stroke-width="3" stroke-linecap="round" stroke-linejoin="round"/>
<path d="M172.36 97.55L169.24 84.75" stroke="#2A2F7D" stroke-width="3" stroke-linecap="round" stroke-linejoin="round"/>
<path d="M224.79 157.92C229.882 157.92 234.01 153.792 234.01 148.7C234.01 143.608 229.882 139.48 224.79 139.48C219.698 139.48 215.57 143.608 215.57 148.7C215.57 153.792 219.698 157.92 224.79 157.92Z" fill="#2A2F7D"/>
<path d="M224.79 152.28C226.767 152.28 228.37 150.677 228.37 148.7C228.37 146.723 226.767 145.12 224.79 145.12C222.813 145.12 221.21 146.723 221.21 148.7C221.21 150.677 222.813 152.28 224.79 152.28Z" fill="white"/>
<path d="M231.07 72.13L213.35 97.01L242.28 83.74" stroke="#2A2F7D" stroke-width="3" stroke-linecap="round" stroke-linejoin="round"/>
<path d="M224.18 143.38L217.73 132.63" stroke="#2A2F7D" stroke-width="3" stroke-linecap="round" stroke-linejoin="round"/>
<path d="M192.59 157.92C197.682 157.92 201.81 153.792 201.81 148.7C201.81 143.608 197.682 139.48 192.59 139.48C187.498 139.48 183.37 143.608 183.37 148.7C183.37 153.792 187.498 157.92 192.59 157.92Z" fill="#2A2F7D"/>
<path d="M192.59 152.28C194.567 152.28 196.17 150.677 196.17 148.7C196.17 146.723 194.567 145.12 192.59 145.12C190.613 145.12 189.01 146.723 189.01 148.7C189.01 150.677 190.613 152.28 192.59 152.28Z" fill="white"/>
<path d="M193.2 143.38L199.65 132.63" stroke="#2A2F7D" stroke-width="3" stroke-linecap="round" stroke-linejoin="round"/>
<path d="M171.58 107.33H226.39" stroke="#2A2F7D" stroke-width="3" stroke-linecap="round" stroke-linejoin="round"/>
<path d="M166.12 86.99C167.744 86.99 169.06 85.6737 169.06 84.05C169.06 82.4263 167.744 81.11 166.12 81.11C164.496 81.11 163.18 82.4263 163.18 84.05C163.18 85.6737 164.496 86.99 166.12 86.99Z" stroke="#2A2F7D" stroke-width="3" stroke-linecap="round" stroke-linejoin="round"/>
<path d="M249.02 348.88L255.73 354.14L248.96 379.53L252.79 389.45L255.37 390.78H260.4L266.26 380.25L264.98 370.6L260.77 353.75L265.87 349.32L249.02 348.88Z" fill="#CBDEF0"/>
<path d="M282.33 390.79H267.42L268.7 387.55H282.33V390.79Z" fill="#2A2F7D"/>
<path d="M257.88 343.72C270.4 343.72 280.55 333.57 280.55 321.05C280.55 308.53 270.4 298.38 257.88 298.38C245.36 298.38 235.21 308.53 235.21 321.05C235.21 333.57 245.36 343.72 257.88 343.72Z" stroke="#2A2F7D" stroke-width="3" stroke-linecap="round" stroke-linejoin="round"/>
<path d="M235.51 323.51L268.09 312.93L268.56 307.13L280.22 323.07" stroke="#2A2F7D" stroke-width="3" stroke-linecap="round" stroke-linejoin="round"/>
<path d="M242.16 350.22H273.59C276.97 350.22 280.25 351.35 282.92 353.39C283.42 352.39 284.23 351.58 285.23 351.08C281.93 348.44 277.84 346.97 273.59 346.97H242.16C231.89 346.97 223.54 355.32 223.54 365.59V386.16C223.54 388.71 225.61 390.78 228.16 390.78H248.19L246.9 387.53H228.16C227.4 387.53 226.78 386.91 226.78 386.15V365.58C226.78 357.1 233.68 350.2 242.16 350.2V350.22Z" fill="#2A2F7D"/>
<path d="M294.45 354.03H287.49C286.595 354.03 285.87 354.755 285.87 355.65V390.54C285.87 391.435 286.595 392.16 287.49 392.16H294.45C295.345 392.16 296.07 391.435 296.07 390.54V355.65C296.07 354.755 295.345 354.03 294.45 354.03Z" fill="#2A2F7D"/>
<path d="M271.91 369.62V376.58C271.91 377.475 272.635 378.2 273.53 378.2H308.42C309.315 378.2 310.04 377.475 310.04 376.58V369.62C310.04 368.725 309.315 368 308.42 368H273.53C272.635 368 271.91 368.725 271.91 369.62Z" fill="#2A2F7D"/>
<path d="M250.7 379.48L256.94 354.52C257.05 353.98 256.89 353.42 256.5 353.04L250.23 347.78C249.59 347.15 248.57 347.15 247.93 347.78C247.3 348.42 247.3 349.44 247.93 350.08L253.58 354.72L247.42 379.3C247.35 379.62 247.38 379.95 247.51 380.25L251.85 390.77H255.37L250.7 379.47V379.48Z" fill="#2A2F7D"/>
<path d="M268.24 380.26C268.36 379.96 268.4 379.63 268.33 379.31L262.17 354.74L267.49 350.55C268.13 349.93 268.15 348.9 267.53 348.25C266.91 347.61 265.88 347.59 265.23 348.21L259.27 353.02C258.87 353.41 258.7 353.97 258.81 354.52L265.05 379.48L260.4 390.78H263.9L268.24 380.26Z" fill="#2A2F7D"/>
<path d="M236.16 314.93L260.6 307.2" stroke="#2A2F7D" stroke-width="3" stroke-linecap="round" stroke-linejoin="round"/>
<path d="M482.69 356.86H475.28V380.94H482.69V356.86Z" fill="#CADEF1"/>
<path d="M517.96 356.86H510.55V380.94H517.96V356.86Z" fill="#CADEF1"/>
<path d="M499.85 345.51H492.44V380.87H499.85V345.51Z" fill="#CADEF1"/>
<path d="M535.26 345.51H527.85V380.87H535.26V345.51Z" fill="#CADEF1"/>
<path d="M457.96 316.61V390.19H541.88" stroke="#2A2F7D" stroke-width="3" stroke-linejoin="round"/>
<path d="M482.69 353.64H471.88V380.94H482.69V353.64Z" stroke="#2A2F7D" stroke-width="3" stroke-linecap="round" stroke-linejoin="round"/>
<path d="M500.02 342.16H489.21V380.94H500.02V342.16Z" stroke="#2A2F7D" stroke-width="3" stroke-linecap="round" stroke-linejoin="round"/>
<path d="M518.1 353.64H507.29V380.94H518.1V353.64Z" stroke="#2A2F7D" stroke-width="3" stroke-linecap="round" stroke-linejoin="round"/>
<path d="M535.43 342.16H524.62V380.94H535.43V342.16Z" stroke="#2A2F7D" stroke-width="3" stroke-linecap="round" stroke-linejoin="round"/>
<path d="M470.92 341.85L494.3 320.76L511.08 338.68L536.76 318.59" stroke="#2C337C" stroke-width="3" stroke-linecap="round" stroke-linejoin="round"/>
<path d="M470.92 341.85L494.3 320.76L511.08 338.68L536.76 318.59" stroke="#2C337C" stroke-width="3" stroke-linecap="round" stroke-linejoin="round"/>
<path d="M645.04 370.19C663.652 370.19 678.74 355.102 678.74 336.49C678.74 317.878 663.652 302.79 645.04 302.79C626.428 302.79 611.34 317.878 611.34 336.49C611.34 355.102 626.428 370.19 645.04 370.19Z" stroke="#2C337C" stroke-width="3" stroke-linecap="round" stroke-linejoin="round"/>
<path d="M645.04 361.05C658.604 361.05 669.6 350.054 669.6 336.49C669.6 322.926 658.604 311.93 645.04 311.93C631.476 311.93 620.48 322.926 620.48 336.49C620.48 350.054 631.476 361.05 645.04 361.05Z" fill="#CBDEF0"/>
<path d="M645.04 319.52L648.85 331.25H661.19L651.21 338.5L655.02 350.23L645.04 342.98L635.06 350.23L638.87 338.5L628.89 331.25H641.23L645.04 319.52Z" fill="#2C337C" stroke="#2C337C" stroke-width="3" stroke-linecap="round" stroke-linejoin="round"/>
<path d="M198.16 536.69V555.8V558.57L160.36 565.56L151.82 561.45L141.4 557.35L198.16 536.69Z" fill="#CBDEF0"/>
<path d="M198.16 584.71V610.51C198.16 610.51 168.56 611.12 164.41 598.04L166.41 574.58L198.17 584.71H198.16Z" fill="#CBDEF0"/>
<path d="M198.16 577.42L138.3 557.35L198.16 536.69L258 557.13L198.16 577.42Z" stroke="#2A2F7D" stroke-width="3" stroke-linecap="round" stroke-linejoin="round"/>
<path d="M232.24 598.04C232.24 604.93 217.05 610.51 198.32 610.51C179.59 610.51 164.4 604.92 164.4 598.04L166.4 574.58L198.16 584.71L230.58 574.25L232.24 598.04Z" stroke="#2A2F7D" stroke-width="3" stroke-linecap="round" stroke-linejoin="round"/>
<path d="M198.15 557.05L151.82 561.45V597.36" stroke="#2A2F7D" stroke-width="3" stroke-linecap="round" stroke-linejoin="round"/>
<path d="M154.54 615.47H157.48L156.09 600.38C156.09 598.05 154.2 596.17 151.88 596.17C149.55 596.17 147.67 598.06 147.67 600.38L146.17 615.47H147.99L149.58 600.69V615.47H153.46V605.43L154.54 615.47Z" fill="#2B2F7D"/>
<path d="M654.9 601.42L637.2 578.97H648.91L632.96 555.02H641.61L621.75 527.76L602.33 555.02H610.71L595.04 578.97H606.43L589.05 601.42H654.9Z" stroke="#2A2F7D" stroke-width="3" stroke-linecap="round" stroke-linejoin="round"/>
<path d="M621.64 512.9L623.16 517.57H628.07L624.1 520.45L625.61 525.12L621.64 522.24L617.67 525.12L619.19 520.45L615.21 517.57H620.12L621.64 512.9Z" fill="#2A2F7D" stroke="#2A2F7D" stroke-width="3" stroke-linecap="round" stroke-linejoin="round"/>
<path d="M628.62 614.39H614.33L616.33 605.91H626.62L628.62 614.39Z" fill="#2A2F7D" stroke="#2A2F7D" stroke-width="3" stroke-linecap="round" stroke-linejoin="round"/>
<path d="M606.43 578.96H638.21" stroke="#2A2F7D" stroke-width="3" stroke-linecap="round" stroke-linejoin="round"/>
<path d="M603.96 554.8H638.21" stroke="#2A2F7D" stroke-width="3" stroke-linecap="round" stroke-linejoin="round"/>
<path d="M400.5 99.12C406.08 86.96 402.58 74.14 391.8 67.17C381.35 60.41 364.52 64.13 359.29 76.1C354.69 65.44 336.52 60.41 326.07 67.16C315.29 74.13 311.24 85.68 318.09 99.53C324.93 113.38 358.94 144.61 358.94 144.61V144.57L358.96 144.61C358.96 144.61 378.49 126.51 391.01 112.12" stroke="#2C337C" stroke-width="3" stroke-linecap="round" stroke-linejoin="round"/>
<path d="M334.41 105.83H342.23L349.76 80.11L362.18 124.45L372.38 92.53L379.47 105.39H410.67" stroke="#2C337C" stroke-width="3" stroke-linecap="round" stroke-linejoin="round"/>
<path d="M346.45 347.21C353.45 347.21 359.28 352.06 360.84 358.58H361.26C362.82 352.06 368.65 347.21 375.65 347.21C382.65 347.21 388.49 352.06 390.05 358.58H390.07C391.63 352.06 397.48 347.21 404.47 347.21C411.46 347.21 417.32 352.06 418.87 358.58H419.09C419.09 336.86 399.63 313.77 375.62 313.77C351.61 313.77 332.45 336.6 332.16 358.1C333.88 351.82 339.62 347.21 346.44 347.21H346.45Z" stroke="#2C337C" stroke-width="3" stroke-linecap="round" stroke-linejoin="round"/>
<path d="M373.73 352.34V384.98C373.73 389.36 370.17 392.92 365.79 392.92C361.41 392.92 357.85 389.36 357.85 384.98C357.85 383.88 356.95 382.98 355.85 382.98C354.75 382.98 353.85 383.88 353.85 384.98C353.85 391.56 359.2 396.92 365.79 396.92C372.38 396.92 377.73 391.57 377.73 384.98V352.37C377.05 352.26 376.73 352.2 375.65 352.2C374.74 352.2 374.36 352.26 373.73 352.35V352.34Z" fill="#2C337C"/>
<path d="M378.18 309.4L377.81 304.31C377.81 303.21 377.28 302.31 376.18 302.31C375.08 302.31 374.46 303.21 374.46 304.31L374.18 309.4C374.84 309.36 375.5 309.34 376.17 309.34C376.84 309.34 377.51 309.36 378.18 309.4Z" fill="#2C337C"/>
<path d="M360.68 355.3C360.68 355.3 362.68 338.78 371.65 319.72" stroke="#2A2F7D" stroke-width="3" stroke-linecap="round" stroke-linejoin="round"/>
<path d="M389.95 354.86C389.95 354.86 386.18 334.91 382.3 324.04" stroke="#2A2F7D" stroke-width="3" stroke-linecap="round" stroke-linejoin="round"/>
<path d="M672.01 256.42H621.12V263.15H672.01V256.42Z" fill="#CBDEF0"/>
<path d="M661.61 247.03H631.76V252.1H661.61V247.03Z" fill="#CBDEF0"/>
<path d="M655.78 243.37H641.48C647.22 240.71 646.14 231.73 646.14 231.73L649.96 230.07C649.96 230.07 649.96 240.13 655.78 243.37Z" fill="#CBDEF0"/>
<path d="M654.98 174.95C654.98 174.95 661.41 225.5 634.36 224.61L634.3 224.66C637.9 228.56 641.98 230.78 646.3 230.78C660.88 230.78 672.69 205.74 672.69 174.85H655.03L654.98 174.95Z" fill="#CBDEF0"/>
<path d="M619.91 174.85C619.91 205.74 631.73 230.78 646.3 230.78C660.87 230.78 672.69 205.74 672.69 174.85H619.91Z" stroke="#2C337C" stroke-width="3" stroke-linecap="round" stroke-linejoin="round"/>
<path d="M619.76 181.64H610.94C610.94 181.64 604.73 181.35 607.04 187.42C609.35 193.49 615.42 206.35 625.39 211.26L623.66 212.71" stroke="#2C337C" stroke-width="3" stroke-linecap="round" stroke-linejoin="round"/>
<path d="M673.43 181.64H682.25C682.25 181.64 688.46 181.35 686.15 187.42C683.84 193.49 677.77 206.35 667.8 211.26L669.53 212.71" stroke="#2C337C" stroke-width="3" stroke-linecap="round" stroke-linejoin="round"/>
<path d="M661.62 243.99H630.98V252.54H661.62V243.99Z" stroke="#2C337C" stroke-width="3" stroke-linecap="round" stroke-linejoin="round"/>
<path d="M624.95 252.8H667.66C670.06 252.8 672.01 254.75 672.01 257.15V263.16H620.61V257.15C620.61 254.75 622.56 252.8 624.96 252.8H624.95Z" stroke="#2C337C" stroke-width="3" stroke-linecap="round" stroke-linejoin="round"/>
<path d="M641.71 230.78C641.71 230.78 644.03 238.73 634.79 243.93" stroke="#2C337C" stroke-width="3" stroke-linecap="round" stroke-linejoin="round"/>
<path d="M650.94 230.78C650.94 230.78 648.62 238.73 657.86 243.93" stroke="#2C337C" stroke-width="3" stroke-linecap="round" stroke-linejoin="round"/>
<path d="M535.93 474.24C535.93 496.03 518.26 513.7 496.47 513.7C474.68 513.7 457.01 496.03 457.01 474.24C457.01 452.45 474.68 434.78 496.47 434.78V474.24H535.93Z" stroke="#2C337C" stroke-width="3" stroke-linecap="round" stroke-linejoin="round"/>
<path d="M531.35 439.09C530.38 438.15 529.38 437.27 528.35 436.44L503.81 464.31V467.34H506.47L531.34 439.09H531.35Z" fill="#CBDEF0"/>
<path d="M503.81 451.24L520.94 431.79C519.67 431.18 518.37 430.63 517.05 430.16L503.82 445.19V451.24H503.81Z" fill="#CBDEF0"/>
<path d="M524.24 467.34L539.35 450.18C538.74 448.91 538.05 447.67 537.3 446.46L518.92 467.34H524.25H524.24Z" fill="#CBDEF0"/>
<path d="M543.28 467.34C543.28 457.24 539.43 447.14 531.72 439.44C524.01 431.73 513.92 427.88 503.82 427.88V467.34H543.28Z" stroke="#2C337C" stroke-width="3" stroke-linecap="round" stroke-linejoin="round"/>
<path d="M356.66 540.31C356.66 540.31 371.33 530.38 381.44 541.92C381.44 541.92 386.9 549.98 386.72 554.81C386.72 554.81 387.79 557.58 383.14 555.16C378.49 552.75 359.98 544.78 359.98 544.78L352.02 554.8C352.02 554.8 349.25 556.86 350.5 551.22C351.75 545.59 356.67 540.31 356.67 540.31H356.66Z" fill="#CBDEF0"/>
<path d="M382.77 576.89C382.41 585.39 375.98 591.65 368.05 591.65C360.12 591.65 354.06 585.3 353.44 576.62H357.64C357.64 576.62 358.62 587.17 368.06 587.04C377.5 586.91 378.07 577.24 378.07 577.24L382.77 576.89Z" fill="#CBDEF0"/>
<path d="M318.61 597.11L324.02 601.36L318.57 621.84L321.65 629.85L323.74 630.92H327.8L332.52 622.42L331.49 614.64L328.09 601.05L332.21 597.47L318.61 597.11Z" fill="#CBDEF0"/>
<path d="M325.76 592.95C335.861 592.95 344.05 584.761 344.05 574.66C344.05 564.559 335.861 556.37 325.76 556.37C315.659 556.37 307.47 564.559 307.47 574.66C307.47 584.761 315.659 592.95 325.76 592.95Z" stroke="#2A2F7D" stroke-width="3" stroke-linecap="round" stroke-linejoin="round"/>
<path d="M307.71 576.64L334 568.11L334.38 563.43L343.79 576.29" stroke="#2A2F7D" stroke-width="3" stroke-linecap="round" stroke-linejoin="round"/>
<path d="M319.97 621.8L325 601.66C325.09 601.23 324.96 600.78 324.64 600.46L319.58 596.22C319.07 595.71 318.24 595.71 317.73 596.22C317.22 596.73 317.22 597.56 317.73 598.07L322.29 601.81L317.32 621.65C317.27 621.91 317.29 622.18 317.39 622.42L320.89 630.91H323.73L319.96 621.79L319.97 621.8Z" fill="#2A2F7D"/>
<path d="M334.13 622.43C334.23 622.19 334.26 621.92 334.2 621.66L329.23 601.83L333.52 598.45C334.04 597.95 334.05 597.12 333.55 596.6C333.05 596.08 332.22 596.07 331.7 596.57L326.89 600.46C326.57 600.77 326.43 601.23 326.52 601.67L331.55 621.81L327.8 630.93H330.62L334.12 622.44L334.13 622.43Z" fill="#2A2F7D"/>
<path d="M308.24 569.72L327.96 563.48" stroke="#2A2F7D" stroke-width="3" stroke-linecap="round" stroke-linejoin="round"/>
<path d="M368.42 573.09C378.521 573.09 386.71 564.901 386.71 554.8C386.71 544.699 378.521 536.51 368.42 536.51C358.319 536.51 350.13 544.699 350.13 554.8C350.13 564.901 358.319 573.09 368.42 573.09Z" stroke="#2A2F7D" stroke-width="3" stroke-linecap="round" stroke-linejoin="round"/>
<path d="M386.47 556.79L359.97 544.78L350.39 556.43" stroke="#2A2F7D" stroke-width="3" stroke-linecap="round" stroke-linejoin="round"/>
<path d="M381.1 575.72H355.74C353.38 575.72 350.18 576.77 348.11 577.81C347.98 578.99 347.75 580.15 347.45 581.27C349.58 579.69 353.07 578.34 355.74 578.34H381.1C387.94 578.34 393.51 583.91 393.51 590.75V605.02C393.51 605.63 393.01 606.13 392.4 606.13H372.59L371.55 608.75H392.4C394.46 608.75 396.13 607.08 396.13 605.02V590.75C396.13 582.46 389.39 575.72 381.1 575.72Z" fill="#2A2F7D"/>
<path d="M378.07 577.24C377.55 582.75 373.27 587.04 368.06 587.04C362.85 587.04 358.47 582.95 358.06 577.31" stroke="#2A2F7D" stroke-width="3" stroke-linecap="round" stroke-linejoin="round"/>
<path d="M353.09 607.05L360.57 599.56L368.05 607.05" stroke="#2A2F7D" stroke-width="3" stroke-linecap="round" stroke-linejoin="round"/>
<path d="M360.57 600.11C359.85 600.11 359.26 600.7 359.26 601.42V627.17C359.26 627.78 358.76 628.28 358.15 628.28H334.63L333.53 630.9H358.15C360.21 630.9 361.88 629.23 361.88 627.17V601.42C361.88 600.7 361.29 600.11 360.57 600.11Z" fill="#2A2F7D"/>
<path d="M339.19 595.54H311.89C304.49 595.54 298.46 601.56 298.46 608.97V627.21C298.46 629.27 300.14 630.95 302.2 630.95H318L316.89 628.3H302.2C301.6 628.3 301.1 627.81 301.1 627.2V608.96C301.1 603.02 305.94 598.18 311.88 598.18H339.18C343.75 598.18 347.8 601.07 349.32 605.3L351.34 603.28C349.16 598.63 344.45 595.54 339.17 595.54H339.19Z" fill="#2A2F7D"/>
<path d="M366.32 541.2L385.73 549.79" stroke="#2A2F7D" stroke-width="3" stroke-linecap="round" stroke-linejoin="round"/>
<path d="M343.33 593.79V591.21C343.33 590.24 343.5 589.31 343.79 588.42L340.76 590.43C340.74 590.69 340.71 590.94 340.71 591.2V593.42C341.73 593.53 342.65 593.66 343.33 593.77V593.79Z" fill="#2A2F7D"/>
<path d="M540.64 540.08L544.46 539.53V594.07C544.46 594.07 522.35 595.18 505.83 607.59L504.06 607.15C504.06 607.15 517.03 593.56 540.31 590.32L540.64 540.08Z" fill="#CBDEF0"/>
<path d="M548.79 543.99L552.61 543.44V600.78C552.61 600.78 525.34 599.37 509.13 608.93L508.63 607.85C508.63 607.85 525.17 600.11 548.45 596.88L548.78 544.01L548.79 543.99Z" fill="#CBDEF0"/>
<path d="M533.1 580.79C526.97 582 517.53 584.98 508.82 592.27V588.4C517.77 581.53 527.06 578.79 533.1 577.69V580.79Z" fill="#CBDEF0"/>
<path d="M533.1 573.25C526.97 574.46 517.53 577.43 508.82 584.73V580.86C517.77 573.99 527.06 571.25 533.1 570.15V573.25Z" fill="#CBDEF0"/>
<path d="M533.1 565.71C526.97 566.92 517.53 569.9 508.82 577.19V573.32C517.77 566.45 527.06 563.71 533.1 562.61V565.71Z" fill="#CBDEF0"/>
<path d="M533.1 558.06C526.97 559.27 517.53 562.25 508.82 569.54V565.67C517.77 558.8 527.06 556.06 533.1 554.96V558.06Z" fill="#CBDEF0"/>
<path d="M533.1 550.41C526.97 551.62 517.53 554.6 508.82 561.89V558.02C517.77 551.15 527.06 548.41 533.1 547.31V550.41Z" fill="#CBDEF0"/>
<path d="M533.1 542.77C526.97 543.98 517.53 546.96 508.82 554.25V550.38C517.77 543.51 527.06 540.77 533.1 539.67V542.77Z" fill="#CBDEF0"/>
<path d="M462.66 540.08L458.84 539.53V594.07C458.84 594.07 480.95 595.18 497.47 607.59L499.24 607.15C499.24 607.15 486.27 593.56 462.99 590.32L462.66 540.08Z" fill="#CBDEF0"/>
<path d="M454.51 543.99L450.69 543.44V600.78C450.69 600.78 477.96 599.37 494.17 608.93L494.67 607.85C494.67 607.85 478.13 600.11 454.85 596.88L454.52 544.01L454.51 543.99Z" fill="#CBDEF0"/>
<path d="M462.99 528.78V590.32C462.99 590.32 486.49 590.51 502.23 610.57V549.61C502.23 549.61 488.71 529.16 462.99 528.77V528.78Z" stroke="#2A2F7D" stroke-width="3" stroke-linecap="round" stroke-linejoin="round"/>
<path d="M462.44 536.37C459.61 535.77 458.23 535.83 455.01 535.79V597.33C455.01 597.33 479.84 597.72 501.79 611.74" stroke="#2A2F7D" stroke-width="3" stroke-linecap="round" stroke-linejoin="round"/>
<path d="M454.97 540.62C452.53 540.18 449.96 539.92 447.25 539.88V604.93C447.25 604.93 480.06 598.89 502.01 612.91" stroke="#2A2F7D" stroke-width="3" stroke-linecap="round" stroke-linejoin="round"/>
<path d="M541.03 528.78V590.32C541.03 590.32 517.53 590.51 501.79 610.57V549.61C501.79 549.61 515.31 529.16 541.03 528.77V528.78Z" stroke="#2A2F7D" stroke-width="3" stroke-linecap="round" stroke-linejoin="round"/>
<path d="M541.58 536.37C544.41 535.77 545.79 535.83 549.01 535.79V597.33C549.01 597.33 524.18 597.72 502.23 611.74" stroke="#2A2F7D" stroke-width="3" stroke-linecap="round" stroke-linejoin="round"/>
<path d="M549.05 540.62C551.49 540.18 554.06 539.92 556.77 539.88V604.93C556.77 604.93 523.96 598.89 502.01 612.91" stroke="#2A2F7D" stroke-width="3" stroke-linecap="round" stroke-linejoin="round"/>
<path d="M470.31 537.42V558.2C470.31 558.2 482.45 560.2 494.25 568.68L494.58 551.83C494.58 551.83 485.38 540.19 470.3 537.42H470.31Z" fill="#CBDEF0"/>
<path d="M470.2 580.79C476.33 582 485.77 584.98 494.48 592.27V588.4C485.53 581.53 476.24 578.79 470.2 577.69V580.79Z" fill="#CBDEF0"/>
<path d="M470.2 573.25C476.33 574.46 485.77 577.43 494.48 584.73V580.86C485.53 573.99 476.24 571.25 470.2 570.15V573.25Z" fill="#CBDEF0"/>
<path d="M470.2 565.71C476.33 566.92 485.77 569.9 494.48 577.19V573.32C485.53 566.45 476.24 563.71 470.2 562.61V565.71Z" fill="#CBDEF0"/>
<path d="M130.92 316.08H200.19C202.32 316.08 204.06 317.81 204.06 319.95V331.41H127.05V319.95C127.05 317.82 128.78 316.08 130.92 316.08Z" fill="#CBDEF0"/>
<path d="M199.82 315.49H131.99C129.162 315.49 126.87 317.782 126.87 320.61V384.85C126.87 387.678 129.162 389.97 131.99 389.97H199.82C202.648 389.97 204.94 387.678 204.94 384.85V320.61C204.94 317.782 202.648 315.49 199.82 315.49Z" stroke="#2C337C" stroke-width="3" stroke-linecap="round" stroke-linejoin="round"/>
<path d="M159.59 339.52H153.14V345.68H159.59V339.52Z" fill="#CBDEF0"/>
<path d="M169.44 339.52H162.99V345.68H169.44V339.52Z" fill="#CBDEF0"/>
<path d="M179.29 339.52H172.84V345.68H179.29V339.52Z" fill="#CBDEF0"/>
<path d="M189.14 339.52H182.69V345.68H189.14V339.52Z" fill="#CBDEF0"/>
<path d="M198.98 339.52H192.53V345.68H198.98V339.52Z" fill="#CBDEF0"/>
<path d="M139.9 351.23H133.45V357.39H139.9V351.23Z" fill="#CBDEF0"/>
<path d="M149.75 351.23H143.3V357.39H149.75V351.23Z" fill="#CBDEF0"/>
<path d="M159.59 351.23H153.14V357.39H159.59V351.23Z" fill="#CBDEF0"/>
<path d="M169.44 351.23H162.99V357.39H169.44V351.23Z" fill="#CBDEF0"/>
<path d="M179.29 351.23H172.84V357.39H179.29V351.23Z" fill="#CBDEF0"/>
<path d="M189.14 351.23H182.69V357.39H189.14V351.23Z" fill="#CBDEF0"/>
<path d="M198.98 351.23H192.53V357.39H198.98V351.23Z" fill="#CBDEF0"/>
<path d="M139.9 362.94H133.45V369.1H139.9V362.94Z" fill="#CBDEF0"/>
<path d="M149.75 362.94H143.3V369.1H149.75V362.94Z" fill="#CBDEF0"/>
<path d="M159.59 362.94H153.14V369.1H159.59V362.94Z" fill="#CBDEF0"/>
<path d="M169.44 362.94H162.99V369.1H169.44V362.94Z" fill="#CBDEF0"/>
<path d="M179.29 362.94H172.84V369.1H179.29V362.94Z" fill="#CBDEF0"/>
<path d="M189.14 362.94H182.69V369.1H189.14V362.94Z" fill="#CBDEF0"/>
<path d="M198.98 362.94H192.53V369.1H198.98V362.94Z" fill="#CBDEF0"/>
<path d="M139.9 374.65H133.45V380.81H139.9V374.65Z" fill="#CBDEF0"/>
<path d="M149.75 374.65H143.3V380.81H149.75V374.65Z" fill="#CBDEF0"/>
<path d="M159.59 374.65H153.14V380.81H159.59V374.65Z" fill="#CBDEF0"/>
<path d="M169.44 374.65H162.99V380.81H169.44V374.65Z" fill="#CBDEF0"/>
<path d="M179.29 374.65H172.84V380.81H179.29V374.65Z" fill="#CBDEF0"/>
<path d="M189.14 374.65H182.69V380.81H189.14V374.65Z" fill="#CBDEF0"/>
<path d="M143.16 326.99C145.087 326.99 146.65 325.427 146.65 323.5C146.65 321.573 145.087 320.01 143.16 320.01C141.232 320.01 139.67 321.573 139.67 323.5C139.67 325.427 141.232 326.99 143.16 326.99Z" fill="#2C337C"/>
<path d="M190.82 326.99C192.748 326.99 194.31 325.427 194.31 323.5C194.31 321.573 192.748 320.01 190.82 320.01C188.893 320.01 187.33 321.573 187.33 323.5C187.33 325.427 188.893 326.99 190.82 326.99Z" fill="#2C337C"/>
<path d="M191.16 311.58H190.48C189.729 311.58 189.12 312.189 189.12 312.94V322.18C189.12 322.931 189.729 323.54 190.48 323.54H191.16C191.911 323.54 192.52 322.931 192.52 322.18V312.94C192.52 312.189 191.911 311.58 191.16 311.58Z" fill="#2A2F7D"/>
<path d="M126.87 331.92H204.48" stroke="#2C337C" stroke-width="3" stroke-linecap="round" stroke-linejoin="round"/>
<path d="M143.5 311.58H142.82C142.069 311.58 141.46 312.189 141.46 312.94V322.18C141.46 322.931 142.069 323.54 142.82 323.54H143.5C144.251 323.54 144.86 322.931 144.86 322.18V312.94C144.86 312.189 144.251 311.58 143.5 311.58Z" fill="#2A2F7D"/>
<path d="M145.53 354.29L143.49 351.45H145.43L146.5 352.94L147.58 351.45H149.52L147.48 354.29L149.54 357.16H147.6L146.51 355.64L145.42 357.16H143.48L145.55 354.29H145.53Z" fill="#2A2F7D"/>
<path d="M155.5 354.29L153.46 351.45H155.4L156.47 352.94L157.55 351.45H159.49L157.45 354.29L159.51 357.16H157.57L156.48 355.64L155.39 357.16H153.45L155.52 354.29H155.5Z" fill="#2A2F7D"/>
<path d="M165.48 354.29L163.44 351.45H165.38L166.45 352.94L167.53 351.45H169.47L167.43 354.29L169.49 357.16H167.55L166.46 355.64L165.37 357.16H163.43L165.5 354.29H165.48Z" fill="#2A2F7D"/>
<path d="M175.23 354.29L173.19 351.45H175.13L176.2 352.94L177.28 351.45H179.22L177.18 354.29L179.24 357.16H177.3L176.21 355.64L175.12 357.16H173.18L175.25 354.29H175.23Z" fill="#2A2F7D"/>
<path d="M151.73 441.09C157.872 441.09 162.85 436.111 162.85 429.97C162.85 423.829 157.872 418.85 151.73 418.85C145.589 418.85 140.61 423.829 140.61 429.97C140.61 436.111 145.589 441.09 151.73 441.09Z" stroke="#2A2F7D" stroke-width="3" stroke-linecap="round" stroke-linejoin="round"/>
<path d="M176.88 462.99L168.84 453.63C165.93 449.52 161.36 445.73 158.06 445.73H145.26C142.16 445.73 138.1 449.02 135.3 452.79L126.54 462.99C124.99 464.79 125.2 467.5 127 469.05C128.8 470.6 131.51 470.39 133.06 468.59L141.32 458.97L141.94 501.8C141.94 504.28 143.95 506.29 146.42 506.29C148.89 506.29 150.91 504.28 150.91 501.8V478.73C151.38 478.56 151.26 478.47 151.79 478.47C152.32 478.47 151.86 478.56 152.33 478.73V501.8C152.33 504.28 154.34 506.29 156.82 506.29C159.3 506.29 161.3 504.28 161.3 501.8L162.26 459.13L170.38 468.58C171.93 470.38 174.64 470.58 176.44 469.04C178.24 467.5 178.44 464.78 176.9 462.98L176.88 462.99Z" stroke="#2A2F7D" stroke-width="3" stroke-linecap="round" stroke-linejoin="round"/>
<path d="M186.2 436.69C192.341 436.69 197.32 431.711 197.32 425.57C197.32 419.429 192.341 414.45 186.2 414.45C180.059 414.45 175.08 419.429 175.08 425.57C175.08 431.711 180.059 436.69 186.2 436.69Z" stroke="#2A2F7D" stroke-width="3" stroke-linecap="round" stroke-linejoin="round"/>
<path d="M171.75 469.88L167.85 480.24H177.1V497.4C177.1 499.88 179.11 501.89 181.58 501.89C184.05 501.89 186.07 499.88 186.07 497.4V480.9C186.54 480.73 185.97 480.64 186.5 480.64C187.03 480.64 185.36 480.73 185.83 480.9L186.08 497.4C186.08 499.88 188.09 501.89 190.57 501.89C193.05 501.89 195.05 499.88 195.05 497.4V480.24H205.14L195.25 452.96L204.84 464.19C206.39 465.99 209.1 466.19 210.9 464.65C212.7 463.1 212.9 460.39 211.36 458.59L203.32 449.23C200.41 445.12 195.84 441.33 192.54 441.33H179.74C176.64 441.33 172.58 444.62 169.78 448.39L167.16 451.44" stroke="#2A2F7D" stroke-width="3" stroke-linecap="round" stroke-linejoin="round"/>
<path d="M173.36 457.58L178.61 451.65L175.13 460.9" stroke="#2A2F7D" stroke-width="3" stroke-linecap="round" stroke-linejoin="round"/>
<path d="M178.32 416.88C178.32 416.88 167.22 409.2 167.63 416.13C167.63 416.13 168.04 420.82 168.94 422.34C168.94 422.34 171.13 418.17 177.09 418.98" stroke="#2A2F7D" stroke-width="3" stroke-linecap="round" stroke-linejoin="round"/>
<path d="M193.81 416.88C193.81 416.88 204.91 409.2 204.5 416.13C204.5 416.13 204.09 420.82 203.19 422.34C203.19 422.34 201.39 418.08 195.44 418.9" stroke="#2A2F7D" stroke-width="3" stroke-linecap="round" stroke-linejoin="round"/>
<path d="M175.78 480.24H196.71" stroke="#2A2F7D" stroke-width="3" stroke-linecap="round" stroke-linejoin="round"/>
<path d="M141.92 469.92H161.21" stroke="#2A2F7D" stroke-width="3" stroke-linecap="round" stroke-linejoin="round"/>
<path d="M493.39 688.01V726.47" stroke="#2A2F7D" stroke-width="3" stroke-linecap="round" stroke-linejoin="round"/>
<path d="M505.93 688.01V726.47" stroke="#2A2F7D" stroke-width="3" stroke-linecap="round" stroke-linejoin="round"/>
<path d="M433.1 688.01V726.47" stroke="#2A2F7D" stroke-width="3" stroke-linecap="round" stroke-linejoin="round"/>
<path d="M445.63 688.01V726.47" stroke="#2A2F7D" stroke-width="3" stroke-linecap="round" stroke-linejoin="round"/>
<path d="M463.24 688.01V726.47" stroke="#2A2F7D" stroke-width="3" stroke-linecap="round" stroke-linejoin="round"/>
<path d="M475.78 688.01V726.47" stroke="#2A2F7D" stroke-width="3" stroke-linecap="round" stroke-linejoin="round"/>
<path d="M426.09 736.23V730.46H512.66V737.1L426.09 736.23Z" fill="#CADEF1"/>
<path d="M430.14 726.45H508.93C511.14 726.45 512.93 728.24 512.93 730.45V735.8H426.14V730.45C426.14 728.24 427.93 726.45 430.14 726.45Z" stroke="#2A2F7D" stroke-width="3" stroke-linecap="round" stroke-linejoin="round"/>
<path d="M432.88 682.2H505.7L469.29 658.25L432.88 682.2Z" fill="#CBDEF0"/>
<path d="M469.29 650.99L426.26 680.54L426.11 687.41H512.91L512.49 680.24L469.29 650.99Z" stroke="#2A2F7D" stroke-width="3" stroke-linecap="round" stroke-linejoin="round"/>
<path d="M233.84 647.68V656.97H267.55L271.54 647.68H233.84ZM256.81 654.87H248.58C247.77 654.87 247.12 654.22 247.12 653.41C247.12 652.6 247.77 651.95 248.58 651.95H256.81C257.62 651.95 258.27 652.6 258.27 653.41C258.27 654.22 257.62 654.87 256.81 654.87Z" fill="#CBDEF0"/>
<path d="M271.54 708.21H233.84V717.5H271.54V708.21Z" fill="#CBDEF0"/>
<path d="M255.81 678.6C255.81 678.2 255.94 677.87 256.27 677.54C256.01 676.88 255.34 676.48 254.29 676.35V681.64L254.62 681.71C255.22 681.84 255.81 682.04 256.34 682.17C256.94 682.3 257.33 682.5 257.6 682.63C257.86 682.76 258.13 682.96 258.46 683.23C258.72 683.49 258.99 683.76 259.25 684.09C259.85 684.88 260.18 685.74 260.18 686.8C260.18 687.79 259.92 688.72 259.32 689.58C258.79 690.44 258 691.1 257.07 691.5C256.74 691.7 256.34 691.83 255.88 691.96C255.42 692.09 254.89 692.22 254.36 692.36V694.28C254.36 694.94 253.96 695.34 253.17 695.34C252.38 695.34 251.98 695.01 251.98 694.28V692.36C250.06 692.16 248.54 691.63 247.41 690.77C246.35 689.91 245.76 688.79 245.76 687.33C245.76 686.54 245.96 685.87 246.42 685.35C246.88 684.82 247.41 684.62 248.14 684.62C248.6 684.62 249.07 684.75 249.4 685.08C249.73 685.41 249.93 685.81 249.93 686.27C249.93 686.73 249.86 687.06 249.67 687.33C249.47 687.59 249.14 687.73 248.68 687.86C248.81 688.46 249.21 688.92 249.74 689.32C250.27 689.65 251.06 689.85 251.92 689.98V683.96C251.13 683.76 250.53 683.56 250 683.36C249.47 683.23 249.14 683.1 248.94 682.96C248.61 682.83 248.28 682.63 248.01 682.36C247.68 682.1 247.48 681.9 247.28 681.63C246.82 680.97 246.62 680.17 246.62 679.25C246.62 678.79 246.69 678.26 246.82 677.79C246.95 677.33 247.15 676.86 247.42 676.47C247.68 676.07 248.02 675.68 248.35 675.41C248.75 675.08 249.14 674.81 249.54 674.62C249.87 674.49 250.2 674.36 250.6 674.22C251 674.09 251.46 674.02 251.86 673.89V672.1C251.86 671.31 252.26 670.91 253.05 670.91C253.84 670.91 254.24 671.31 254.24 672.1V673.89C255.83 674.15 257.09 674.62 258.01 675.41C258.94 676.14 259.4 677.06 259.4 678.12C259.4 678.72 259.2 679.18 258.87 679.51C258.47 679.91 258.08 680.04 257.48 680.04C257.02 680.04 256.55 679.91 256.22 679.58C256.02 679.38 255.82 679.05 255.82 678.59L255.81 678.6ZM249.45 678.87C249.45 679.47 249.65 679.93 249.98 680.19C250.38 680.52 250.97 680.79 251.83 681.05V676.42C251.04 676.55 250.44 676.82 250.04 677.21C249.71 677.67 249.44 678.2 249.44 678.86L249.45 678.87ZM251.9 681.05H251.97C252.04 681.05 252.17 681.12 252.23 681.12C252.29 681.12 252.36 681.19 252.43 681.19L251.9 681.52V681.06V681.05ZM254.28 684.42C254.15 684.35 254.02 684.35 253.75 684.35L254.28 684.02V684.42ZM257.13 687.07C257.13 686.34 256.93 685.75 256.47 685.35C256.01 684.95 255.28 684.69 254.29 684.49V689.98C254.69 689.91 255.02 689.85 255.35 689.72C255.68 689.59 255.95 689.39 256.21 689.12C256.81 688.59 257.14 687.86 257.14 687.07H257.13Z" fill="#2C337C"/>
<path d="M272.09 708.68V714.09C272.09 716.1 270.46 717.72 268.46 717.72H236.93C234.92 717.72 233.3 716.09 233.3 714.09V650.91C233.3 648.9 234.93 647.28 236.93 647.28H268.46C269.96 647.28 271.25 648.19 271.81 649.5" stroke="#2A2F7D" stroke-width="3" stroke-linecap="round" stroke-linejoin="round"/>
<path d="M272.09 662.2V668.19" stroke="#2A2F7D" stroke-width="3" stroke-linecap="round" stroke-linejoin="round"/>
<path d="M275.122 667.147L268.704 670.366C265.757 671.845 264.567 675.432 266.045 678.379L266.049 678.388C267.528 681.335 271.115 682.526 274.063 681.048L280.48 677.828C283.427 676.35 284.618 672.762 283.14 669.815L283.135 669.806C281.657 666.859 278.069 665.668 275.122 667.147Z" stroke="#2C337C" stroke-width="3" stroke-linecap="round" stroke-linejoin="round"/>
<path d="M277.123 647.636L270.705 650.855C267.758 652.333 266.567 655.921 268.046 658.868L268.05 658.877C269.529 661.824 273.116 663.015 276.063 661.536L282.481 658.317C285.428 656.839 286.619 653.251 285.14 650.304L285.136 650.295C283.658 647.348 280.07 646.157 277.123 647.636Z" stroke="#2C337C" stroke-width="3" stroke-linecap="round" stroke-linejoin="round"/>
<path d="M276.584 680.477L270.166 683.696C267.219 685.175 266.029 688.762 267.507 691.709L267.511 691.718C268.99 694.665 272.577 695.856 275.524 694.378L281.942 691.158C284.889 689.68 286.08 686.092 284.602 683.145L284.597 683.136C283.119 680.189 279.531 678.998 276.584 680.477Z" stroke="#2C337C" stroke-width="3" stroke-linecap="round" stroke-linejoin="round"/>
<path d="M276.188 694.019L269.77 697.238C266.823 698.717 265.632 702.304 267.11 705.251L267.115 705.26C268.593 708.207 272.181 709.398 275.128 707.92L281.546 704.7C284.493 703.222 285.684 699.634 284.205 696.687L284.201 696.678C282.722 693.731 279.135 692.54 276.188 694.019Z" stroke="#2C337C" stroke-width="3" stroke-linecap="round" stroke-linejoin="round"/>
<path d="M205.19 725.76L240.68 749.45L248.13 740.33L211.8 715.76L205.19 725.76Z" fill="#CBDEF0"/>
<path d="M208.793 713.857L199.86 727.131L239.184 753.595L248.117 740.321L208.793 713.857Z" stroke="#2C337C" stroke-width="3" stroke-linecap="round" stroke-linejoin="round"/>
<path d="M216.44 690.14C216.78 689.26 220.35 679.84 219.95 668.92C219.88 666.93 219.77 665.1 219.67 663.41C219.24 655.96 219.15 652.62 221.71 651.63C224.6 650.51 225.79 650.88 226.43 651.25C228.91 652.7 230.15 659.31 231.03 665.59C231.18 666.63 232.14 667.34 233.17 667.2C234.21 667.05 234.93 666.1 234.78 665.06C233.49 655.87 232.02 650.14 228.34 647.98C225.59 646.36 222.45 647.27 220.34 648.09C215.1 650.12 215.43 655.79 215.89 663.62C215.99 665.28 216.09 667.09 216.16 669.04C216.54 679.44 212.93 688.68 212.89 688.77C212.88 688.8 212.86 688.84 212.85 688.87C210.1 697.11 210.48 703.47 212.05 708.22L218.46 712.39C214.11 706.66 213.43 699.17 216.43 690.12L216.44 690.14Z" fill="#2C337C"/>
<path d="M261.29 722.56H256.2L248.04 731.66L251.26 733.75L261.29 722.56Z" fill="#2C337C"/>
<path d="M829.337 169.284C831.491 165.839 836.509 165.839 838.663 169.284L882.32 239.083C884.611 242.747 881.978 247.5 877.657 247.5H790.343C786.022 247.5 783.389 242.747 785.68 239.083L829.337 169.284Z" stroke="#001689" stroke-width="3"/>
<path d="M829.718 181.101C831.662 177.877 836.338 177.877 838.282 181.101L870.131 233.918C872.141 237.25 869.741 241.5 865.849 241.5H802.151C798.259 241.5 795.859 237.25 797.869 233.918L829.718 181.101Z" fill="#ACC4E5"/>
<path d="M827.228 191.212C827.105 189.476 828.48 188 830.22 188H837.817C839.544 188 840.914 189.454 840.812 191.177L839.275 217.177C839.181 218.762 837.868 220 836.28 220H832.065C830.491 220 829.184 218.783 829.072 217.212L827.228 191.212Z" fill="#001689"/>
<circle cx="834" cy="230" r="7" fill="#001689"/>
<path d="M1240.03 568H1157.57C1155.6 568 1154 569.598 1154 571.57V623.77C1154 625.742 1155.6 627.34 1157.57 627.34H1240.03C1242 627.34 1243.6 625.742 1243.6 623.77V571.57C1243.6 569.598 1242 568 1240.03 568Z" stroke="#2C337C" stroke-width="3" stroke-linecap="round" stroke-linejoin="round"/>
<path d="M1233.01 574H1163.99C1162.34 574 1161 575.293 1161 576.888V619.112C1161 620.707 1162.34 622 1163.99 622H1233.01C1234.66 622 1236 620.707 1236 619.112V576.888C1236 575.293 1234.66 574 1233.01 574Z" fill="#BDD9EE"/>
<path d="M1174.01 647.986C1188.5 647.586 1192.04 638.543 1192.05 633.096C1192.05 632.507 1192.51 632 1193.1 632H1203.97C1204.53 632 1204.98 632.47 1205 633.035C1205.31 644.389 1216.8 647.682 1223.5 647.978C1224.06 648.002 1224.5 648.448 1224.5 649V652.5C1224.5 653.052 1224.05 653.5 1223.5 653.5H1174C1173.45 653.5 1173 653.052 1173 652.5V649C1173 648.448 1173.46 648.001 1174.01 647.986Z" stroke="#2A2F7D" stroke-width="3"/>
<path d="M1203.04 591.983C1203.04 591.427 1203.27 590.929 1203.72 590.49C1203.31 589.523 1202.39 588.952 1200.93 588.791V596.289L1201.35 596.406C1202.16 596.611 1202.97 596.845 1203.77 597.08C1204.56 597.314 1205.13 597.533 1205.48 597.709C1205.87 597.914 1206.25 598.207 1206.65 598.559C1207.04 598.91 1207.4 599.32 1207.74 599.759C1208.57 600.858 1209 602.176 1209 603.699C1209 605.119 1208.62 606.452 1207.84 607.697C1207.06 608.941 1206.02 609.879 1204.72 610.479C1204.23 610.743 1203.67 610.977 1203.01 611.182C1202.36 611.387 1201.67 611.577 1200.93 611.738V614.506C1200.93 615.502 1200.36 616 1199.24 616C1198.12 616 1197.6 615.502 1197.6 614.506V611.782C1194.9 611.519 1192.79 610.757 1191.27 609.513C1189.75 608.268 1189 606.628 1189 604.607C1189 603.421 1189.3 602.469 1189.89 601.751C1190.49 601.033 1191.28 600.667 1192.28 600.667C1192.96 600.667 1193.55 600.902 1194.05 601.37C1194.55 601.839 1194.79 602.425 1194.79 603.113C1194.79 603.743 1194.66 604.241 1194.39 604.592C1194.12 604.944 1193.65 605.192 1193 605.324C1193.23 606.188 1193.74 606.877 1194.5 607.374C1195.28 607.872 1196.3 608.18 1197.58 608.282V599.642C1196.52 599.32 1195.61 599.056 1194.89 598.808C1194.16 598.559 1193.65 598.383 1193.38 598.251C1192.93 598.046 1192.49 597.768 1192.06 597.416C1191.64 597.079 1191.31 596.713 1191.06 596.347C1190.42 595.381 1190.11 594.224 1190.11 592.877C1190.11 592.174 1190.21 591.471 1190.42 590.812C1190.62 590.138 1190.91 589.523 1191.28 588.937C1191.65 588.366 1192.09 587.839 1192.62 587.385C1193.14 586.931 1193.71 586.55 1194.32 586.257C1194.76 586.052 1195.26 585.862 1195.81 585.701C1196.38 585.54 1196.97 585.393 1197.61 585.262V582.699C1197.61 581.571 1198.16 581 1199.26 581C1200.35 581 1200.94 581.571 1200.94 582.699V585.262C1203.13 585.598 1204.87 586.316 1206.18 587.414C1207.48 588.513 1208.12 589.816 1208.12 591.339C1208.12 592.159 1207.87 592.833 1207.35 593.374C1206.84 593.916 1206.21 594.18 1205.44 594.18C1204.76 594.18 1204.18 593.96 1203.72 593.536C1203.27 593.096 1203.04 592.584 1203.04 591.983ZM1194.22 592.291C1194.22 593.126 1194.48 593.785 1195 594.239C1195.52 594.692 1196.39 595.117 1197.61 595.483V588.776C1196.55 588.937 1195.71 589.333 1195.11 589.962C1194.52 590.592 1194.22 591.368 1194.22 592.291ZM1197.61 595.483C1197.61 595.483 1197.67 595.527 1197.72 595.527C1197.85 595.556 1197.96 595.586 1198.05 595.63C1198.13 595.674 1198.23 595.703 1198.33 595.732L1197.61 596.245V595.498V595.483ZM1200.94 600.345H1200.9C1200.77 600.287 1200.55 600.257 1200.22 600.228L1200.94 599.715V600.345ZM1204.87 604.08C1204.87 602.996 1204.56 602.176 1203.95 601.59C1203.34 601.019 1202.33 600.594 1200.93 600.331V608.224C1201.47 608.165 1201.94 608.033 1202.36 607.828C1202.79 607.623 1203.2 607.345 1203.61 606.994C1204.45 606.262 1204.87 605.28 1204.87 604.08Z" fill="#2A2F7D"/>
<g clip-path="url(#clip0_1_158)">
<path d="M388.554 440.503V491.074H279.157V440.503H388.554ZM388.554 437.515H279.157C277.421 437.515 276 438.859 276 440.503V491.074C276 492.717 277.421 494.062 279.157 494.062H388.554C390.291 494.062 391.712 492.717 391.712 491.074V440.503C391.712 438.859 390.291 437.515 388.554 437.515Z" fill="#2C337C"/>
<path d="M302 490.835L360.719 440H389V491L302 490.835Z" fill="#CADEF1"/>
<path d="M332.437 484.466C323.163 484.466 315.553 475.588 315.553 464.729C315.553 453.87 323.084 444.992 332.437 444.992C341.79 444.992 349.321 453.87 349.321 464.729C349.321 475.588 341.79 484.466 332.437 484.466ZM332.437 448.083C324.907 448.083 318.724 455.534 318.724 464.65C318.724 473.765 324.907 481.216 332.437 481.216C339.967 481.216 346.15 473.765 346.15 464.65C346.15 455.534 340.047 448.083 332.437 448.083Z" fill="#102E7D"/>
<path d="M390.37 438H277.63C276.734 438 276 438.766 276 439.702V492.298C276 493.234 276.734 494 277.63 494H390.37C391.266 494 392 493.234 392 492.298V439.702C392 438.766 391.266 438 390.37 438ZM279.261 458.085C287.657 457.319 294.342 450.255 294.994 441.404H372.68C373.332 450.34 380.18 457.489 388.821 458.085V474C380.261 474.596 373.414 481.66 372.68 490.596H294.994C294.342 481.83 287.657 474.766 279.261 474V458.085ZM388.739 454.681C381.973 454.085 376.512 448.468 375.859 441.404H388.739V454.681ZM291.733 441.404C291.162 448.383 285.864 453.915 279.261 454.681V441.404H291.733ZM279.261 477.404C285.864 478.17 291.081 483.702 291.733 490.596H279.261V477.404ZM375.859 490.596C376.512 483.532 381.973 478 388.739 477.404V490.596H375.859Z" fill="#2C337C"/>
</g>
<mask id="path-222-outside-1_1_158" maskUnits="userSpaceOnUse" x="370" y="411" width="43" height="69" fill="black">
<rect fill="white" x="370" y="411" width="43" height="69"/>
<path fill-rule="evenodd" clip-rule="evenodd" d="M392.703 415.441C392.307 414.853 391.442 414.853 391.045 415.441L375.173 438.972C374.725 439.636 375.201 440.531 376.002 440.531H386.374V472.937C386.374 474.145 387.1 475.124 387.994 475.124H394.954C395.849 475.124 396.574 474.145 396.574 472.937V440.531H407.747C408.548 440.531 409.024 439.636 408.576 438.972L392.703 415.441Z"/>
</mask>
<path fill-rule="evenodd" clip-rule="evenodd" d="M392.703 415.441C392.307 414.853 391.442 414.853 391.045 415.441L375.173 438.972C374.725 439.636 375.201 440.531 376.002 440.531H386.374V472.937C386.374 474.145 387.1 475.124 387.994 475.124H394.954C395.849 475.124 396.574 474.145 396.574 472.937V440.531H407.747C408.548 440.531 409.024 439.636 408.576 438.972L392.703 415.441Z" fill="#2C337C"/>
<path d="M391.045 415.441L387.729 413.204L387.729 413.204L391.045 415.441ZM392.703 415.441L396.02 413.204L396.02 413.204L392.703 415.441ZM375.173 438.972L371.857 436.735L371.857 436.735L375.173 438.972ZM386.374 440.531H390.374V436.531H386.374V440.531ZM396.574 440.531V436.531H392.574V440.531H396.574ZM408.576 438.972L411.892 436.735L411.892 436.735L408.576 438.972ZM394.362 417.678C393.172 419.441 390.577 419.441 389.387 417.678L396.02 413.204C394.037 410.265 389.712 410.265 387.729 413.204L394.362 417.678ZM378.489 441.209L394.362 417.678L387.729 413.204L371.857 436.735L378.489 441.209ZM376.002 436.531C378.405 436.531 379.833 439.216 378.489 441.209L371.857 436.735C369.616 440.056 371.996 444.531 376.002 444.531V436.531ZM386.374 436.531H376.002V444.531H386.374V436.531ZM382.374 440.531V472.937H390.374V440.531H382.374ZM382.374 472.937C382.374 474.312 382.782 475.713 383.635 476.865C384.488 478.015 385.985 479.124 387.994 479.124V471.124C389.11 471.124 389.797 471.743 390.063 472.102C390.33 472.462 390.374 472.771 390.374 472.937H382.374ZM387.994 479.124H394.954V471.124H387.994V479.124ZM394.954 479.124C396.964 479.124 398.461 478.015 399.314 476.865C400.167 475.713 400.574 474.312 400.574 472.937H392.574C392.574 472.771 392.619 472.462 392.886 472.102C393.152 471.743 393.839 471.124 394.954 471.124V479.124ZM400.574 472.937V440.531H392.574V472.937H400.574ZM407.747 436.531H396.574V444.531H407.747V436.531ZM405.26 441.209C403.916 439.216 405.344 436.531 407.747 436.531V444.531C411.753 444.531 414.132 440.056 411.892 436.735L405.26 441.209ZM389.387 417.678L405.26 441.209L411.892 436.735L396.02 413.204L389.387 417.678Z" fill="#F5F5F5" mask="url(#path-222-outside-1_1_158)"/>
<path d="M272 445V498H384.5" stroke="#2C337C" stroke-width="3" stroke-linecap="round"/>
<path d="M267 450V503H379.5" stroke="#2C337C" stroke-width="3" stroke-linecap="round"/>
<path d="M664.41 727.08L735.24 665.23H769.34V727.26L664.41 727.08Z" fill="#CADEF1"/>
<path d="M769.34 665.41H631V727.26H769.34V665.41Z" stroke="#2A2F7D" stroke-width="4" stroke-linecap="round" stroke-linejoin="round"/>
<path d="M650.38 665.82C650.38 676.47 641.74 685.11 631.09 685.11" stroke="#2A2F7D" stroke-width="4" stroke-linecap="round" stroke-linejoin="round"/>
<path d="M631.1 707.68C641.75 707.68 650.39 716.32 650.39 726.97" stroke="#2A2F7D" stroke-width="4" stroke-linecap="round" stroke-linejoin="round"/>
<path d="M768.77 685.11C758.12 685.11 749.48 676.47 749.48 665.82" stroke="#2A2F7D" stroke-width="4" stroke-linecap="round" stroke-linejoin="round"/>
<path d="M700.26 719.33C710.914 719.33 719.55 709.068 719.55 696.41C719.55 683.752 710.914 673.49 700.26 673.49C689.606 673.49 680.97 683.752 680.97 696.41C680.97 709.068 689.606 719.33 700.26 719.33Z" stroke="#2A2F7D" stroke-width="4" stroke-linecap="round" stroke-linejoin="round"/>
<path d="M749.48 726.97C749.48 716.32 758.12 707.68 768.77 707.68" stroke="#2A2F7D" stroke-width="4" stroke-linecap="round" stroke-linejoin="round"/>
<path d="M698.82 600.05V645.28L706.91 633.53L708.24 619.23L701.15 600.5L698.82 600.05Z" fill="#CADEF1"/>
<path d="M698.77 644.56C698.77 644.56 677.32 628.27 698.77 599C698.77 599 719.89 624.94 698.77 644.56Z" stroke="#2A2F7D" stroke-width="4" stroke-linecap="round" stroke-linejoin="round"/>
<path d="M663.02 624.38L696.49 653.92L692.28 654.92L680.2 652.04L670.33 644.83L665.24 632.86L663.02 624.38Z" fill="#CADEF1"/>
<path d="M734.07 624.38L700.6 653.92L704.81 654.92L716.89 652.04L726.76 644.83L731.85 632.86L734.07 624.38Z" fill="#CADEF1"/>
<path d="M697.56 654.9C697.56 654.9 668.54 660.24 663.02 624.38C663.02 624.38 698.62 626.1 697.56 654.9Z" stroke="#2A2F7D" stroke-width="4" stroke-linecap="round" stroke-linejoin="round"/>
<path d="M699.53 654.85C699.53 654.85 728.55 660.19 734.07 624.33C734.07 624.33 698.47 626.05 699.53 654.85Z" stroke="#2A2F7D" stroke-width="4" stroke-linecap="round" stroke-linejoin="round"/>
<path d="M742.67 438.66L710.91 485.05L774.43 454.79L742.67 438.66Z" fill="#CBDEF0"/>
<path d="M673 466.18L711.92 485.11L780.43 452.47L743.25 435L673 466.18Z" stroke="#2C337C" stroke-width="3" stroke-linecap="round" stroke-linejoin="round"/>
<path d="M777.26 471.92L712.29 503.17L676.58 485.88L673.33 487.23L712.25 507.17L780.76 473.53L777.26 471.92Z" fill="#2C337C" stroke="#2C337C" stroke-width="3" stroke-linecap="round" stroke-linejoin="round"/>
<path d="M777.26 461.11L712.29 492.37L676.58 475.07L673.33 476.43L712.25 496.36L780.76 462.72L777.26 461.11Z" fill="#2C337C" stroke="#2C337C" stroke-width="3" stroke-linecap="round" stroke-linejoin="round"/>
<path d="M702.6 480.06C704.25 476.15 707.4 474.21 711.92 474.21C716.17 474.21 719.85 476.64 721.64 480.18" stroke="#2A2F7D" stroke-width="3" stroke-linecap="round" stroke-linejoin="round"/>
<path d="M685.64 460.94C687.03 462.77 687.97 464.29 687.97 466.76C687.97 468.9 687.36 470.89 686.29 472.57" stroke="#2A2F7D" stroke-width="3" stroke-linecap="round" stroke-linejoin="round"/>
<path d="M751.82 438.99C750.05 442 747.12 443.47 743.15 443.47C739.43 443.47 736.99 442.16 735.02 439.32" stroke="#2A2F7D" stroke-width="3" stroke-linecap="round" stroke-linejoin="round"/>
<path d="M766.99 458.28C765.45 456.63 764.53 454.52 764.53 452.22C764.53 449.57 764.81 447.88 766.78 446.15" stroke="#2A2F7D" stroke-width="3" stroke-linecap="round" stroke-linejoin="round"/>
<path d="M736.23 454.4C741.88 457.82 742.5 462.61 737.62 465.1C732.74 467.59 724.21 466.83 718.56 463.42C712.91 460 712.29 455.21 717.17 452.72C722.05 450.23 730.58 450.99 736.23 454.4Z" stroke="#2A2F7D" stroke-width="3" stroke-linecap="round" stroke-linejoin="round"/>
<path d="M575.55 97.5901L536.09 111.78V117.33H506.16V111.23L467.92 97.8201L468.24 91.8301L507.75 106.39L512.37 108.01V111.72H530.84V107.35L541.74 104.25L575.12 92.16L575.55 97.5901Z" fill="#CADEF1"/>
<path d="M724.64 78.5601H730L736.91 91.9401H740.48V111.57H746.05L753.42 119.15V126.96L759.66 135.65H763.9V132.31H774.38V128.96L781.3 125.62H867.17V116.61L781.06 116.68L775.48 119.38V122.08H767.02V124.78H763.59L758.55 117.76V111.46L752.61 105.33H748.11V89.4901H745.23L739.65 78.6801H735.32V70.4001H731.72V55.5801H720.18V68.3001H724.64V78.5601Z" fill="#CADEF1"/>
<path d="M686.18 59.5801L676.86 53.2601V41.7301H686.18V59.5801Z" fill="#CADEF1"/>
<path d="M594.84 74.1001L645.38 34.6301L696.37 73.8701L692.82 79.6301L645.61 42.9401L598.63 79.6201L594.84 74.1001Z" fill="#CADEF1"/>
<path d="M686.16 74.4301V137.16H605.28V74.4301" stroke="#2A2F7D" stroke-width="4" stroke-linecap="round" stroke-linejoin="round"/>
<path d="M686.16 59.58V37.41H672.4V49.82" stroke="#2A2F7D" stroke-width="4" stroke-linecap="round" stroke-linejoin="round"/>
<path d="M692.82 79.63L645.58 42.94L598.63 79.62L591.86 70.95L645.56 29L699.57 70.94L692.82 79.63Z" stroke="#2A2F7D" stroke-width="4" stroke-linecap="round" stroke-linejoin="round"/>
<path d="M642.88 74.7001H622.93V94.6501H642.88V74.7001Z" fill="#CADEF1"/>
<path d="M668.49 74.7001H648.54V94.6501H668.49V74.7001Z" fill="#CADEF1"/>
<path d="M642.88 100.48H622.93V120.43H642.88V100.48Z" fill="#CADEF1"/>
<path d="M668.49 100.48H648.54V120.43H668.49V100.48Z" fill="#CADEF1"/>
<path d="M720.18 55.5801H867.17V125.62H781.3L774.38 128.96V132.31H763.9V135.65H759.66L753.42 126.96V119.15L746.05 111.57H740.48V91.9401H736.91L730 78.5601H724.64V68.3001H720.18V55.5801Z" stroke="#2A2F7D" stroke-width="4" stroke-linecap="round" stroke-linejoin="round"/>
<path d="M575.12 92.16V137.9H468.24V92.3801" stroke="#2A2F7D" stroke-width="4" stroke-linecap="round" stroke-linejoin="round"/>
<path d="M511.9 106.39H507.75L465 90.79V62.15H578.36V90.79L535.62 106.39H531.36" stroke="#2A2F7D" stroke-width="4" stroke-linecap="round" stroke-linejoin="round"/>
<path d="M530.84 100.57H512.51V111.72H530.84V100.57Z" stroke="#2A2F7D" stroke-width="3.56" stroke-linecap="round" stroke-linejoin="round"/>
<path d="M501.8 61.9V55.25C501.8 51.11 505.16 47.75 509.3 47.75H534.05C538.19 47.75 541.55 51.11 541.55 55.25V61.9M534.55 61.9V55.25C534.55 54.97 534.33 54.75 534.05 54.75H509.3C509.02 54.75 508.8 54.97 508.8 55.25V61.4" stroke="#2A2F7D" stroke-width="4" stroke-linecap="round" stroke-linejoin="round"/>
<path d="M470.02 66.2301V69.9901H573.22V66.1101L470.02 66.2301Z" fill="#CADEF1"/>
<path d="M1199.34 151.032L1181.79 152.499C1180.59 152.599 1179.57 151.656 1179.63 150.454C1180.14 139.44 1182.62 91.4966 1186.81 92.9216C1189.28 93.7606 1191.36 93.5539 1192.78 93.1009C1193.77 92.7816 1194.98 92.8848 1195.68 93.6603L1212.18 111.859C1215.37 116.272 1221.62 127.514 1221.2 137.174C1220.78 146.835 1206.45 150.438 1199.34 151.032Z" fill="#BDD9EE" stroke="#BDD9EE" stroke-width="4" stroke-linecap="round"/>
<path d="M1189.49 91.9507C1189.58 91.8565 1189.68 91.7595 1189.78 91.6598C1190.24 91.1928 1190.4 90.519 1190.28 89.8741C1187.52 74.7209 1201.94 53.9809 1200.95 55.0389L1187.97 67.2377C1187.43 67.7447 1186.64 67.9361 1185.99 67.5737C1182.05 65.3643 1182.43 59.8823 1182.8 57.5631C1182.9 56.8935 1182.48 56.2251 1182.35 56.8905C1181.61 60.7251 1185.18 82.6982 1186.56 90.9071C1186.8 92.354 1188.44 92.9778 1189.49 91.9507Z" fill="#BDD9EE" stroke="#BDD9EE" stroke-width="4" stroke-linecap="round"/>
<path d="M1168.72 88.3642C1167.72 74.4279 1145.51 43.1945 1169.62 65.2098C1170.6 66.1046 1172.2 65.8586 1172.81 64.6785L1173.15 64.0123C1182.21 46.4467 1183.88 58.1876 1186.23 63.9499C1186.7 65.1036 1188.11 65.1167 1188.9 64.1522C1208.78 39.8501 1200.46 62.109 1198.16 67.0314C1193.59 76.7826 1192.25 83.3813 1193.28 88.6727C1193.36 89.0713 1193.59 89.4426 1193.89 89.716C1248.62 139.524 1216.43 152.664 1193.41 153H1168.75C1115.43 147.395 1145.66 108.971 1168.05 89.8762C1168.5 89.4931 1168.76 88.9531 1168.72 88.3642Z" stroke="#2A2F7D" stroke-width="3" stroke-linecap="round"/>
<path d="M1185.8 112.52C1185.8 111.891 1185.98 111.372 1186.46 110.853C1186.09 109.814 1185.12 109.185 1183.6 108.981V117.303L1184.07 117.413C1184.94 117.617 1185.8 117.932 1186.56 118.137C1187.43 118.341 1188 118.656 1188.39 118.86C1188.76 119.065 1189.15 119.379 1189.63 119.804C1190.01 120.213 1190.4 120.638 1190.77 121.157C1191.64 122.4 1192.12 123.753 1192.12 125.42C1192.12 126.978 1191.74 128.441 1190.88 129.794C1190.11 131.147 1188.97 132.185 1187.62 132.814C1187.14 133.129 1186.56 133.334 1185.9 133.538C1185.23 133.743 1184.46 133.947 1183.7 134.167V137.188C1183.7 138.226 1183.12 138.856 1181.98 138.856C1180.83 138.856 1180.25 138.336 1180.25 137.188V134.167C1177.47 133.853 1175.27 133.019 1173.64 131.666C1172.11 130.313 1171.25 128.551 1171.25 126.254C1171.25 125.011 1171.54 123.957 1172.21 123.139C1172.87 122.306 1173.64 121.991 1174.7 121.991C1175.36 121.991 1176.04 122.195 1176.52 122.715C1177 123.234 1177.29 123.863 1177.29 124.587C1177.29 125.31 1177.18 125.83 1176.91 126.254C1176.62 126.663 1176.14 126.884 1175.48 127.088C1175.67 128.032 1176.24 128.756 1177.01 129.385C1177.78 129.904 1178.92 130.219 1180.17 130.423V120.953C1179.02 120.638 1178.15 120.323 1177.39 120.009C1176.62 119.804 1176.14 119.6 1175.85 119.379C1175.38 119.175 1174.9 118.86 1174.51 118.435C1174.03 118.026 1173.74 117.712 1173.45 117.287C1172.79 116.249 1172.5 114.99 1172.5 113.543C1172.5 112.819 1172.6 111.985 1172.79 111.246C1172.97 110.522 1173.26 109.783 1173.65 109.169C1174.03 108.54 1174.52 107.927 1175 107.502C1175.58 106.983 1176.14 106.558 1176.72 106.259C1177.2 106.055 1177.68 105.85 1178.26 105.63C1178.83 105.425 1179.5 105.315 1180.08 105.111V102.295C1180.08 101.052 1180.66 100.422 1181.8 100.422C1182.94 100.422 1183.52 101.052 1183.52 102.295V105.111C1185.82 105.52 1187.65 106.259 1188.98 107.502C1190.33 108.65 1190.99 110.098 1190.99 111.765C1190.99 112.709 1190.7 113.433 1190.22 113.952C1189.65 114.581 1189.08 114.786 1188.21 114.786C1187.55 114.786 1186.87 114.581 1186.39 114.062C1186.1 113.747 1185.81 113.228 1185.81 112.505L1185.8 112.52ZM1176.59 112.945C1176.59 113.889 1176.88 114.613 1177.36 115.022C1177.94 115.541 1178.79 115.966 1180.04 116.375V109.091C1178.89 109.295 1178.02 109.72 1177.45 110.334C1176.97 111.057 1176.58 111.891 1176.58 112.929L1176.59 112.945ZM1180.14 116.375H1180.24C1180.34 116.375 1180.53 116.485 1180.61 116.485C1180.7 116.485 1180.8 116.595 1180.9 116.595L1180.14 117.114V116.39V116.375ZM1183.58 121.676C1183.39 121.566 1183.21 121.566 1182.81 121.566L1183.58 121.047V121.676ZM1187.71 125.845C1187.71 124.697 1187.42 123.769 1186.75 123.139C1186.09 122.51 1185.03 122.101 1183.6 121.786V130.423C1184.17 130.313 1184.65 130.219 1185.13 130.014C1185.61 129.81 1186 129.495 1186.37 129.07C1187.24 128.236 1187.72 127.088 1187.72 125.845H1187.71Z" fill="#2C337C"/>
<path d="M1169.35 88.44C1173.46 91.4742 1184.34 95.7221 1194.97 88.44M1194.97 88.44C1205.59 81.158 1214.57 82.0345 1217.73 83.3831M1194.97 88.44C1198.44 86.4172 1207.3 84.3943 1214.89 92.4854" stroke="#2A2F7D" stroke-width="4" stroke-linecap="round"/>
<path d="M1152.39 203.712H1217.03L1215.24 192.222L1126.71 206.022L1128.72 218.922L1148.83 215.792V207.282C1148.83 205.312 1150.43 203.712 1152.4 203.712H1152.39Z" fill="#BDD9EE"/>
<path d="M1221.87 252.152C1226.51 252.152 1230.26 248.396 1230.26 243.762C1230.26 239.128 1226.51 235.372 1221.87 235.372C1217.24 235.372 1213.48 239.128 1213.48 243.762C1213.48 248.396 1217.24 252.152 1221.87 252.152Z" fill="#2C337C"/>
<path d="M1194.64 237.892H1155.61V242.512H1194.64V237.892Z" fill="#BDD9EE"/>
<path d="M1185.66 246.072H1155.61V250.692H1185.66V246.072Z" fill="#BDD9EE"/>
<path d="M1156.63 228.032C1156.63 229.182 1157.56 230.112 1158.71 230.112H1174.33C1175.48 230.112 1176.41 229.182 1176.41 228.032V226.452H1156.63V228.032Z" fill="#2A2F7D"/>
<path d="M1174.33 213.502H1158.71C1157.56 213.502 1156.63 214.432 1156.63 215.582V217.262H1176.41V215.582C1176.41 214.432 1175.48 213.502 1174.33 213.502Z" fill="#2A2F7D"/>
<path d="M1169.37 218.642H1163.57V225.072H1169.37V218.642Z" fill="#2A2F7D"/>
<path d="M1162.38 218.642H1156.63V225.072H1162.38V218.642Z" fill="#2A2F7D"/>
<path d="M1176.41 218.642H1170.56V225.072H1176.41V218.642Z" fill="#2A2F7D"/>
<path d="M1148.94 254.702L1138.16 256.382C1136.21 256.682 1134.39 255.352 1134.08 253.402L1126.04 201.822C1125.74 199.872 1127.07 198.052 1129.02 197.742L1210.5 185.042C1212.45 184.742 1214.27 186.072 1214.58 188.022L1217 203.532" stroke="#2C337C" stroke-width="3" stroke-linecap="round" stroke-linejoin="round"/>
<path d="M1234.85 203.712H1152.39C1150.42 203.712 1148.82 205.311 1148.82 207.282V259.482C1148.82 261.454 1150.42 263.052 1152.39 263.052H1234.85C1236.82 263.052 1238.42 261.454 1238.42 259.482V207.282C1238.42 205.311 1236.82 203.712 1234.85 203.712Z" stroke="#2C337C" stroke-width="3" stroke-linecap="round" stroke-linejoin="round"/>
<path d="M1207.76 252.152C1212.4 252.152 1216.15 248.396 1216.15 243.762C1216.15 239.128 1212.4 235.372 1207.76 235.372C1203.13 235.372 1199.37 239.128 1199.37 243.762C1199.37 248.396 1203.13 252.152 1207.76 252.152Z" fill="#CBDEF0"/>
<path d="M1181.82 363.49C1180.53 363.56 1179.2 363.59 1177.83 363.59C1167.26 363.59 1158.69 361.5 1158.69 358.91L1177.07 360.3L1182.14 359.72L1181.81 363.48L1181.82 363.49Z" fill="#CBDEF0"/>
<path d="M1181.99 369.06C1180.7 369.13 1179.37 369.16 1178 369.16C1167.43 369.16 1155.63 365.55 1155.63 362.97L1177.25 365.88L1182.32 365.3L1181.99 369.06Z" fill="#CBDEF0"/>
<path d="M1187.8 378.18C1186.51 378.25 1181.15 378.85 1177.32 378.76C1166.75 378.53 1155.62 375.44 1155.62 372.86L1177.24 375.77L1182.31 375.19L1187.8 378.18Z" fill="#CBDEF0"/>
<path d="M1171.6 352.37C1182.17 352.37 1190.74 350.275 1190.74 347.69C1190.74 345.105 1182.17 343.01 1171.6 343.01C1161.03 343.01 1152.46 345.105 1152.46 347.69C1152.46 350.275 1161.03 352.37 1171.6 352.37Z" fill="#CBDEF0"/>
<path d="M1204.16 339C1191.69 339 1181.59 349.11 1181.59 361.57C1181.59 374.03 1191.7 384.14 1204.16 384.14C1216.62 384.14 1226.73 374.03 1226.73 361.57C1226.73 349.11 1216.62 339 1204.16 339ZM1204.16 377.83C1195.19 377.83 1187.91 370.56 1187.91 361.58C1187.91 352.6 1195.18 345.33 1204.16 345.33C1213.14 345.33 1220.41 352.6 1220.41 361.58C1220.41 370.56 1213.14 377.83 1204.16 377.83Z" fill="#CBDEF0"/>
<path d="M1204.16 384.15C1216.62 384.15 1226.73 374.045 1226.73 361.58C1226.73 349.115 1216.62 339.01 1204.16 339.01C1191.69 339.01 1181.59 349.115 1181.59 361.58C1181.59 374.045 1191.69 384.15 1204.16 384.15Z" stroke="#2A2F7D" stroke-width="3" stroke-linecap="round" stroke-linejoin="round"/>
<path d="M1204.16 377.83C1213.13 377.83 1220.41 370.555 1220.41 361.58C1220.41 352.605 1213.13 345.33 1204.16 345.33C1195.19 345.33 1187.91 352.605 1187.91 361.58C1187.91 370.555 1195.19 377.83 1204.16 377.83Z" stroke="#2A2F7D" stroke-width="3" stroke-linecap="round" stroke-linejoin="round"/>
<path d="M1206.54 357.79C1206.54 357.46 1206.65 357.18 1206.93 356.91C1206.71 356.36 1206.16 356.03 1205.27 355.92V360.34L1205.55 360.4C1206.05 360.51 1206.54 360.68 1206.99 360.79C1207.49 360.9 1207.82 361.07 1208.04 361.18C1208.26 361.29 1208.48 361.46 1208.76 361.68C1208.98 361.9 1209.2 362.12 1209.42 362.4C1209.92 363.06 1210.19 363.78 1210.19 364.67C1210.19 365.5 1209.97 366.27 1209.47 366.99C1209.03 367.71 1208.37 368.26 1207.59 368.59C1207.31 368.76 1206.98 368.87 1206.6 368.98C1206.21 369.09 1205.77 369.2 1205.33 369.31V370.91C1205.33 371.46 1205 371.79 1204.34 371.79C1203.68 371.79 1203.35 371.51 1203.35 370.91V369.31C1201.75 369.14 1200.48 368.7 1199.54 367.98C1198.66 367.26 1198.16 366.32 1198.16 365.11C1198.16 364.45 1198.33 363.89 1198.71 363.45C1199.1 363.01 1199.54 362.84 1200.15 362.84C1200.54 362.84 1200.92 362.95 1201.2 363.23C1201.48 363.51 1201.64 363.84 1201.64 364.22C1201.64 364.6 1201.58 364.88 1201.42 365.1C1201.25 365.32 1200.98 365.43 1200.59 365.54C1200.7 366.04 1201.03 366.42 1201.47 366.76C1201.91 367.04 1202.57 367.2 1203.29 367.31V362.28C1202.63 362.11 1202.13 361.95 1201.69 361.78C1201.25 361.67 1200.97 361.56 1200.81 361.45C1200.53 361.34 1200.26 361.17 1200.04 360.95C1199.76 360.73 1199.6 360.56 1199.43 360.34C1199.04 359.79 1198.88 359.12 1198.88 358.35C1198.88 357.96 1198.94 357.52 1199.05 357.13C1199.16 356.74 1199.33 356.36 1199.55 356.03C1199.77 355.7 1200.05 355.37 1200.32 355.15C1200.65 354.87 1200.98 354.65 1201.31 354.49C1201.59 354.38 1201.86 354.27 1202.19 354.16C1202.52 354.05 1202.91 353.99 1203.24 353.88V352.39C1203.24 351.73 1203.57 351.4 1204.23 351.4C1204.89 351.4 1205.22 351.73 1205.22 352.39V353.88C1206.55 354.1 1207.6 354.49 1208.37 355.15C1209.14 355.76 1209.53 356.53 1209.53 357.42C1209.53 357.92 1209.36 358.3 1209.09 358.58C1208.76 358.91 1208.43 359.02 1207.93 359.02C1207.54 359.02 1207.16 358.91 1206.88 358.63C1206.71 358.46 1206.55 358.19 1206.55 357.8L1206.54 357.79ZM1201.24 358.01C1201.24 358.51 1201.41 358.89 1201.68 359.11C1202.01 359.39 1202.51 359.61 1203.23 359.83V355.96C1202.57 356.07 1202.07 356.29 1201.74 356.62C1201.46 357.01 1201.24 357.45 1201.24 358V358.01ZM1203.28 359.84H1203.34C1203.4 359.84 1203.51 359.9 1203.56 359.9C1203.61 359.9 1203.67 359.96 1203.73 359.96L1203.29 360.24V359.85L1203.28 359.84ZM1205.27 362.66C1205.16 362.6 1205.05 362.6 1204.83 362.6L1205.27 362.32V362.65V362.66ZM1207.65 364.87C1207.65 364.26 1207.48 363.77 1207.1 363.43C1206.71 363.1 1206.11 362.88 1205.28 362.71V367.3C1205.61 367.24 1205.89 367.19 1206.16 367.08C1206.43 366.97 1206.66 366.8 1206.88 366.58C1207.38 366.14 1207.65 365.53 1207.65 364.87Z" fill="#2C337C"/>
<path d="M1182.72 354C1179.45 354.59 1175.69 354.92 1171.68 354.92C1159.16 354.92 1149 351.64 1149 347.6C1149 343.56 1159.15 340.28 1171.68 340.28C1179.22 340.28 1185.9 341.47 1190.02 343.29" stroke="#2A2F7D" stroke-width="3" stroke-linecap="round" stroke-linejoin="round"/>
<path d="M1181.33 359.59C1178.41 360.01 1175.14 360.25 1171.68 360.25C1159.16 360.25 1149 356.97 1149 352.93V347.61" stroke="#2A2F7D" stroke-width="3" stroke-linecap="round" stroke-linejoin="round"/>
<path d="M1167.77 346.41C1167.44 346.41 1167.16 346.36 1166.89 346.25C1166.34 346.34 1166.01 346.58 1165.9 346.95H1170.32L1170.38 346.83C1170.49 346.62 1170.66 346.41 1170.77 346.22C1170.88 346.01 1171.05 345.87 1171.16 345.78C1171.27 345.69 1171.44 345.59 1171.66 345.48C1171.88 345.39 1172.1 345.29 1172.38 345.2C1173.04 344.99 1173.76 344.87 1174.65 344.87C1175.48 344.87 1176.25 344.96 1176.97 345.17C1177.69 345.36 1178.24 345.64 1178.57 345.96C1178.74 346.08 1178.85 346.22 1178.96 346.38C1179.07 346.54 1179.18 346.73 1179.29 346.92H1180.89C1181.44 346.92 1181.77 347.06 1181.77 347.34C1181.77 347.62 1181.49 347.76 1180.89 347.76H1179.29C1179.12 348.44 1178.68 348.97 1177.96 349.37C1177.24 349.74 1176.3 349.95 1175.09 349.95C1174.43 349.95 1173.87 349.88 1173.43 349.72C1172.99 349.56 1172.82 349.37 1172.82 349.11C1172.82 348.95 1172.93 348.78 1173.21 348.67C1173.49 348.56 1173.82 348.48 1174.2 348.48C1174.58 348.48 1174.86 348.5 1175.08 348.57C1175.3 348.64 1175.41 348.76 1175.52 348.92C1176.02 348.87 1176.4 348.73 1176.74 348.55C1177.02 348.36 1177.18 348.08 1177.29 347.78H1172.26C1172.09 348.06 1171.93 348.27 1171.76 348.46C1171.65 348.65 1171.54 348.76 1171.43 348.83C1171.32 348.95 1171.15 349.06 1170.93 349.16C1170.71 349.28 1170.54 349.35 1170.32 349.42C1169.77 349.58 1169.1 349.65 1168.33 349.65C1167.94 349.65 1167.5 349.63 1167.11 349.58C1166.72 349.53 1166.34 349.46 1166.01 349.37C1165.68 349.28 1165.35 349.16 1165.13 349.04C1164.85 348.9 1164.63 348.76 1164.47 348.62C1164.36 348.5 1164.25 348.39 1164.14 348.25C1164.03 348.11 1163.97 347.95 1163.86 347.81H1162.37C1161.71 347.81 1161.38 347.67 1161.38 347.39C1161.38 347.11 1161.71 346.97 1162.37 346.97H1163.86C1164.08 346.41 1164.47 345.97 1165.13 345.64C1165.74 345.31 1166.51 345.15 1167.4 345.15C1167.9 345.15 1168.28 345.22 1168.56 345.34C1168.89 345.48 1169 345.62 1169 345.83C1169 346.04 1168.89 346.16 1168.61 346.27C1168.44 346.34 1168.17 346.41 1167.78 346.41H1167.77ZM1167.99 348.65C1168.49 348.65 1168.87 348.58 1169.09 348.46C1169.37 348.32 1169.59 348.11 1169.81 347.81H1165.94C1166.05 348.09 1166.27 348.3 1166.6 348.44C1166.99 348.56 1167.43 348.65 1167.98 348.65H1167.99ZM1169.81 347.79V347.77C1169.81 347.77 1169.87 347.7 1169.87 347.68C1169.87 347.66 1169.93 347.63 1169.93 347.61L1170.21 347.8H1169.82L1169.81 347.79ZM1172.63 346.95C1172.57 347 1172.57 347.04 1172.57 347.14L1172.29 346.95H1172.62H1172.63ZM1174.84 345.94C1174.23 345.94 1173.74 346.01 1173.4 346.17C1173.07 346.33 1172.85 346.59 1172.68 346.94H1177.27C1177.21 346.8 1177.16 346.68 1177.05 346.57C1176.94 346.46 1176.77 346.36 1176.55 346.27C1176.11 346.06 1175.5 345.94 1174.84 345.94Z" fill="#2C337C"/>
<path d="M1181.89 366.08C1180.38 366.18 1178.82 366.23 1177.23 366.23C1164.71 366.23 1154.55 362.95 1154.55 358.91C1154.55 358.66 1154.59 358.41 1154.67 358.16" stroke="#2A2F7D" stroke-width="3" stroke-linecap="round" stroke-linejoin="round"/>
<path d="M1154.55 358.92V364.24C1154.55 368.28 1164.7 371.56 1177.23 371.56C1179.49 371.56 1181.67 371.46 1183.73 371.27" stroke="#2A2F7D" stroke-width="3" stroke-linecap="round" stroke-linejoin="round"/>
<path d="M1186.22 375.39C1183.46 375.77 1180.42 375.99 1177.23 375.99C1164.71 375.99 1154.55 372.71 1154.55 368.67C1154.55 368.42 1154.59 368.17 1154.67 367.92" stroke="#2A2F7D" stroke-width="3" stroke-linecap="round" stroke-linejoin="round"/>
<path d="M1154.55 368.67V373.99C1154.55 378.03 1164.7 381.31 1177.23 381.31C1182.24 381.31 1186.86 380.82 1190.6 379.97" stroke="#2A2F7D" stroke-width="3" stroke-linecap="round" stroke-linejoin="round"/>
<path d="M1250.52 471.97H1139.45V505.89H1250.52V471.97Z" fill="white"/>
<path d="M1159.41 522.85L1230.24 461H1264.34V523.03L1159.41 522.85Z" fill="#CADEF1"/>
<path d="M1264.34 461.18H1126V523.03H1264.34V461.18Z" stroke="#2A2F7D" stroke-width="4" stroke-linecap="round" stroke-linejoin="round"/>
<path d="M1275.65 473.15V535H1137.31" stroke="#2A2F7D" stroke-width="4" stroke-linecap="round" stroke-linejoin="round"/>
<path d="M1145.38 461.59C1145.38 472.24 1136.74 480.88 1126.09 480.88" stroke="#2A2F7D" stroke-width="4" stroke-linecap="round" stroke-linejoin="round"/>
<path d="M1126.09 503.45C1136.74 503.45 1145.38 512.09 1145.38 522.74" stroke="#2A2F7D" stroke-width="4" stroke-linecap="round" stroke-linejoin="round"/>
<path d="M1263.77 480.87C1253.12 480.87 1244.48 472.23 1244.48 461.58" stroke="#2A2F7D" stroke-width="4" stroke-linecap="round" stroke-linejoin="round"/>
<path d="M1195.26 515.1C1205.91 515.1 1214.55 504.838 1214.55 492.18C1214.55 479.522 1205.91 469.26 1195.26 469.26C1184.61 469.26 1175.97 479.522 1175.97 492.18C1175.97 504.838 1184.61 515.1 1195.26 515.1Z" stroke="#2A2F7D" stroke-width="4" stroke-linecap="round" stroke-linejoin="round"/>
<path d="M1244.48 522.73C1244.48 512.08 1253.12 503.44 1263.77 503.44" stroke="#2A2F7D" stroke-width="4" stroke-linecap="round" stroke-linejoin="round"/>
<path d="M1035.92 126.41C1034.67 125.87 1033.51 125.17 1032.48 124.31C1033.44 125.13 1034.57 125.85 1035.92 126.41Z" fill="#CADEF1"/>
<path d="M1032.47 124.31C1032.26 124.14 1032.07 123.95 1031.87 123.77C1032.06 123.96 1032.26 124.14 1032.47 124.31Z" fill="#CADEF1"/>
<path d="M931.364 113.4C931.364 113.4 931.364 113.34 931.364 113.3C931.364 105.42 937.754 99.03 945.634 99.03C953.514 99.03 959.904 105.42 959.904 113.3H966.974C966.974 113.2 966.964 113.1 966.954 113L1019.72 113.26C1019.72 113.26 1019.72 113.29 1019.72 113.3H1027.28C1027.28 105.42 1033.67 99.03 1041.55 99.03C1049.43 99.03 1055.82 105.42 1055.82 113.3H1062.98L1067.3 111.81L1069.63 99.84H1057.62C1053.71 95.03 1047.75 91.96 1041.07 91.96C1034.39 91.96 1028.43 95.03 1024.52 99.84H962.194C958.284 95.03 952.324 91.96 945.644 91.96C938.964 91.96 933.004 95.03 929.094 99.84H916.014C915.704 105.65 920.594 109.21 924.414 111.1C924.404 111.24 924.394 111.38 924.384 111.52C925.774 111.96 927.474 112.35 929.314 112.48C929.314 112.48 930.664 112.15 931.374 113.4H931.364Z" fill="#CADEF1"/>
<path d="M926.084 80.28H921.004C919.33 80.28 917.974 81.6366 917.974 83.31V84.37C917.974 86.0434 919.33 87.4 921.004 87.4H926.084C927.757 87.4 929.114 86.0434 929.114 84.37V83.31C929.114 81.6366 927.757 80.28 926.084 80.28Z" fill="#2A2F7D"/>
<path d="M1066.93 87.4399H1061.85C1060.18 87.4399 1058.82 88.7965 1058.82 90.4699V91.5299C1058.82 93.2034 1060.18 94.5599 1061.85 94.5599H1066.93C1068.61 94.5599 1069.96 93.2034 1069.96 91.5299V90.4699C1069.96 88.7965 1068.61 87.4399 1066.93 87.4399Z" fill="#2A2F7D"/>
<path d="M1002.48 84.34H998.654C997.268 84.34 996.144 85.4637 996.144 86.85V87.97C996.144 89.3562 997.268 90.48 998.654 90.48H1002.48C1003.87 90.48 1004.99 89.3562 1004.99 87.97V86.85C1004.99 85.4637 1003.87 84.34 1002.48 84.34Z" fill="#2A2F7D"/>
<path d="M961.094 113.15H1026.72" stroke="#2A2F7D" stroke-width="4" stroke-linecap="round" stroke-linejoin="round"/>
<path d="M1056.75 113.3H1064.02C1064.02 113.3 1069.83 113.01 1069.57 102.05V86.42C1069.57 86.42 1070.36 76.49 1039.18 73.13" stroke="#2A2F7D" stroke-width="4" stroke-linecap="round" stroke-linejoin="round"/>
<path d="M945.634 120.57C949.649 120.57 952.904 117.315 952.904 113.3C952.904 109.285 949.649 106.03 945.634 106.03C941.619 106.03 938.364 109.285 938.364 113.3C938.364 117.315 941.619 120.57 945.634 120.57Z" fill="#CADEF1"/>
<path d="M945.634 127.57C953.515 127.57 959.904 121.181 959.904 113.3C959.904 105.419 953.515 99.03 945.634 99.03C937.753 99.03 931.364 105.419 931.364 113.3C931.364 121.181 937.753 127.57 945.634 127.57Z" stroke="#2A2F7D" stroke-width="4" stroke-linecap="round" stroke-linejoin="round"/>
<path d="M1041.55 120.57C1045.57 120.57 1048.82 117.315 1048.82 113.3C1048.82 109.285 1045.57 106.03 1041.55 106.03C1037.54 106.03 1034.28 109.285 1034.28 113.3C1034.28 117.315 1037.54 120.57 1041.55 120.57Z" fill="#CADEF1"/>
<path d="M1041.55 127.57C1049.44 127.57 1055.82 121.181 1055.82 113.3C1055.82 105.419 1049.44 99.03 1041.55 99.03C1033.67 99.03 1027.28 105.419 1027.28 113.3C1027.28 121.181 1033.67 127.57 1041.55 127.57Z" stroke="#2A2F7D" stroke-width="4" stroke-linecap="round" stroke-linejoin="round"/>
<path d="M971.934 43.16L959.384 73.18L1036 72.47L1029.56 61.6L1009.45 46.61L989.234 42L971.934 43.16Z" fill="#CADEF1"/>
<path d="M989.234 51.79V72.1" stroke="#2A2F7D" stroke-width="4" stroke-linecap="round" stroke-linejoin="round"/>
<path d="M968.094 53.11L959.634 72.69C959.634 72.69 1039.17 72.25 1039.17 73.13C1039.17 73.13 1029 61.26 1017.08 50.71C1007.69 42.4 991.864 42.74 991.864 42.74L968.444 42.65C959.964 42.65 952.224 50.05 952.224 50.05L932.664 68.46H925.394C925.394 68.46 919.054 68.75 919.184 75.91V82.92C919.184 82.92 907.394 112.44 930.384 112.58" stroke="#2A2F7D" stroke-width="4" stroke-linecap="round" stroke-linejoin="round"/>
<path d="M1026.47 66.82L1011.51 52.19C1010.72 51.42 1009.45 51.43 1008.68 52.22C1007.91 53.01 1007.92 54.28 1008.71 55.05L1021.11 67.17H1026.75C1026.67 67.05 1026.58 66.93 1026.47 66.82Z" fill="white"/>
<path d="M986.65 249.32L995.75 291.02L1007.45 289.62L998.35 246.72L986.65 249.32Z" fill="#CBDEF0"/>
<path d="M1046.05 194.02C1046.05 193.42 1046.25 192.92 1046.75 192.42C1046.35 191.42 1045.35 190.82 1043.75 190.62V198.62L1044.25 198.72C1045.15 198.92 1046.05 199.22 1046.85 199.42C1047.75 199.62 1048.35 199.92 1048.75 200.12C1049.15 200.32 1049.55 200.62 1050.05 201.02C1050.45 201.42 1050.85 201.82 1051.25 202.32C1052.15 203.52 1052.65 204.82 1052.65 206.42C1052.65 207.92 1052.25 209.32 1051.35 210.62C1050.55 211.92 1049.35 212.92 1047.95 213.52C1047.45 213.82 1046.85 214.02 1046.15 214.22C1045.45 214.42 1044.65 214.62 1043.85 214.82V217.72C1043.85 218.72 1043.25 219.32 1042.05 219.32C1040.85 219.32 1040.25 218.82 1040.25 217.72V214.82C1037.35 214.52 1035.05 213.72 1033.35 212.42C1031.75 211.12 1030.85 209.42 1030.85 207.22C1030.85 206.02 1031.15 205.02 1031.85 204.22C1032.55 203.42 1033.35 203.12 1034.45 203.12C1035.15 203.12 1035.85 203.32 1036.35 203.82C1036.85 204.32 1037.15 204.92 1037.15 205.62C1037.15 206.32 1037.05 206.82 1036.75 207.22C1036.45 207.62 1035.95 207.82 1035.25 208.02C1035.45 208.92 1036.05 209.62 1036.85 210.22C1037.65 210.72 1038.85 211.02 1040.15 211.22V202.12C1038.95 201.82 1038.05 201.52 1037.25 201.22C1036.45 201.02 1035.95 200.82 1035.65 200.62C1035.15 200.42 1034.65 200.12 1034.25 199.72C1033.75 199.32 1033.45 199.02 1033.15 198.62C1032.45 197.62 1032.15 196.42 1032.15 195.02C1032.15 194.32 1032.25 193.52 1032.45 192.82C1032.65 192.12 1032.95 191.42 1033.35 190.82C1033.75 190.22 1034.25 189.62 1034.75 189.22C1035.35 188.72 1035.95 188.32 1036.55 188.02C1037.05 187.82 1037.55 187.62 1038.15 187.42C1038.75 187.22 1039.45 187.12 1040.05 186.92V184.22C1040.05 183.02 1040.65 182.42 1041.85 182.42C1043.05 182.42 1043.65 183.02 1043.65 184.22V186.92C1046.05 187.32 1047.95 188.02 1049.35 189.22C1050.75 190.32 1051.45 191.72 1051.45 193.32C1051.45 194.22 1051.15 194.92 1050.65 195.42C1050.05 196.02 1049.45 196.22 1048.55 196.22C1047.85 196.22 1047.15 196.02 1046.65 195.52C1046.35 195.22 1046.05 194.72 1046.05 194.02ZM1036.45 194.42C1036.45 195.32 1036.75 196.02 1037.25 196.42C1037.85 196.92 1038.75 197.32 1040.05 197.72V190.72C1038.85 190.92 1037.95 191.32 1037.35 191.92C1036.85 192.62 1036.45 193.42 1036.45 194.42ZM1040.15 197.72H1040.25C1040.35 197.72 1040.55 197.82 1040.65 197.82C1040.75 197.82 1040.85 197.92 1040.95 197.92L1040.15 198.42V197.72ZM1043.75 202.82C1043.55 202.72 1043.35 202.72 1042.95 202.72L1043.75 202.22V202.82ZM1048.05 206.82C1048.05 205.72 1047.75 204.82 1047.05 204.22C1046.35 203.62 1045.25 203.22 1043.75 202.92V211.22C1044.35 211.12 1044.85 211.02 1045.35 210.82C1045.85 210.62 1046.25 210.32 1046.65 209.92C1047.55 209.12 1048.05 208.02 1048.05 206.82Z" fill="#2C337C"/>
<path d="M997.509 243.261L981.864 246.615L991.8 292.962L1007.44 289.608L997.509 243.261Z" stroke="#2C337C" stroke-width="4" stroke-linecap="round" stroke-linejoin="round"/>
<path d="M998.75 249.92L1011.45 241.12C1011.45 241.12 1014.75 238.92 1023.35 241.92C1031.95 244.92 1048.15 248.52 1048.15 248.52C1048.15 248.52 1055.35 249.62 1054.75 258.72L1082.65 243.02C1082.65 243.02 1091.15 238.32 1095.35 245.82C1099.55 253.32 1092.55 255.72 1089.55 258.52C1086.55 261.32 1049.85 282.52 1049.85 282.52C1049.85 282.52 1044.05 286.22 1035.75 284.52C1025.75 282.42 1005.95 281.42 1005.95 281.42" stroke="#2C337C" stroke-width="4" stroke-linecap="round" stroke-linejoin="round"/>
<path d="M1026.35 261.22L1043.45 266.42C1043.45 266.42 1053.65 269.42 1054.75 258.72" stroke="#2C337C" stroke-width="4" stroke-linecap="round" stroke-linejoin="round"/>
<path d="M1071.85 173.62L1064.85 168.92V160.22H1071.85V173.62Z" fill="#CBDEF0"/>
<path d="M1003.05 184.62L1041.15 154.82L1079.55 184.42L1076.85 188.72L1041.25 161.12L1005.95 188.72L1003.05 184.62Z" fill="#CBDEF0"/>
<path d="M1071.85 184.82V232.12H1010.95V184.82" stroke="#2C337C" stroke-width="3.4" stroke-linecap="round" stroke-linejoin="round"/>
<path d="M1071.85 173.62V156.92H1061.45V166.32" stroke="#2C337C" stroke-width="3.4" stroke-linecap="round" stroke-linejoin="round"/>
<path d="M1076.85 188.72L1041.25 161.12L1005.95 188.72L1000.85 182.22L1041.25 150.62L1081.95 182.22L1076.85 188.72Z" stroke="#2C337C" stroke-width="3.4" stroke-linecap="round" stroke-linejoin="round"/>
<path d="M120.31 79.58L111 73.25V61.73H120.31V79.58Z" fill="#CADEF1"/>
<path d="M28.9802 94.09L79.5202 54.63L130.51 93.87L126.96 99.63L79.7402 62.94L32.7702 99.62L28.9802 94.09Z" fill="#CADEF1"/>
<path d="M120.3 94.4299V157.16H39.4202V94.4299" stroke="#2A2F7D" stroke-width="4" stroke-linecap="round" stroke-linejoin="round"/>
<path d="M120.3 79.5799V57.4099H106.54V69.8199" stroke="#2A2F7D" stroke-width="4" stroke-linecap="round" stroke-linejoin="round"/>
<path d="M126.96 99.63L79.72 62.94L32.77 99.62L26 90.95L79.7 49L133.71 90.94L126.96 99.63Z" stroke="#2A2F7D" stroke-width="4" stroke-linecap="round" stroke-linejoin="round"/>
<path d="M77.0201 94.7H57.0701V114.65H77.0201V94.7Z" fill="#CADEF1"/>
<path d="M102.63 94.7H82.6802V114.65H102.63V94.7Z" fill="#CADEF1"/>
<path d="M77.0201 120.48H57.0701V140.43H77.0201V120.48Z" fill="#CADEF1"/>
<path d="M102.63 120.48H82.6802V140.43H102.63V120.48Z" fill="#CADEF1"/>
<rect x="1194" y="686.077" width="50" height="76.9231" rx="3" fill="#BDD9EE"/>
<path d="M1145.5 689.077C1145.5 688.248 1146.17 687.577 1147 687.577H1241C1241.83 687.577 1242.5 688.248 1242.5 689.077V760C1242.5 760.828 1241.83 761.5 1241 761.5H1147C1146.17 761.5 1145.5 760.828 1145.5 760V689.077Z" stroke="#2C337C" stroke-width="3"/>
<path d="M1200.67 716.797C1200.67 715.999 1200.91 715.341 1201.54 714.683C1201.05 713.367 1199.77 712.569 1197.77 712.31V722.859L1198.4 722.999C1199.54 723.258 1200.67 723.657 1201.68 723.916C1202.82 724.175 1203.56 724.574 1204.08 724.833C1204.58 725.093 1205.09 725.491 1205.72 726.03C1206.22 726.548 1206.73 727.087 1207.23 727.745C1208.37 729.32 1209 731.035 1209 733.149C1209 735.123 1208.5 736.978 1207.36 738.693C1206.35 740.408 1204.84 741.724 1203.07 742.522C1202.44 742.921 1201.68 743.18 1200.8 743.439C1199.92 743.698 1198.91 743.957 1197.9 744.237V748.066C1197.9 749.382 1197.14 750.179 1195.63 750.179C1194.12 750.179 1193.36 749.521 1193.36 748.066V744.237C1189.7 743.838 1186.8 742.781 1184.65 741.066C1182.63 739.351 1181.5 737.117 1181.5 734.206C1181.5 732.631 1181.88 731.294 1182.76 730.257C1183.64 729.2 1184.65 728.802 1186.04 728.802C1186.92 728.802 1187.81 729.061 1188.44 729.719C1189.07 730.377 1189.45 731.175 1189.45 732.092C1189.45 733.009 1189.32 733.668 1188.96 734.206C1188.58 734.724 1187.95 735.004 1187.07 735.263C1187.32 736.459 1188.08 737.377 1189.09 738.174C1190.1 738.832 1191.61 739.231 1193.25 739.49V727.486C1191.74 727.087 1190.6 726.688 1189.59 726.289C1188.58 726.03 1187.95 725.771 1187.56 725.491C1186.94 725.232 1186.31 724.833 1185.79 724.295C1185.16 723.776 1184.78 723.378 1184.4 722.839C1183.52 721.523 1183.14 719.928 1183.14 718.093C1183.14 717.176 1183.27 716.119 1183.52 715.181C1183.77 714.264 1184.15 713.327 1184.67 712.549C1185.16 711.751 1185.81 710.974 1186.44 710.435C1187.2 709.777 1187.95 709.239 1188.71 708.86C1189.34 708.601 1189.97 708.341 1190.73 708.062C1191.49 707.803 1192.37 707.663 1193.13 707.404V703.835C1193.13 702.259 1193.9 701.461 1195.4 701.461C1196.91 701.461 1197.67 702.259 1197.67 703.835V707.404C1200.7 707.923 1203.11 708.86 1204.86 710.435C1206.64 711.891 1207.51 713.726 1207.51 715.84C1207.51 717.036 1207.13 717.953 1206.5 718.611C1205.74 719.409 1205 719.668 1203.85 719.668C1202.97 719.668 1202.08 719.409 1201.45 718.751C1201.07 718.352 1200.69 717.694 1200.69 716.777L1200.67 716.797ZM1188.54 717.335C1188.54 718.532 1188.92 719.449 1189.55 719.967C1190.31 720.626 1191.44 721.164 1193.08 721.682V712.449C1191.57 712.709 1190.43 713.247 1189.66 714.025C1189.03 714.942 1188.52 715.999 1188.52 717.315L1188.54 717.335ZM1193.21 721.682H1193.34C1193.48 721.682 1193.72 721.822 1193.84 721.822C1193.95 721.822 1194.09 721.962 1194.22 721.962L1193.21 722.62V721.702V721.682ZM1197.75 728.403C1197.5 728.263 1197.25 728.263 1196.74 728.263L1197.75 727.605V728.403ZM1203.18 733.687C1203.18 732.232 1202.8 731.055 1201.92 730.257C1201.05 729.46 1199.66 728.941 1197.77 728.542V739.49C1198.53 739.351 1199.16 739.231 1199.79 738.972C1200.42 738.713 1200.93 738.314 1201.43 737.776C1202.57 736.719 1203.2 735.263 1203.2 733.687H1203.18Z" fill="#2C337C"/>
<rect x="1174.5" y="671.5" width="40" height="15" rx="2.5" stroke="#2C337C" stroke-width="5"/>
<path fill-rule="evenodd" clip-rule="evenodd" d="M1144.06 688.554C1145.42 694.253 1148.61 702.78 1153.8 709.92C1158.98 717.051 1166.35 723.038 1176.07 723.038H1176.17H1176.28H1176.39H1176.49H1176.6H1176.7H1176.81H1176.91H1177.02H1177.12H1177.23H1177.33H1177.44H1177.55H1177.65H1177.76H1177.84V720.038H1177.76H1177.65H1177.55H1177.44H1177.33H1177.23H1177.12H1177.02H1176.91H1176.81H1176.7H1176.6H1176.49H1176.39H1176.28H1176.17H1176.07C1167.72 720.038 1161.14 714.914 1156.23 708.156C1151.32 701.408 1148.27 693.268 1146.98 687.856L1144.06 688.554ZM1212.85 720.038V723.038H1212.9H1212.95H1213H1213.05H1213.1H1213.15H1213.2H1213.25H1213.29H1213.34H1213.39H1213.44H1213.48H1213.53H1213.58H1213.62H1213.67H1213.72H1213.76H1213.81H1213.85H1213.9H1213.94H1213.99H1214.03H1214.08H1214.12H1214.17H1214.21H1214.25H1214.3H1214.34H1214.38H1214.43H1214.47H1214.51H1214.55H1214.6H1214.64H1214.68H1214.72H1214.76H1214.8H1214.84H1214.88H1214.92H1214.96H1215H1215.04H1215.08H1215.12H1215.16H1215.2H1215.23H1215.27H1215.31H1215.35H1215.38H1215.42H1215.46H1215.5H1215.53H1215.57H1215.6H1215.64H1215.68H1215.71H1215.75H1215.78H1215.81H1215.85H1215.88H1215.92H1215.96L1216 723.036C1220.73 722.766 1227.72 720.683 1233.54 715.332C1239.4 709.937 1243.98 701.317 1243.98 688.205H1240.98C1240.98 700.548 1236.71 708.342 1231.51 713.123C1226.27 717.933 1220 719.793 1215.87 720.038H1215.85H1215.81H1215.78H1215.75H1215.71H1215.68H1215.64H1215.6H1215.57H1215.53H1215.5H1215.46H1215.42H1215.38H1215.35H1215.31H1215.27H1215.23H1215.2H1215.16H1215.12H1215.08H1215.04H1215H1214.96H1214.92H1214.88H1214.84H1214.8H1214.76H1214.72H1214.68H1214.64H1214.6H1214.55H1214.51H1214.47H1214.43H1214.38H1214.34H1214.3H1214.25H1214.21H1214.17H1214.12H1214.08H1214.03H1213.99H1213.94H1213.9H1213.85H1213.81H1213.76H1213.72H1213.67H1213.62H1213.58H1213.53H1213.48H1213.44H1213.39H1213.34H1213.29H1213.25H1213.2H1213.15H1213.1H1213.05H1213H1212.95H1212.9H1212.85Z" fill="#2C337C"/>
<path d="M1078 319L984 389.5H1078V319Z" fill="#BDD9EE"/>
<path d="M983 317L1029.14 353.526C1030.23 354.39 1031.77 354.39 1032.86 353.526L1079 317" stroke="#2C337C" stroke-width="3"/>
<path d="M982.5 318C982.5 317.172 983.172 316.5 984 316.5H1078C1078.83 316.5 1079.5 317.172 1079.5 318V388.923C1079.5 389.752 1078.83 390.423 1078 390.423H984C983.172 390.423 982.5 389.752 982.5 388.923V318Z" stroke="#2C337C" stroke-width="3"/>
<path d="M972.26 562.19V556.43H1064.04V563.07L972.26 562.19Z" fill="#CADEF1"/>
<path d="M976.7 551.99V546.23H1058.95V552.87L976.7 551.99Z" fill="#CADEF1"/>
<path d="M991.77 511.76H981.78V542.24H991.77V511.76Z" fill="#CADEF1"/>
<path d="M1020.81 511.76H1010.82V542.24H1020.81V511.76Z" fill="#CADEF1"/>
<path d="M1049.86 511.76H1041V542.24H1049.86V511.76Z" fill="#CADEF1"/>
<path d="M1022.57 479.14C1020.38 478.79 1018.13 478.6 1015.84 478.6C995.98 478.6 979.27 492.28 974.37 510.85H987.84C992.17 494.41 1005.75 481.83 1022.57 479.14Z" fill="#CADEF1"/>
<path d="M1061.43 620.83L1058.77 615.18L1026.84 629.64L1041.64 630.14L1057.44 623.49L1061.43 620.83Z" fill="#CADEF1"/>
<path d="M1010.55 706.79V686.67L1077.55 637.62H1091.02L1010.55 706.79Z" fill="#CADEF1"/>
<path d="M1103.84 693.99V713.45C1103.84 716.2 1101.61 718.44 1098.85 718.44H1015.69C1012.94 718.44 1010.7 716.21 1010.7 713.45L1098.84 638.29C1101.59 638.29 1103.83 640.52 1103.83 643.28V663.4H1089.52C1089.52 663.4 1077.05 662.24 1076.22 676.7C1076.22 676.7 1073.89 692.66 1089.02 693.33L1103.83 694L1103.84 693.99Z" fill="#CADEF1"/>
<path d="M1104.16 693.99V720.58C1104.16 723.89 1101.47 726.58 1098.16 726.58H998.09C994.78 726.58 992.09 723.89 992.09 720.58V636.14C992.09 632.83 994.78 630.14 998.09 630.14H1098.16C1101.47 630.14 1104.16 632.83 1104.16 636.14V663.39" stroke="#2A2F7D" stroke-width="4" stroke-linecap="round" stroke-linejoin="round"/>
<path d="M1014.93 629.48L1061.09 609.71L1065.57 620.34" stroke="#2A2F7D" stroke-width="4" stroke-linecap="round" stroke-linejoin="round"/>
<path d="M1043.75 629.7L1078.38 614.81L1084.09 628.37" stroke="#2A2F7D" stroke-width="4" stroke-linecap="round" stroke-linejoin="round"/>
<path d="M1090.52 684.74C1093.98 684.74 1096.79 681.933 1096.79 678.47C1096.79 675.007 1093.98 672.2 1090.52 672.2C1087.06 672.2 1084.25 675.007 1084.25 678.47C1084.25 681.933 1087.06 684.74 1090.52 684.74Z" stroke="#2A2F7D" stroke-width="4" stroke-linecap="round" stroke-linejoin="round"/>
<path d="M1090.41 663.84H1110.03V693.77H1090.41C1082.15 693.77 1075.45 687.06 1075.45 678.81C1075.45 670.55 1082.16 663.85 1090.41 663.85V663.84Z" stroke="#2A2F7D" stroke-width="4" stroke-linecap="round" stroke-linejoin="round"/>
<path d="M972.43 551.77V542.42H1059.22V551.33" stroke="#2A2F7D" stroke-width="3.84" stroke-linecap="round" stroke-linejoin="round"/>
<path d="M1064.65 551.96H967V563.07H1064.65V551.96Z" stroke="#2A2F7D" stroke-width="3.7" stroke-linecap="round" stroke-linejoin="round"/>
<path d="M1015.83 478.6C995.97 478.6 979.26 492.28 974.36 510.85L1057.28 510.78C1052.36 492.24 1035.67 478.6 1015.83 478.6Z" stroke="#2A2F7D" stroke-width="3.44" stroke-linecap="round" stroke-linejoin="round"/>
<path d="M981.78 511.76V540.8" stroke="#2A2F7D" stroke-width="3.44" stroke-linecap="round" stroke-linejoin="round"/>
<path d="M991.54 511.76V540.8" stroke="#2A2F7D" stroke-width="3.44" stroke-linecap="round" stroke-linejoin="round"/>
<path d="M1040.75 511.76V540.8" stroke="#2A2F7D" stroke-width="3.44" stroke-linecap="round" stroke-linejoin="round"/>
<path d="M1050.51 511.76V540.8" stroke="#2A2F7D" stroke-width="3.44" stroke-linecap="round" stroke-linejoin="round"/>
<path d="M1010.95 511.76V540.8" stroke="#2A2F7D" stroke-width="3.44" stroke-linecap="round" stroke-linejoin="round"/>
<path d="M1020.7 511.76V540.8" stroke="#2A2F7D" stroke-width="3.44" stroke-linecap="round" stroke-linejoin="round"/>
<path d="M1016.16 459.55H995.54V471.08H1016.16V459.55Z" stroke="#2A2F7D" stroke-width="3.44" stroke-linecap="round" stroke-linejoin="round"/>
<path d="M1016.16 456V478.17" stroke="#2A2F7D" stroke-width="3.44" stroke-linecap="round" stroke-linejoin="round"/>
<path d="M897.891 338.52C898.931 338.52 899.771 339.36 899.771 340.4V362.9C899.771 363.94 898.931 364.78 897.891 364.78H886.641C885.601 364.78 884.761 363.94 884.761 362.9V340.4C884.761 339.36 885.601 338.52 886.641 338.52H897.891ZM886.641 336.65C884.571 336.65 882.891 338.33 882.891 340.4V362.9C882.891 364.97 884.571 366.65 886.641 366.65H897.891C899.961 366.65 901.641 364.97 901.641 362.9V340.4C901.641 338.33 899.961 336.65 897.891 336.65H886.641Z" fill="#93D7E1"/>
<path d="M892.271 362.9C893.311 362.9 894.151 362.06 894.151 361.02C894.151 359.98 893.311 359.14 892.271 359.14C891.231 359.14 890.391 359.98 890.391 361.02C890.391 362.06 891.231 362.9 892.271 362.9Z" fill="#93D7E1"/>
<path d="M846.271 364C854.555 364 861.271 357.284 861.271 349C861.271 340.716 854.555 334 846.271 334C837.986 334 831.271 340.716 831.271 349C831.271 357.284 837.986 364 846.271 364Z" stroke="#2A2F7D" stroke-width="1.5" stroke-miterlimit="10"/>
<path d="M846.271 361.4C853.119 361.4 858.671 355.848 858.671 349C858.671 342.152 853.119 336.6 846.271 336.6C839.423 336.6 833.871 342.152 833.871 349C833.871 355.848 839.423 361.4 846.271 361.4Z" fill="#2A2F7D"/>
<path d="M846.141 339.2V348.96L851.801 353.66" stroke="white" stroke-width="2" stroke-linecap="round" stroke-linejoin="round"/>
<path d="M804.211 338.31C801.511 342.98 803.771 350.1 806.651 354.99C806.651 354.99 806.661 355.01 806.671 355.02C806.671 355.02 806.681 355.04 806.691 355.05C809.581 359.93 814.721 365.35 820.111 365.24C821.821 365.21 822.871 364.68 823.981 363.7L824.921 362.78C825.441 362.27 825.461 361.44 824.971 360.9L820.411 355.89C819.911 355.34 819.071 355.29 818.511 355.78L817.321 356.82C817.021 357.08 816.681 357.29 816.301 357.42C814.651 358.01 813.031 356.77 810.631 352.72C810.631 352.72 810.621 352.7 810.611 352.69C810.601 352.68 810.601 352.67 810.591 352.66C808.201 348.6 807.901 346.58 809.211 345.42C809.511 345.16 809.861 344.96 810.231 344.82L811.711 344.28C812.401 344.03 812.771 343.26 812.531 342.56L810.351 336.15C810.111 335.46 809.381 335.08 808.681 335.28L807.421 335.65C806.021 336.15 805.061 336.81 804.201 338.29L804.211 338.31Z" fill="#2A2F7D"/>
<defs>
<clipPath id="clip0_1_158">
<rect width="121" height="62" fill="white" transform="translate(276 437.515)"/>
</clipPath>
</defs>
</svg>
