<svg width="50" height="50" viewBox="0 0 50 50" fill="none" xmlns="http://www.w3.org/2000/svg">
<path d="M33.3332 16.6667C36.6484 16.6667 39.8278 17.9836 42.172 20.3279C44.5162 22.6721 45.8332 25.8515 45.8332 29.1667V43.75H37.4998V29.1667C37.4998 28.0616 37.0608 27.0018 36.2794 26.2204C35.498 25.439 34.4382 25 33.3332 25C32.2281 25 31.1683 25.439 30.3869 26.2204C29.6055 27.0018 29.1665 28.0616 29.1665 29.1667V43.75H20.8332V29.1667C20.8332 25.8515 22.1501 22.6721 24.4943 20.3279C26.8385 17.9836 30.018 16.6667 33.3332 16.6667Z" stroke="#F25C5C" stroke-width="4" stroke-linecap="round" stroke-linejoin="round"/>
<path d="M12.4998 18.75H4.1665V43.75H12.4998V18.75Z" stroke="#F25C5C" stroke-width="4" stroke-linecap="round" stroke-linejoin="round"/>
<path d="M8.33317 12.5C10.6344 12.5 12.4998 10.6345 12.4998 8.33335C12.4998 6.03217 10.6344 4.16669 8.33317 4.16669C6.03198 4.16669 4.1665 6.03217 4.1665 8.33335C4.1665 10.6345 6.03198 12.5 8.33317 12.5Z" stroke="#F25C5C" stroke-width="4" stroke-linecap="round" stroke-linejoin="round"/>
</svg>
