<svg width="150" height="22" viewBox="0 0 150 22" fill="none" xmlns="http://www.w3.org/2000/svg">
<path d="M147.911 13.9146V17.1713C147.911 20.6328 145.884 21.4299 141.329 21.4299C141.215 20.6556 141.215 19.6308 141.329 18.8337C144.039 18.8337 144.836 18.1733 144.836 16.2603V13.6869C144.836 12.2522 145.155 11.0907 146.613 10.863V10.5669C145.132 10.3392 144.836 9.20052 144.836 7.76578V5.19237C144.836 3.21107 144.039 2.55064 141.329 2.55064C141.215 1.77634 141.215 0.774301 141.329 0C145.884 0 147.911 0.797074 147.911 4.25866V7.53805C147.911 8.97278 148.503 9.63322 149.915 9.63322C150.029 10.4303 150.029 10.9996 149.915 11.7739C148.525 11.7739 147.911 12.4799 147.911 13.9146Z" fill="#F5F5F5"/>
<path d="M138.72 18.0822L136.989 20.4507C136.329 20.4507 135.623 20.2002 135.213 19.6991L136.374 16.4881V13.3681C137.194 13.277 138.743 13.277 139.563 13.3681V15.2355C139.563 16.7158 139.426 17.1485 138.72 18.0822ZM136.352 8.56286V4.75967C137.171 4.66858 138.788 4.66858 139.608 4.75967V8.56286C138.788 8.65395 137.171 8.65395 136.352 8.56286Z" fill="#F5F5F5"/>
<path d="M133.602 5.42011V7.37864C133.602 9.35994 132.463 10.4531 130.482 10.9541C131.848 12.8215 132.964 14.9395 133.852 16.8297C132.873 16.9208 131.347 16.9208 130.368 16.8297C129.525 15.0533 128.455 13.072 127.157 11.2957H125.494V16.8297C124.492 16.9208 123.171 16.9208 122.169 16.8297V1.43473H127.293C131.188 1.43473 133.602 2.48232 133.602 5.42011ZM130.277 6.74098V6.10332C130.277 4.44085 128.933 4.21311 127.293 4.21311H125.494V8.56286H127.293C128.933 8.56286 130.277 8.33512 130.277 6.74098Z" fill="#F5F5F5"/>
<path d="M112.646 17.1713V13.9146C112.646 12.4799 112.031 11.7739 110.642 11.7739C110.528 10.9996 110.528 10.4303 110.642 9.63322C112.054 9.63322 112.646 8.97278 112.646 7.53805V4.25866C112.646 0.797074 114.672 0 119.227 0C119.341 0.774301 119.341 1.77634 119.227 2.55064C116.517 2.55064 115.72 3.21107 115.72 5.19237V7.76578C115.72 9.20052 115.424 10.3392 113.944 10.5669V10.863C115.401 11.0907 115.72 12.2522 115.72 13.6869V16.2603C115.72 18.1733 116.517 18.8337 119.227 18.8337C119.341 19.6308 119.341 20.6556 119.227 21.4299C114.672 21.4299 112.646 20.6328 112.646 17.1713Z" fill="#F5F5F5"/>
<path d="M107.669 9.29161V11.9106C106.143 12.0244 102.636 12.0472 100.677 11.9333V12.5027C100.677 14.1196 101.611 14.4157 103.569 14.4157C104.913 14.4157 105.869 14.3018 107.145 14.0513C107.236 14.8256 107.236 15.9187 107.145 16.693C105.551 16.9663 104.275 17.1029 102.772 17.1029C99.4928 17.1029 97.4204 16.1237 97.4204 13.2314V8.67673C97.4204 5.64784 99.6067 4.75967 102.636 4.75967C105.642 4.75967 107.669 6.03499 107.669 9.29161ZM104.48 9.92927V9.15497C104.48 7.60637 103.592 7.42418 102.59 7.42418C101.588 7.42418 100.677 7.60637 100.677 9.15497V10.0431L102.431 9.92927H104.48Z" fill="#F27405"/>
<path d="M90.8999 16.8297V9.63322C90.8999 7.78856 90.08 7.53805 88.9186 7.53805C87.5066 7.53805 87.0284 7.87965 86.6184 9.15497V16.8297C85.8214 16.9435 84.1361 16.9435 83.3618 16.8297V0.501017C84.1361 0.387148 85.8214 0.387148 86.6184 0.501017V4.75967L86.459 6.69543H86.5957C87.0056 5.26069 88.3948 4.75967 90.285 4.75967C92.494 4.75967 94.1565 5.62507 94.1565 8.13016V16.8297C93.3366 16.9435 91.6969 16.9435 90.8999 16.8297Z" fill="#F27405"/>
<path d="M80.1802 12.9354V14.0513C80.1802 16.2603 78.4494 17.1029 75.6255 17.1029C74.4185 17.1029 73.0293 17.0118 71.7312 16.7841C71.6174 15.9643 71.6174 15.0306 71.7312 14.2335C72.961 14.4384 74.1908 14.5068 75.1473 14.5068C76.0582 14.5068 76.9236 14.4384 76.9236 13.6641V13.2314C76.9236 12.571 76.4681 12.4571 75.6938 12.2522L73.6442 11.6601C72.3461 11.2957 71.6401 10.4758 71.6401 8.97278V7.72024C71.6401 5.6023 73.462 4.75967 76.3543 4.75967C77.4929 4.75967 78.6772 4.85077 79.998 5.12405C80.1119 5.9439 80.1119 6.85484 79.998 7.65192C78.6088 7.40141 77.7207 7.33309 76.7186 7.33309C75.7394 7.33309 74.8968 7.40141 74.8968 8.17571V8.60841C74.8968 9.17774 75.4205 9.38271 76.1265 9.58767L78.0395 10.1115C79.4515 10.4986 80.1802 11.2046 80.1802 12.9354Z" fill="#F27405"/>
<path d="M68.7044 8.60841V13.2998C68.7044 16.1237 66.5637 17.1029 63.3754 17.1029C60.1871 17.1029 58.0464 16.1237 58.0464 13.2998V8.60841C58.0464 5.67062 60.1871 4.75967 63.3754 4.75967C66.5637 4.75967 68.7044 5.67062 68.7044 8.60841ZM65.4478 12.5938V9.26884C65.4478 7.69746 64.4913 7.51528 63.3754 7.51528C62.2367 7.51528 61.303 7.69746 61.303 9.26884V12.5938C61.303 14.1424 62.2367 14.3246 63.3754 14.3246C64.4913 14.3246 65.4478 14.1424 65.4478 12.5938Z" fill="#F27405"/>
<path d="M51.2192 16.8297V7.19644L48.3041 12.7304C47.4843 12.8215 46.8011 12.8215 45.9812 12.7304L43.0434 7.1509V16.8297C42.1097 16.9208 40.6978 16.9208 39.7185 16.8297V1.43473C40.6978 1.34364 42.2919 1.34364 43.2256 1.43473L47.1655 8.99556L51.1053 1.43473C52.0618 1.34364 53.6104 1.34364 54.5441 1.43473V16.8297C53.6104 16.9208 52.1756 16.9208 51.2192 16.8297Z" fill="#F27405"/>
<path d="M33.3518 16.8297V13.0493C34.1717 12.9354 35.7886 12.9354 36.6084 13.0493V16.8297C35.7886 16.9435 34.1717 16.9435 33.3518 16.8297Z" fill="#F5F5F5"/>
<path d="M18.6465 16.8297V4.98741C19.603 4.91909 20.5595 4.91909 21.5387 4.98741L21.7437 6.92316H21.8803C22.2447 5.39733 23.725 4.75967 25.7974 4.75967C25.8885 5.53398 25.8885 6.80929 25.7974 7.5836C23.224 7.5836 22.518 8.10739 21.9031 9.74708V16.8297C21.106 16.9435 19.4208 16.9435 18.6465 16.8297Z" fill="#F27405"/>
<path d="M11.5006 16.8297V7.19644L8.58563 12.7304C7.76578 12.8215 7.08258 12.8215 6.26273 12.7304L3.32494 7.1509V16.8297C2.39122 16.9208 0.979263 16.9208 0 16.8297V1.43473C0.979263 1.34364 2.57341 1.34364 3.50713 1.43473L7.44695 8.99556L11.3868 1.43473C12.3433 1.34364 13.8919 1.34364 14.8256 1.43473V16.8297C13.8919 16.9208 12.4571 16.9208 11.5006 16.8297Z" fill="#F27405"/>
</svg>
