<svg width="404" height="548" viewBox="0 0 404 548" fill="none" xmlns="http://www.w3.org/2000/svg">
<rect width="404" height="548" fill="white"/>
<path d="M140 55.2126H20V94.5849H140V55.2126Z" fill="white"/>
<path d="M81.7085 34.0071C77.6381 34.0071 73.968 35.9971 71.3755 39.1712L94.1722 58.3509C95.2807 56.0043 95.9211 53.3224 95.9211 50.4622C95.9211 41.368 89.5599 34 81.7085 34V34.0071Z" fill="#CADEF1"/>
<path d="M112.813 96.6034C113.619 94.1141 114.063 91.4965 114.063 88.7789C114.063 72.8659 99.2098 59.963 80.8899 59.963C74.9167 59.963 69.3129 61.3396 64.4728 63.7433C64.091 61.4608 62.8409 56.1969 59.7127 58.4437C57.0093 60.3838 59.0045 63.9644 60.5255 66.0328C54.9095 69.8345 50.7344 75.1698 48.8439 81.311H44.0284L43.1663 87.9872L54.9526 93.0086C54.9526 93.0086 60.0267 73.5649 89.899 75.2982C100.823 75.933 109.949 85.2839 112.813 96.6034Z" fill="#CADEF1"/>
<path d="M58.8754 82.5233C59.8005 82.5233 60.5504 81.1182 60.5504 79.3849C60.5504 77.6517 59.8005 76.2466 58.8754 76.2466C57.9503 76.2466 57.2004 77.6517 57.2004 79.3849C57.2004 81.1182 57.9503 82.5233 58.8754 82.5233Z" fill="#2A2F7D"/>
<path d="M70.5812 60.7188C68.6476 57.9086 67.4961 54.3494 67.4961 50.4763C67.4961 41.3822 73.8573 34.0142 81.7086 34.0142C89.56 34.0142 95.9212 41.3822 95.9212 50.4763C95.9212 54.6204 94.5972 58.4079 92.4112 61.3037" stroke="#2A2F7D" stroke-width="4" stroke-linecap="round" stroke-linejoin="round"/>
<path d="M114.266 84.1497C116.397 83.4222 121.268 83.2938 121.97 79.8202C122.438 77.4878 120.43 75.9828 118.885 77.716C115.153 81.9172 122.271 85.027 124.71 85.0983" stroke="#2A2F7D" stroke-width="4" stroke-linecap="round" stroke-linejoin="round"/>
<path d="M83.4396 45.0485C83.4396 44.7774 83.5382 44.5349 83.7352 44.3209C83.5566 43.8502 83.1564 43.572 82.5221 43.4936V47.1455L82.7068 47.2025C83.0578 47.3024 83.4088 47.4165 83.7537 47.5306C84.0985 47.6448 84.3448 47.7518 84.4988 47.8373C84.6651 47.9372 84.8313 48.0798 85.0038 48.251C85.1762 48.4222 85.3301 48.6219 85.4779 48.8359C85.8412 49.3709 86.026 50.0128 86.026 50.7546C86.026 51.4465 85.8597 52.0955 85.521 52.7018C85.1823 53.3081 84.7328 53.7646 84.1663 54.057C83.9569 54.1854 83.7106 54.2995 83.4273 54.3994C83.1441 54.4992 82.8423 54.592 82.5221 54.6704V56.0185C82.5221 56.5035 82.2758 56.746 81.7893 56.746C81.3028 56.746 81.075 56.5035 81.075 56.0185V54.6918C79.905 54.5634 78.9874 54.1925 78.3285 53.5863C77.6696 52.98 77.3433 52.1811 77.3433 51.1968C77.3433 50.6191 77.4726 50.1554 77.7312 49.8059C77.9898 49.4564 78.3347 49.2781 78.7657 49.2781C79.0613 49.2781 79.32 49.3923 79.5355 49.6205C79.751 49.8488 79.8557 50.1341 79.8557 50.4693C79.8557 50.776 79.8003 51.0185 79.6833 51.1897C79.5663 51.3609 79.3631 51.4821 79.0798 51.5463C79.1783 51.9671 79.4 52.3024 79.7325 52.5449C80.0712 52.7874 80.5146 52.9372 81.0688 52.9871V48.7789C80.607 48.6219 80.2129 48.4935 79.8988 48.3723C79.5848 48.251 79.3631 48.1654 79.2461 48.1012C79.049 48.0014 78.8581 47.8659 78.6734 47.6947C78.4886 47.5306 78.347 47.3523 78.2362 47.174C77.9591 46.7033 77.8236 46.1398 77.8236 45.4836C77.8236 45.1412 77.8667 44.7988 77.9591 44.4779C78.0453 44.1498 78.1746 43.8502 78.3347 43.5649C78.4948 43.2867 78.6857 43.0299 78.9135 42.8088C79.1414 42.5877 79.3877 42.4023 79.6525 42.2596C79.8434 42.1597 80.0589 42.067 80.2991 41.9886C80.5454 41.9101 80.804 41.8388 81.0811 41.7746V40.5264C81.0811 39.9772 81.3213 39.699 81.7955 39.699C82.2696 39.699 82.5283 39.9772 82.5283 40.5264V41.7746C83.4766 41.9386 84.234 42.2881 84.8005 42.8231C85.3671 43.358 85.6442 43.9928 85.6442 44.7346C85.6442 45.1341 85.5333 45.4622 85.3116 45.7261C85.09 45.99 84.8129 46.1184 84.4803 46.1184C84.1847 46.1184 83.9323 46.0114 83.7352 45.8045C83.5382 45.5906 83.4396 45.3409 83.4396 45.0485ZM79.6094 45.1983C79.6094 45.6048 79.7202 45.9258 79.9481 46.1469C80.1759 46.368 80.5516 46.5748 81.0811 46.7532V43.4864C80.6193 43.5649 80.256 43.7575 79.9973 44.0642C79.7387 44.3709 79.6094 44.7489 79.6094 45.1983ZM81.0811 46.7532C81.0811 46.7532 81.1058 46.7746 81.1304 46.7746C81.1858 46.7888 81.2351 46.8031 81.272 46.8245C81.309 46.8459 81.3521 46.8602 81.3952 46.8744L81.0811 47.1241V46.7603V46.7532ZM82.5283 49.1212H82.5098C82.4544 49.0927 82.3558 49.0784 82.2142 49.0642L82.5283 48.8145V49.1212ZM84.234 50.9401C84.234 50.4122 84.0985 50.0128 83.8337 49.7275C83.569 49.4493 83.1317 49.2425 82.5221 49.1141V52.9586C82.7561 52.9301 82.9593 52.8659 83.1441 52.766C83.3288 52.6662 83.5074 52.5306 83.6859 52.3594C84.0493 52.0028 84.234 51.5249 84.234 50.9401Z" fill="#2A2F7D"/>
<path d="M65.3225 104.392C65.3225 104.392 78.4266 113.244 99.1789 104.392C99.1789 104.392 96.18 113.394 80.8837 113.486C67.5024 113.565 65.3225 104.392 65.3225 104.392Z" fill="#CADEF1"/>
<path d="M80.89 59.9559C74.9168 59.9559 69.313 61.3325 64.4729 63.7362C64.0911 61.4537 62.841 56.1898 59.7128 58.4366C57.0094 60.3767 59.0046 63.9573 60.5256 66.0258C54.9096 69.8275 50.7345 75.1627 48.844 81.3039H44.0285L42.1873 95.5336L50.1064 99.5065C52.4033 104.471 56.2335 108.75 61.0983 111.903L58.7706 124H70.4399L71.8809 116.511C74.7443 117.21 77.7679 117.595 80.89 117.595C85.2313 117.595 89.3756 116.86 93.1751 115.548V124H104.844V108.7C110.547 103.522 114.057 96.5108 114.057 88.779C114.057 72.866 99.2037 59.963 80.8838 59.963L80.89 59.9559Z" stroke="#2A2F7D" stroke-width="4" stroke-linecap="round" stroke-linejoin="round"/>
<path d="M75.7664 64.4636C75.7664 64.4636 97.5778 59.9558 108.022 79.4066C108.022 79.4066 96.5556 63.8716 75.7664 64.4636Z" fill="white" stroke="white" stroke-linecap="round" stroke-linejoin="round"/>
<path d="M80.9883 36.8318C80.9883 36.8318 90.2006 36.4751 92.7623 46.9102C92.7623 46.9102 89.9974 38.4866 80.9883 36.8318Z" fill="white" stroke="white" stroke-linecap="round" stroke-linejoin="round"/>
<path d="M106.046 59.9623L107.043 59.2793L106.588 58.1596C105.537 55.5774 103.393 52.5 99.3901 52.5C94.0346 52.5 90.5 57.6473 90.5 64C90.5 70.3527 94.0346 75.5 99.3901 75.5C103.404 75.5 105.523 72.3752 106.583 69.8217L107.054 68.6879L106.036 68.0022L103.496 66.292L101.907 65.2221L101.25 67.0211C100.776 68.317 99.9333 68.8478 99.3901 68.8478C98.7269 68.8478 98.0639 68.5095 97.5084 67.6969C96.9409 66.8668 96.5393 65.5922 96.5393 64C96.5393 62.4078 96.9409 61.1332 97.5084 60.3031C98.0639 59.4905 98.7269 59.1522 99.3901 59.1522C99.9242 59.1522 100.773 59.6997 101.253 60.9872L101.922 62.7857L103.506 61.7014L106.046 59.9623ZM107.656 73.6522V75.1522H109.156H114.631C117.29 75.1522 119.564 73.9644 121.135 71.9265C122.683 69.9182 123.5 67.1578 123.5 64C123.5 60.8423 122.683 58.076 121.137 56.0614C119.568 54.0174 117.295 52.8188 114.631 52.8188H109.156H107.656V54.3188V73.6522ZM117.482 64C117.482 65.4156 117.132 66.6092 116.595 67.4011C116.084 68.1556 115.43 68.529 114.631 68.529H113.612V59.442H114.631C115.518 59.442 116.156 59.8194 116.631 60.5257C117.145 61.2896 117.482 62.4818 117.482 64Z" fill="#D2202E" stroke="white" stroke-width="3"/>
<path d="M262 49.2126H142V88.5849H262V49.2126Z" fill="white"/>
<path d="M203.709 28.0071C199.638 28.0071 195.968 29.9971 193.375 33.1712L216.172 52.3509C217.281 50.0043 217.921 47.3224 217.921 44.4622C217.921 35.368 211.56 28 203.709 28V28.0071Z" fill="#CADEF1"/>
<path d="M234.813 90.6034C235.619 88.1141 236.063 85.4965 236.063 82.7789C236.063 66.8659 221.21 53.963 202.89 53.963C196.917 53.963 191.313 55.3396 186.473 57.7433C186.091 55.4608 184.841 50.1969 181.713 52.4437C179.009 54.3838 181.005 57.9644 182.526 60.0328C176.909 63.8345 172.734 69.1698 170.844 75.311H166.028L165.166 81.9872L176.953 87.0086C176.953 87.0086 182.027 67.5649 211.899 69.2982C222.823 69.933 231.949 79.2839 234.813 90.6034Z" fill="#CADEF1"/>
<path d="M180.875 76.5233C181.8 76.5233 182.55 75.1182 182.55 73.3849C182.55 71.6517 181.8 70.2466 180.875 70.2466C179.95 70.2466 179.2 71.6517 179.2 73.3849C179.2 75.1182 179.95 76.5233 180.875 76.5233Z" fill="#2A2F7D"/>
<path d="M192.581 54.7188C190.648 51.9086 189.496 48.3494 189.496 44.4763C189.496 35.3822 195.857 28.0142 203.709 28.0142C211.56 28.0142 217.921 35.3822 217.921 44.4763C217.921 48.6204 216.597 52.4079 214.411 55.3037" stroke="#2A2F7D" stroke-width="4" stroke-linecap="round" stroke-linejoin="round"/>
<path d="M236.266 78.1497C238.397 77.4222 243.268 77.2938 243.97 73.8202C244.438 71.4878 242.43 69.9828 240.885 71.716C237.153 75.9172 244.271 79.027 246.71 79.0983" stroke="#2A2F7D" stroke-width="4" stroke-linecap="round" stroke-linejoin="round"/>
<path d="M205.44 39.0485C205.44 38.7774 205.538 38.5349 205.735 38.3209C205.557 37.8502 205.156 37.572 204.522 37.4936V41.1455L204.707 41.2025C205.058 41.3024 205.409 41.4165 205.754 41.5306C206.099 41.6448 206.345 41.7518 206.499 41.8373C206.665 41.9372 206.831 42.0798 207.004 42.251C207.176 42.4222 207.33 42.6219 207.478 42.8359C207.841 43.3709 208.026 44.0128 208.026 44.7546C208.026 45.4465 207.86 46.0955 207.521 46.7018C207.182 47.3081 206.733 47.7646 206.166 48.057C205.957 48.1854 205.711 48.2995 205.427 48.3994C205.144 48.4992 204.842 48.592 204.522 48.6704V50.0185C204.522 50.5035 204.276 50.746 203.789 50.746C203.303 50.746 203.075 50.5035 203.075 50.0185V48.6918C201.905 48.5634 200.987 48.1925 200.329 47.5863C199.67 46.98 199.343 46.1811 199.343 45.1968C199.343 44.6191 199.473 44.1554 199.731 43.8059C199.99 43.4564 200.335 43.2781 200.766 43.2781C201.061 43.2781 201.32 43.3923 201.535 43.6205C201.751 43.8488 201.856 44.1341 201.856 44.4693C201.856 44.776 201.8 45.0185 201.683 45.1897C201.566 45.3609 201.363 45.4821 201.08 45.5463C201.178 45.9671 201.4 46.3024 201.733 46.5449C202.071 46.7874 202.515 46.9372 203.069 46.9871V42.7789C202.607 42.6219 202.213 42.4935 201.899 42.3723C201.585 42.251 201.363 42.1654 201.246 42.1012C201.049 42.0014 200.858 41.8659 200.673 41.6947C200.489 41.5306 200.347 41.3523 200.236 41.174C199.959 40.7033 199.824 40.1398 199.824 39.4836C199.824 39.1412 199.867 38.7988 199.959 38.4779C200.045 38.1498 200.175 37.8502 200.335 37.5649C200.495 37.2867 200.686 37.0299 200.914 36.8088C201.141 36.5877 201.388 36.4023 201.652 36.2596C201.843 36.1597 202.059 36.067 202.299 35.9886C202.545 35.9101 202.804 35.8388 203.081 35.7746V34.5264C203.081 33.9772 203.321 33.699 203.795 33.699C204.27 33.699 204.528 33.9772 204.528 34.5264V35.7746C205.477 35.9386 206.234 36.2881 206.801 36.8231C207.367 37.358 207.644 37.9928 207.644 38.7346C207.644 39.1341 207.533 39.4622 207.312 39.7261C207.09 39.99 206.813 40.1184 206.48 40.1184C206.185 40.1184 205.932 40.0114 205.735 39.8045C205.538 39.5906 205.44 39.3409 205.44 39.0485ZM201.609 39.1983C201.609 39.6048 201.72 39.9258 201.948 40.1469C202.176 40.368 202.552 40.5748 203.081 40.7532V37.4864C202.619 37.5649 202.256 37.7575 201.997 38.0642C201.739 38.3709 201.609 38.7489 201.609 39.1983ZM203.081 40.7532C203.081 40.7532 203.106 40.7746 203.13 40.7746C203.186 40.7888 203.235 40.8031 203.272 40.8245C203.309 40.8459 203.352 40.8602 203.395 40.8744L203.081 41.1241V40.7603V40.7532ZM204.528 43.1212H204.51C204.454 43.0927 204.356 43.0784 204.214 43.0642L204.528 42.8145V43.1212ZM206.234 44.9401C206.234 44.4122 206.099 44.0128 205.834 43.7275C205.569 43.4493 205.132 43.2425 204.522 43.1141V46.9586C204.756 46.9301 204.959 46.8659 205.144 46.766C205.329 46.6662 205.507 46.5306 205.686 46.3594C206.049 46.0028 206.234 45.5249 206.234 44.9401Z" fill="#2A2F7D"/>
<path d="M187.323 98.3923C187.323 98.3923 200.427 107.244 221.179 98.3923C221.179 98.3923 218.18 107.394 202.884 107.486C189.502 107.565 187.323 98.3923 187.323 98.3923Z" fill="#CADEF1"/>
<path d="M202.89 53.9559C196.917 53.9559 191.313 55.3325 186.473 57.7362C186.091 55.4537 184.841 50.1898 181.713 52.4366C179.009 54.3767 181.005 57.9573 182.526 60.0258C176.91 63.8275 172.734 69.1627 170.844 75.3039H166.028L164.187 89.5336L172.106 93.5065C174.403 98.4708 178.234 102.75 183.098 105.903L180.771 118H192.44L193.881 110.511C196.744 111.21 199.768 111.595 202.89 111.595C207.231 111.595 211.376 110.86 215.175 109.548V118H226.844V102.7C232.547 97.5222 236.057 90.5108 236.057 82.779C236.057 66.866 221.204 53.963 202.884 53.963L202.89 53.9559Z" stroke="#2A2F7D" stroke-width="4" stroke-linecap="round" stroke-linejoin="round"/>
<path d="M197.766 58.4636C197.766 58.4636 219.578 53.9558 230.022 73.4066C230.022 73.4066 218.556 57.8716 197.766 58.4636Z" fill="white" stroke="white" stroke-linecap="round" stroke-linejoin="round"/>
<path d="M202.988 30.8318C202.988 30.8318 212.201 30.4751 214.762 40.9102C214.762 40.9102 211.997 32.4866 202.988 30.8318Z" fill="white" stroke="white" stroke-linecap="round" stroke-linejoin="round"/>
<path d="M216.84 67.5H218.34V66V48V46.5H216.84H214H212.5V48V66V67.5H214H216.84ZM232.398 67.5H233.151H234.692H235.142H238.381H239.524L239.827 66.3983L240.364 64.4505H243.79L244.312 66.3895L244.61 67.5H245.76H249H250.988L250.442 65.5882L245.303 47.5882L244.992 46.5H243.861H242.202L242.081 46.0482L241.959 46.5H240.301H239.171L238.859 47.5867L233.761 65.3725L231.323 59.8007C232.799 58.6653 233.818 56.595 233.818 53.8021C233.818 51.8932 233.335 50.1019 232.322 48.7475C231.28 47.3551 229.724 46.5 227.839 46.5H221.599H220.099V48V66V67.5H221.599H224.439H225.939V66V62.1461L227.751 66.5686L228.132 67.5H229.139H232.398ZM241.957 58.0772L242.081 57.616L242.205 58.0772H241.957ZM227.919 53.8021C227.919 54.2788 227.785 54.5162 227.706 54.6087C227.64 54.6856 227.561 54.7309 227.419 54.7309H225.939V52.8733H227.419C227.561 52.8733 227.64 52.9186 227.706 52.9955C227.785 53.088 227.919 53.3254 227.919 53.8021Z" fill="#D2202E" stroke="#F5F5F5" stroke-width="3"/>
<path d="M380 51.2126H260V90.5849H380V51.2126Z" fill="white"/>
<path d="M321.709 30.0071C317.638 30.0071 313.968 31.9971 311.375 35.1712L334.172 54.3509C335.281 52.0043 335.921 49.3224 335.921 46.4622C335.921 37.368 329.56 30 321.709 30V30.0071Z" fill="#CADEF1"/>
<path d="M352.813 92.6034C353.62 90.1141 354.063 87.4965 354.063 84.7789C354.063 68.8659 339.21 55.963 320.89 55.963C314.917 55.963 309.313 57.3396 304.473 59.7433C304.091 57.4608 302.841 52.1969 299.713 54.4437C297.01 56.3838 299.005 59.9644 300.526 62.0328C294.91 65.8345 290.735 71.1698 288.844 77.311H284.029L283.167 83.9872L294.953 89.0086C294.953 89.0086 300.027 69.5649 329.899 71.2982C340.823 71.933 349.949 81.2839 352.813 92.6034Z" fill="#CADEF1"/>
<path d="M298.875 78.5233C299.8 78.5233 300.55 77.1182 300.55 75.3849C300.55 73.6517 299.8 72.2466 298.875 72.2466C297.95 72.2466 297.2 73.6517 297.2 75.3849C297.2 77.1182 297.95 78.5233 298.875 78.5233Z" fill="#2A2F7D"/>
<path d="M310.581 56.7188C308.648 53.9086 307.496 50.3494 307.496 46.4763C307.496 37.3822 313.857 30.0142 321.709 30.0142C329.56 30.0142 335.921 37.3822 335.921 46.4763C335.921 50.6204 334.597 54.4079 332.411 57.3037" stroke="#2A2F7D" stroke-width="4" stroke-linecap="round" stroke-linejoin="round"/>
<path d="M354.266 80.1497C356.397 79.4222 361.268 79.2938 361.97 75.8202C362.438 73.4878 360.43 71.9828 358.885 73.716C355.153 77.9172 362.271 81.027 364.71 81.0983" stroke="#2A2F7D" stroke-width="4" stroke-linecap="round" stroke-linejoin="round"/>
<path d="M323.44 41.0485C323.44 40.7774 323.538 40.5349 323.735 40.3209C323.557 39.8502 323.156 39.572 322.522 39.4936V43.1455L322.707 43.2025C323.058 43.3024 323.409 43.4165 323.754 43.5306C324.099 43.6448 324.345 43.7518 324.499 43.8373C324.665 43.9372 324.831 44.0798 325.004 44.251C325.176 44.4222 325.33 44.6219 325.478 44.8359C325.841 45.3709 326.026 46.0128 326.026 46.7546C326.026 47.4465 325.86 48.0955 325.521 48.7018C325.182 49.3081 324.733 49.7646 324.166 50.057C323.957 50.1854 323.711 50.2995 323.427 50.3994C323.144 50.4992 322.842 50.592 322.522 50.6704V52.0185C322.522 52.5035 322.276 52.746 321.789 52.746C321.303 52.746 321.075 52.5035 321.075 52.0185V50.6918C319.905 50.5634 318.987 50.1925 318.329 49.5863C317.67 48.98 317.343 48.1811 317.343 47.1968C317.343 46.6191 317.473 46.1554 317.731 45.8059C317.99 45.4564 318.335 45.2781 318.766 45.2781C319.061 45.2781 319.32 45.3923 319.535 45.6205C319.751 45.8488 319.856 46.1341 319.856 46.4693C319.856 46.776 319.8 47.0185 319.683 47.1897C319.566 47.3609 319.363 47.4821 319.08 47.5463C319.178 47.9671 319.4 48.3024 319.733 48.5449C320.071 48.7874 320.515 48.9372 321.069 48.9871V44.7789C320.607 44.6219 320.213 44.4935 319.899 44.3723C319.585 44.251 319.363 44.1654 319.246 44.1012C319.049 44.0014 318.858 43.8659 318.673 43.6947C318.489 43.5306 318.347 43.3523 318.236 43.174C317.959 42.7033 317.824 42.1398 317.824 41.4836C317.824 41.1412 317.867 40.7988 317.959 40.4779C318.045 40.1498 318.175 39.8502 318.335 39.5649C318.495 39.2867 318.686 39.0299 318.914 38.8088C319.141 38.5877 319.388 38.4023 319.652 38.2596C319.843 38.1597 320.059 38.067 320.299 37.9886C320.545 37.9101 320.804 37.8388 321.081 37.7746V36.5264C321.081 35.9772 321.321 35.699 321.795 35.699C322.27 35.699 322.528 35.9772 322.528 36.5264V37.7746C323.477 37.9386 324.234 38.2881 324.801 38.8231C325.367 39.358 325.644 39.9928 325.644 40.7346C325.644 41.1341 325.533 41.4622 325.312 41.7261C325.09 41.99 324.813 42.1184 324.48 42.1184C324.185 42.1184 323.932 42.0114 323.735 41.8045C323.538 41.5906 323.44 41.3409 323.44 41.0485ZM319.609 41.1983C319.609 41.6048 319.72 41.9258 319.948 42.1469C320.176 42.368 320.552 42.5748 321.081 42.7532V39.4864C320.619 39.5649 320.256 39.7575 319.997 40.0642C319.739 40.3709 319.609 40.7489 319.609 41.1983ZM321.081 42.7532C321.081 42.7532 321.106 42.7746 321.13 42.7746C321.186 42.7888 321.235 42.8031 321.272 42.8245C321.309 42.8459 321.352 42.8602 321.395 42.8744L321.081 43.1241V42.7603V42.7532ZM322.528 45.1212H322.51C322.454 45.0927 322.356 45.0784 322.214 45.0642L322.528 44.8145V45.1212ZM324.234 46.9401C324.234 46.4122 324.099 46.0128 323.834 45.7275C323.569 45.4493 323.132 45.2425 322.522 45.1141V48.9586C322.756 48.9301 322.959 48.8659 323.144 48.766C323.329 48.6662 323.507 48.5306 323.686 48.3594C324.049 48.0028 324.234 47.5249 324.234 46.9401Z" fill="#2A2F7D"/>
<path d="M305.323 100.392C305.323 100.392 318.427 109.244 339.179 100.392C339.179 100.392 336.18 109.394 320.884 109.486C307.503 109.565 305.323 100.392 305.323 100.392Z" fill="#CADEF1"/>
<path d="M320.89 55.9559C314.917 55.9559 309.313 57.3325 304.473 59.7362C304.091 57.4537 302.841 52.1898 299.713 54.4366C297.01 56.3767 299.005 59.9573 300.526 62.0258C294.91 65.8275 290.735 71.1627 288.844 77.3039H284.029L282.188 91.5336L290.107 95.5065C292.404 100.471 296.234 104.75 301.099 107.903L298.771 120H310.44L311.881 112.511C314.745 113.21 317.768 113.595 320.89 113.595C325.232 113.595 329.376 112.86 333.175 111.548V120H344.845V104.7C350.547 99.5222 354.057 92.5108 354.057 84.779C354.057 68.866 339.204 55.963 320.884 55.963L320.89 55.9559Z" stroke="#2A2F7D" stroke-width="4" stroke-linecap="round" stroke-linejoin="round"/>
<path d="M315.766 60.4636C315.766 60.4636 337.578 55.9558 348.021 75.4066C348.021 75.4066 336.555 59.8716 315.766 60.4636Z" fill="white" stroke="white" stroke-linecap="round" stroke-linejoin="round"/>
<path d="M320.988 32.8318C320.988 32.8318 330.201 32.4751 332.762 42.9102C332.762 42.9102 329.997 34.4866 320.988 32.8318Z" fill="white" stroke="white" stroke-linecap="round" stroke-linejoin="round"/>
<rect x="336.5" y="69.5" width="33" height="6" fill="#D2202E" stroke="#F5F5F5" stroke-width="3"/>
<rect x="338.5" y="49.5" width="9" height="20" fill="#D2202E" stroke="#F5F5F5" stroke-width="3"/>
<rect x="347.5" y="56.5" width="9" height="13" fill="#D2202E" stroke="#F5F5F5" stroke-width="3"/>
<rect x="356.5" y="41.5" width="9" height="28" fill="#D2202E" stroke="#F5F5F5" stroke-width="3"/>
<path d="M369.097 65.6392L367.433 60.2519C366.998 58.8421 365.002 58.842 364.567 60.2519L362.903 65.6392H357.478C356.043 65.6392 355.427 67.46 356.567 68.3311L361.018 71.732L359.326 77.2105C358.896 78.6058 360.51 79.7316 361.67 78.845L366 75.5369L370.33 78.845C371.49 79.7316 373.104 78.6059 372.674 77.2105L370.982 71.732L375.433 68.3311C376.573 67.46 375.957 65.6392 374.522 65.6392H369.097Z" fill="#D2202E" stroke="#F5F5F5" stroke-width="2" stroke-linecap="round" stroke-linejoin="round"/>
<path d="M142 172.213H22V211.585H142V172.213Z" fill="white"/>
<path d="M83.7085 151.007C79.6381 151.007 75.968 152.997 73.3755 156.171L96.1722 175.351C97.2807 173.004 97.9211 170.322 97.9211 167.462C97.9211 158.368 91.5599 151 83.7085 151V151.007Z" fill="#CADEF1"/>
<path d="M114.813 213.603C115.619 211.114 116.063 208.496 116.063 205.779C116.063 189.866 101.21 176.963 82.8899 176.963C76.9167 176.963 71.3129 178.34 66.4728 180.743C66.091 178.461 64.8409 173.197 61.7127 175.444C59.0093 177.384 61.0045 180.964 62.5255 183.033C56.9095 186.835 52.7344 192.17 50.8439 198.311H46.0284L45.1663 204.987L56.9526 210.009C56.9526 210.009 62.0267 190.565 91.899 192.298C102.823 192.933 111.949 202.284 114.813 213.603Z" fill="#CADEF1"/>
<path d="M60.8754 199.523C61.8005 199.523 62.5504 198.118 62.5504 196.385C62.5504 194.652 61.8005 193.247 60.8754 193.247C59.9503 193.247 59.2004 194.652 59.2004 196.385C59.2004 198.118 59.9503 199.523 60.8754 199.523Z" fill="#2A2F7D"/>
<path d="M72.5812 177.719C70.6476 174.909 69.4961 171.349 69.4961 167.476C69.4961 158.382 75.8573 151.014 83.7086 151.014C91.56 151.014 97.9212 158.382 97.9212 167.476C97.9212 171.62 96.5972 175.408 94.4112 178.304" stroke="#2A2F7D" stroke-width="4" stroke-linecap="round" stroke-linejoin="round"/>
<path d="M116.266 201.15C118.397 200.422 123.268 200.294 123.97 196.82C124.438 194.488 122.43 192.983 120.885 194.716C117.153 198.917 124.271 202.027 126.71 202.098" stroke="#2A2F7D" stroke-width="4" stroke-linecap="round" stroke-linejoin="round"/>
<path d="M85.4396 162.048C85.4396 161.777 85.5382 161.535 85.7352 161.321C85.5566 160.85 85.1564 160.572 84.5221 160.494V164.145L84.7068 164.203C85.0578 164.302 85.4088 164.417 85.7537 164.531C86.0985 164.645 86.3448 164.752 86.4988 164.837C86.6651 164.937 86.8313 165.08 87.0038 165.251C87.1762 165.422 87.3301 165.622 87.4779 165.836C87.8412 166.371 88.026 167.013 88.026 167.755C88.026 168.446 87.8597 169.096 87.521 169.702C87.1823 170.308 86.7328 170.765 86.1663 171.057C85.9569 171.185 85.7106 171.3 85.4273 171.399C85.1441 171.499 84.8423 171.592 84.5221 171.67V173.019C84.5221 173.504 84.2758 173.746 83.7893 173.746C83.3028 173.746 83.075 173.504 83.075 173.019V171.692C81.905 171.563 80.9874 171.193 80.3285 170.586C79.6696 169.98 79.3433 169.181 79.3433 168.197C79.3433 167.619 79.4726 167.155 79.7312 166.806C79.9898 166.456 80.3347 166.278 80.7657 166.278C81.0613 166.278 81.32 166.392 81.5355 166.621C81.751 166.849 81.8557 167.134 81.8557 167.469C81.8557 167.776 81.8003 168.018 81.6833 168.19C81.5663 168.361 81.3631 168.482 81.0798 168.546C81.1783 168.967 81.4 169.302 81.7325 169.545C82.0712 169.787 82.5146 169.937 83.0688 169.987V165.779C82.607 165.622 82.2129 165.494 81.8988 165.372C81.5848 165.251 81.3631 165.165 81.2461 165.101C81.049 165.001 80.8581 164.866 80.6734 164.695C80.4886 164.531 80.347 164.352 80.2362 164.174C79.9591 163.703 79.8236 163.14 79.8236 162.484C79.8236 162.141 79.8667 161.799 79.9591 161.478C80.0453 161.15 80.1746 160.85 80.3347 160.565C80.4948 160.287 80.6857 160.03 80.9135 159.809C81.1414 159.588 81.3877 159.402 81.6525 159.26C81.8434 159.16 82.0589 159.067 82.2991 158.989C82.5454 158.91 82.804 158.839 83.0811 158.775V157.526C83.0811 156.977 83.3213 156.699 83.7955 156.699C84.2696 156.699 84.5283 156.977 84.5283 157.526V158.775C85.4766 158.939 86.234 159.288 86.8005 159.823C87.3671 160.358 87.6442 160.993 87.6442 161.735C87.6442 162.134 87.5333 162.462 87.3116 162.726C87.09 162.99 86.8129 163.118 86.4803 163.118C86.1847 163.118 85.9323 163.011 85.7352 162.805C85.5382 162.591 85.4396 162.341 85.4396 162.048ZM81.6094 162.198C81.6094 162.605 81.7202 162.926 81.9481 163.147C82.1759 163.368 82.5516 163.575 83.0811 163.753V160.486C82.6193 160.565 82.256 160.757 81.9973 161.064C81.7387 161.371 81.6094 161.749 81.6094 162.198ZM83.0811 163.753C83.0811 163.753 83.1058 163.775 83.1304 163.775C83.1858 163.789 83.2351 163.803 83.272 163.824C83.309 163.846 83.3521 163.86 83.3952 163.874L83.0811 164.124V163.76V163.753ZM84.5283 166.121H84.5098C84.4544 166.093 84.3558 166.078 84.2142 166.064L84.5283 165.815V166.121ZM86.234 167.94C86.234 167.412 86.0985 167.013 85.8337 166.727C85.569 166.449 85.1317 166.242 84.5221 166.114V169.959C84.7561 169.93 84.9593 169.866 85.1441 169.766C85.3288 169.666 85.5074 169.531 85.6859 169.359C86.0493 169.003 86.234 168.525 86.234 167.94Z" fill="#2A2F7D"/>
<path d="M67.3225 221.392C67.3225 221.392 80.4266 230.244 101.179 221.392C101.179 221.392 98.18 230.394 82.8837 230.486C69.5024 230.565 67.3225 221.392 67.3225 221.392Z" fill="#CADEF1"/>
<path d="M82.89 176.956C76.9168 176.956 71.313 178.332 66.4729 180.736C66.0911 178.454 64.841 173.19 61.7128 175.437C59.0094 177.377 61.0046 180.957 62.5256 183.026C56.9096 186.827 52.7345 192.163 50.844 198.304H46.0285L44.1873 212.534L52.1064 216.506C54.4033 221.471 58.2335 225.75 63.0983 228.903L60.7706 241H72.4399L73.8809 233.511C76.7443 234.21 79.7679 234.595 82.89 234.595C87.2313 234.595 91.3756 233.86 95.1751 232.548V241H106.844V225.7C112.547 220.522 116.057 213.511 116.057 205.779C116.057 189.866 101.204 176.963 82.8838 176.963L82.89 176.956Z" stroke="#2A2F7D" stroke-width="4" stroke-linecap="round" stroke-linejoin="round"/>
<path d="M77.7664 181.464C77.7664 181.464 99.5778 176.956 110.022 196.407C110.022 196.407 98.5556 180.872 77.7664 181.464Z" fill="white" stroke="white" stroke-linecap="round" stroke-linejoin="round"/>
<path d="M82.9883 153.832C82.9883 153.832 92.2006 153.475 94.7623 163.91C94.7623 163.91 91.9974 155.487 82.9883 153.832Z" fill="white" stroke="white" stroke-linecap="round" stroke-linejoin="round"/>
<rect x="99.5" y="185.5" width="33" height="6" fill="#D2202E" stroke="#F5F5F5" stroke-width="3"/>
<rect x="101.5" y="165.5" width="9" height="20" fill="#D2202E" stroke="#F5F5F5" stroke-width="3"/>
<rect x="110.5" y="172.5" width="9" height="13" fill="#D2202E" stroke="#F5F5F5" stroke-width="3"/>
<rect x="119.5" y="157.5" width="9" height="28" fill="#D2202E" stroke="#F5F5F5" stroke-width="3"/>
<path d="M263 172.213H143V211.585H263V172.213Z" fill="white"/>
<path d="M204.709 151.007C200.638 151.007 196.968 152.997 194.375 156.171L217.172 175.351C218.281 173.004 218.921 170.322 218.921 167.462C218.921 158.368 212.56 151 204.709 151V151.007Z" fill="#CADEF1"/>
<path d="M235.813 213.603C236.619 211.114 237.063 208.496 237.063 205.779C237.063 189.866 222.21 176.963 203.89 176.963C197.917 176.963 192.313 178.34 187.473 180.743C187.091 178.461 185.841 173.197 182.713 175.444C180.009 177.384 182.005 180.964 183.526 183.033C177.909 186.835 173.734 192.17 171.844 198.311H167.028L166.166 204.987L177.953 210.009C177.953 210.009 183.027 190.565 212.899 192.298C223.823 192.933 232.949 202.284 235.813 213.603Z" fill="#CADEF1"/>
<path d="M181.875 199.523C182.8 199.523 183.55 198.118 183.55 196.385C183.55 194.652 182.8 193.247 181.875 193.247C180.95 193.247 180.2 194.652 180.2 196.385C180.2 198.118 180.95 199.523 181.875 199.523Z" fill="#2A2F7D"/>
<path d="M193.581 177.719C191.648 174.909 190.496 171.349 190.496 167.476C190.496 158.382 196.857 151.014 204.709 151.014C212.56 151.014 218.921 158.382 218.921 167.476C218.921 171.62 217.597 175.408 215.411 178.304" stroke="#2A2F7D" stroke-width="4" stroke-linecap="round" stroke-linejoin="round"/>
<path d="M237.266 201.15C239.397 200.422 244.268 200.294 244.97 196.82C245.438 194.488 243.43 192.983 241.885 194.716C238.153 198.917 245.271 202.027 247.71 202.098" stroke="#2A2F7D" stroke-width="4" stroke-linecap="round" stroke-linejoin="round"/>
<path d="M206.44 162.048C206.44 161.777 206.538 161.535 206.735 161.321C206.557 160.85 206.156 160.572 205.522 160.494V164.145L205.707 164.203C206.058 164.302 206.409 164.417 206.754 164.531C207.099 164.645 207.345 164.752 207.499 164.837C207.665 164.937 207.831 165.08 208.004 165.251C208.176 165.422 208.33 165.622 208.478 165.836C208.841 166.371 209.026 167.013 209.026 167.755C209.026 168.446 208.86 169.096 208.521 169.702C208.182 170.308 207.733 170.765 207.166 171.057C206.957 171.185 206.711 171.3 206.427 171.399C206.144 171.499 205.842 171.592 205.522 171.67V173.019C205.522 173.504 205.276 173.746 204.789 173.746C204.303 173.746 204.075 173.504 204.075 173.019V171.692C202.905 171.563 201.987 171.193 201.329 170.586C200.67 169.98 200.343 169.181 200.343 168.197C200.343 167.619 200.473 167.155 200.731 166.806C200.99 166.456 201.335 166.278 201.766 166.278C202.061 166.278 202.32 166.392 202.535 166.621C202.751 166.849 202.856 167.134 202.856 167.469C202.856 167.776 202.8 168.018 202.683 168.19C202.566 168.361 202.363 168.482 202.08 168.546C202.178 168.967 202.4 169.302 202.733 169.545C203.071 169.787 203.515 169.937 204.069 169.987V165.779C203.607 165.622 203.213 165.494 202.899 165.372C202.585 165.251 202.363 165.165 202.246 165.101C202.049 165.001 201.858 164.866 201.673 164.695C201.489 164.531 201.347 164.352 201.236 164.174C200.959 163.703 200.824 163.14 200.824 162.484C200.824 162.141 200.867 161.799 200.959 161.478C201.045 161.15 201.175 160.85 201.335 160.565C201.495 160.287 201.686 160.03 201.914 159.809C202.141 159.588 202.388 159.402 202.652 159.26C202.843 159.16 203.059 159.067 203.299 158.989C203.545 158.91 203.804 158.839 204.081 158.775V157.526C204.081 156.977 204.321 156.699 204.795 156.699C205.27 156.699 205.528 156.977 205.528 157.526V158.775C206.477 158.939 207.234 159.288 207.801 159.823C208.367 160.358 208.644 160.993 208.644 161.735C208.644 162.134 208.533 162.462 208.312 162.726C208.09 162.99 207.813 163.118 207.48 163.118C207.185 163.118 206.932 163.011 206.735 162.805C206.538 162.591 206.44 162.341 206.44 162.048ZM202.609 162.198C202.609 162.605 202.72 162.926 202.948 163.147C203.176 163.368 203.552 163.575 204.081 163.753V160.486C203.619 160.565 203.256 160.757 202.997 161.064C202.739 161.371 202.609 161.749 202.609 162.198ZM204.081 163.753C204.081 163.753 204.106 163.775 204.13 163.775C204.186 163.789 204.235 163.803 204.272 163.824C204.309 163.846 204.352 163.86 204.395 163.874L204.081 164.124V163.76V163.753ZM205.528 166.121H205.51C205.454 166.093 205.356 166.078 205.214 166.064L205.528 165.815V166.121ZM207.234 167.94C207.234 167.412 207.099 167.013 206.834 166.727C206.569 166.449 206.132 166.242 205.522 166.114V169.959C205.756 169.93 205.959 169.866 206.144 169.766C206.329 169.666 206.507 169.531 206.686 169.359C207.049 169.003 207.234 168.525 207.234 167.94Z" fill="#2A2F7D"/>
<path d="M188.323 221.392C188.323 221.392 201.427 230.244 222.179 221.392C222.179 221.392 219.18 230.394 203.884 230.486C190.502 230.565 188.323 221.392 188.323 221.392Z" fill="#CADEF1"/>
<path d="M203.89 176.956C197.917 176.956 192.313 178.332 187.473 180.736C187.091 178.454 185.841 173.19 182.713 175.437C180.009 177.377 182.005 180.957 183.526 183.026C177.91 186.827 173.734 192.163 171.844 198.304H167.028L165.187 212.534L173.106 216.506C175.403 221.471 179.234 225.75 184.098 228.903L181.771 241H193.44L194.881 233.511C197.744 234.21 200.768 234.595 203.89 234.595C208.231 234.595 212.376 233.86 216.175 232.548V241H227.844V225.7C233.547 220.522 237.057 213.511 237.057 205.779C237.057 189.866 222.204 176.963 203.884 176.963L203.89 176.956Z" stroke="#2A2F7D" stroke-width="4" stroke-linecap="round" stroke-linejoin="round"/>
<path d="M198.766 181.464C198.766 181.464 220.578 176.956 231.022 196.407C231.022 196.407 219.556 180.872 198.766 181.464Z" fill="white" stroke="white" stroke-linecap="round" stroke-linejoin="round"/>
<path d="M203.988 153.832C203.988 153.832 213.201 153.475 215.762 163.91C215.762 163.91 212.997 155.487 203.988 153.832Z" fill="white" stroke="white" stroke-linecap="round" stroke-linejoin="round"/>
<path d="M225.059 188.938H226.559V187.438V170.013V168.513H225.059H222.086H220.586V170.013V175.358H217.037V170.013V168.513H215.537H212.584H211.084V170.013V187.438V188.938H212.584H215.537H217.037V187.438V181.624H220.586V187.438V188.938H222.086H225.059ZM227.748 184.242L227.252 185.116L227.872 185.908C229.43 187.897 231.769 189.252 234.916 189.252C237.123 189.252 238.942 188.532 240.199 187.168C241.436 185.824 241.968 184.028 241.968 182.161C241.968 179.745 241.041 178.101 239.651 177.012C239.5 176.895 239.346 176.785 239.188 176.681L239.797 175.675L241.439 172.958L242.002 172.027L241.292 171.203C239.626 169.268 237.377 168.252 234.75 168.252C232.728 168.252 231.01 169.006 229.803 170.288C228.608 171.557 227.989 173.263 227.989 175.055C227.989 177.373 228.833 178.972 230.129 180.046L229.349 181.421L227.748 184.242ZM234.479 174.491C235.417 174.491 236.436 174.868 237.249 175.735C236.724 175.542 236.223 175.393 235.792 175.266C235.76 175.256 235.728 175.246 235.696 175.237L235.696 175.237C234.884 174.996 234.388 174.842 234.068 174.66C234.047 174.648 234.029 174.637 234.014 174.628C234.018 174.608 234.023 174.596 234.025 174.589C234.027 174.585 234.028 174.582 234.029 174.581C234.029 174.581 234.029 174.581 234.029 174.581C234.03 174.58 234.035 174.576 234.047 174.569C234.06 174.561 234.081 174.551 234.115 174.539C234.183 174.517 234.3 174.491 234.479 174.491ZM234.029 174.581C234.029 174.581 234.029 174.581 234.029 174.581L234.029 174.581ZM231.846 181.251L231.652 180.997C232.518 181.407 233.398 181.66 234.091 181.858C234.14 181.873 234.189 181.887 234.237 181.9C234.269 181.91 234.301 181.92 234.333 181.93C234.679 182.037 234.971 182.127 235.237 182.223C235.531 182.329 235.728 182.42 235.862 182.5C235.919 182.535 235.953 182.561 235.973 182.578C235.973 182.579 235.973 182.579 235.973 182.579C235.973 182.668 235.944 182.739 235.874 182.802C235.802 182.866 235.581 183.012 235.061 183.012C233.75 183.012 232.632 182.281 231.846 181.251ZM257.584 188.938H259.613L259.018 186.999L253.674 169.573L253.349 168.513H252.24H250.448L250.39 168.31L250.331 168.513H248.539H247.432L247.106 169.572L241.741 186.997L241.144 188.938H243.175H246.543H247.664L247.982 187.864L248.537 185.986H252.235L252.775 187.855L253.087 188.938H254.216H257.584ZM250.221 179.721L250.39 179.136L250.558 179.721H250.221Z" fill="#D2202E" stroke="#F5F5F5" stroke-width="3"/>
<path d="M393 166.213H273V205.585H393V166.213Z" fill="white"/>
<path d="M334.709 145.007C330.638 145.007 326.968 146.997 324.375 150.171L347.172 169.351C348.281 167.004 348.921 164.322 348.921 161.462C348.921 152.368 342.56 145 334.709 145V145.007Z" fill="#CADEF1"/>
<path d="M365.813 207.603C366.62 205.114 367.063 202.496 367.063 199.779C367.063 183.866 352.21 170.963 333.89 170.963C327.917 170.963 322.313 172.34 317.473 174.743C317.091 172.461 315.841 167.197 312.713 169.444C310.01 171.384 312.005 174.964 313.526 177.033C307.91 180.835 303.735 186.17 301.844 192.311H297.029L296.167 198.987L307.953 204.009C307.953 204.009 313.027 184.565 342.899 186.298C353.823 186.933 362.949 196.284 365.813 207.603Z" fill="#CADEF1"/>
<path d="M311.875 193.523C312.8 193.523 313.55 192.118 313.55 190.385C313.55 188.652 312.8 187.247 311.875 187.247C310.95 187.247 310.2 188.652 310.2 190.385C310.2 192.118 310.95 193.523 311.875 193.523Z" fill="#2A2F7D"/>
<path d="M323.581 171.719C321.648 168.909 320.496 165.349 320.496 161.476C320.496 152.382 326.857 145.014 334.709 145.014C342.56 145.014 348.921 152.382 348.921 161.476C348.921 165.62 347.597 169.408 345.411 172.304" stroke="#2A2F7D" stroke-width="4" stroke-linecap="round" stroke-linejoin="round"/>
<path d="M367.266 195.15C369.397 194.422 374.268 194.294 374.97 190.82C375.438 188.488 373.43 186.983 371.885 188.716C368.153 192.917 375.271 196.027 377.71 196.098" stroke="#2A2F7D" stroke-width="4" stroke-linecap="round" stroke-linejoin="round"/>
<path d="M336.44 156.048C336.44 155.777 336.538 155.535 336.735 155.321C336.557 154.85 336.156 154.572 335.522 154.494V158.145L335.707 158.203C336.058 158.302 336.409 158.417 336.754 158.531C337.099 158.645 337.345 158.752 337.499 158.837C337.665 158.937 337.831 159.08 338.004 159.251C338.176 159.422 338.33 159.622 338.478 159.836C338.841 160.371 339.026 161.013 339.026 161.755C339.026 162.446 338.86 163.096 338.521 163.702C338.182 164.308 337.733 164.765 337.166 165.057C336.957 165.185 336.711 165.3 336.427 165.399C336.144 165.499 335.842 165.592 335.522 165.67V167.019C335.522 167.504 335.276 167.746 334.789 167.746C334.303 167.746 334.075 167.504 334.075 167.019V165.692C332.905 165.563 331.987 165.193 331.329 164.586C330.67 163.98 330.343 163.181 330.343 162.197C330.343 161.619 330.473 161.155 330.731 160.806C330.99 160.456 331.335 160.278 331.766 160.278C332.061 160.278 332.32 160.392 332.535 160.621C332.751 160.849 332.856 161.134 332.856 161.469C332.856 161.776 332.8 162.018 332.683 162.19C332.566 162.361 332.363 162.482 332.08 162.546C332.178 162.967 332.4 163.302 332.733 163.545C333.071 163.787 333.515 163.937 334.069 163.987V159.779C333.607 159.622 333.213 159.494 332.899 159.372C332.585 159.251 332.363 159.165 332.246 159.101C332.049 159.001 331.858 158.866 331.673 158.695C331.489 158.531 331.347 158.352 331.236 158.174C330.959 157.703 330.824 157.14 330.824 156.484C330.824 156.141 330.867 155.799 330.959 155.478C331.045 155.15 331.175 154.85 331.335 154.565C331.495 154.287 331.686 154.03 331.914 153.809C332.141 153.588 332.388 153.402 332.652 153.26C332.843 153.16 333.059 153.067 333.299 152.989C333.545 152.91 333.804 152.839 334.081 152.775V151.526C334.081 150.977 334.321 150.699 334.795 150.699C335.27 150.699 335.528 150.977 335.528 151.526V152.775C336.477 152.939 337.234 153.288 337.801 153.823C338.367 154.358 338.644 154.993 338.644 155.735C338.644 156.134 338.533 156.462 338.312 156.726C338.09 156.99 337.813 157.118 337.48 157.118C337.185 157.118 336.932 157.011 336.735 156.805C336.538 156.591 336.44 156.341 336.44 156.048ZM332.609 156.198C332.609 156.605 332.72 156.926 332.948 157.147C333.176 157.368 333.552 157.575 334.081 157.753V154.486C333.619 154.565 333.256 154.757 332.997 155.064C332.739 155.371 332.609 155.749 332.609 156.198ZM334.081 157.753C334.081 157.753 334.106 157.775 334.13 157.775C334.186 157.789 334.235 157.803 334.272 157.824C334.309 157.846 334.352 157.86 334.395 157.874L334.081 158.124V157.76V157.753ZM335.528 160.121H335.51C335.454 160.093 335.356 160.078 335.214 160.064L335.528 159.815V160.121ZM337.234 161.94C337.234 161.412 337.099 161.013 336.834 160.727C336.569 160.449 336.132 160.242 335.522 160.114V163.959C335.756 163.93 335.959 163.866 336.144 163.766C336.329 163.666 336.507 163.531 336.686 163.359C337.049 163.003 337.234 162.525 337.234 161.94Z" fill="#2A2F7D"/>
<path d="M318.323 215.392C318.323 215.392 331.427 224.244 352.179 215.392C352.179 215.392 349.18 224.394 333.884 224.486C320.503 224.565 318.323 215.392 318.323 215.392Z" fill="#CADEF1"/>
<path d="M333.89 170.956C327.917 170.956 322.313 172.332 317.473 174.736C317.091 172.454 315.841 167.19 312.713 169.437C310.01 171.377 312.005 174.957 313.526 177.026C307.91 180.827 303.735 186.163 301.844 192.304H297.029L295.188 206.534L303.107 210.506C305.404 215.471 309.234 219.75 314.099 222.903L311.771 235H323.44L324.881 227.511C327.745 228.21 330.768 228.595 333.89 228.595C338.232 228.595 342.376 227.86 346.175 226.548V235H357.845V219.7C363.547 214.522 367.057 207.511 367.057 199.779C367.057 183.866 352.204 170.963 333.884 170.963L333.89 170.956Z" stroke="#2A2F7D" stroke-width="4" stroke-linecap="round" stroke-linejoin="round"/>
<path d="M328.766 175.464C328.766 175.464 350.578 170.956 361.021 190.407C361.021 190.407 349.555 174.872 328.766 175.464Z" fill="white" stroke="white" stroke-linecap="round" stroke-linejoin="round"/>
<path d="M333.988 147.832C333.988 147.832 343.201 147.475 345.762 157.91C345.762 157.91 342.997 149.487 333.988 147.832Z" fill="white" stroke="white" stroke-linecap="round" stroke-linejoin="round"/>
<path d="M139 289.213H19V328.585H139V289.213Z" fill="white"/>
<path d="M80.7085 268.007C76.6381 268.007 72.968 269.997 70.3755 273.171L93.1722 292.351C94.2807 290.004 94.9211 287.322 94.9211 284.462C94.9211 275.368 88.5599 268 80.7085 268V268.007Z" fill="#CADEF1"/>
<path d="M111.813 330.603C112.619 328.114 113.063 325.496 113.063 322.779C113.063 306.866 98.2098 293.963 79.8899 293.963C73.9167 293.963 68.3129 295.34 63.4728 297.743C63.091 295.461 61.8409 290.197 58.7127 292.444C56.0093 294.384 58.0045 297.964 59.5255 300.033C53.9095 303.835 49.7344 309.17 47.8439 315.311H43.0284L42.1663 321.987L53.9526 327.009C53.9526 327.009 59.0267 307.565 88.899 309.298C99.8232 309.933 108.949 319.284 111.813 330.603Z" fill="#CADEF1"/>
<path d="M57.8754 316.523C58.8005 316.523 59.5504 315.118 59.5504 313.385C59.5504 311.652 58.8005 310.247 57.8754 310.247C56.9503 310.247 56.2004 311.652 56.2004 313.385C56.2004 315.118 56.9503 316.523 57.8754 316.523Z" fill="#2A2F7D"/>
<path d="M69.5812 294.719C67.6476 291.909 66.4961 288.349 66.4961 284.476C66.4961 275.382 72.8573 268.014 80.7086 268.014C88.56 268.014 94.9212 275.382 94.9212 284.476C94.9212 288.62 93.5972 292.408 91.4112 295.304" stroke="#2A2F7D" stroke-width="4" stroke-linecap="round" stroke-linejoin="round"/>
<path d="M113.266 318.15C115.397 317.422 120.268 317.294 120.97 313.82C121.438 311.488 119.43 309.983 117.885 311.716C114.153 315.917 121.271 319.027 123.71 319.098" stroke="#2A2F7D" stroke-width="4" stroke-linecap="round" stroke-linejoin="round"/>
<path d="M82.4396 279.048C82.4396 278.777 82.5382 278.535 82.7352 278.321C82.5566 277.85 82.1564 277.572 81.5221 277.494V281.145L81.7068 281.203C82.0578 281.302 82.4088 281.417 82.7537 281.531C83.0985 281.645 83.3448 281.752 83.4988 281.837C83.6651 281.937 83.8313 282.08 84.0038 282.251C84.1762 282.422 84.3301 282.622 84.4779 282.836C84.8412 283.371 85.026 284.013 85.026 284.755C85.026 285.446 84.8597 286.096 84.521 286.702C84.1823 287.308 83.7328 287.765 83.1663 288.057C82.9569 288.185 82.7106 288.3 82.4273 288.399C82.1441 288.499 81.8423 288.592 81.5221 288.67V290.019C81.5221 290.504 81.2758 290.746 80.7893 290.746C80.3028 290.746 80.075 290.504 80.075 290.019V288.692C78.905 288.563 77.9874 288.193 77.3285 287.586C76.6696 286.98 76.3433 286.181 76.3433 285.197C76.3433 284.619 76.4726 284.155 76.7312 283.806C76.9898 283.456 77.3347 283.278 77.7657 283.278C78.0613 283.278 78.32 283.392 78.5355 283.621C78.751 283.849 78.8557 284.134 78.8557 284.469C78.8557 284.776 78.8003 285.018 78.6833 285.19C78.5663 285.361 78.3631 285.482 78.0798 285.546C78.1783 285.967 78.4 286.302 78.7325 286.545C79.0712 286.787 79.5146 286.937 80.0688 286.987V282.779C79.607 282.622 79.2129 282.494 78.8988 282.372C78.5848 282.251 78.3631 282.165 78.2461 282.101C78.049 282.001 77.8581 281.866 77.6734 281.695C77.4886 281.531 77.347 281.352 77.2362 281.174C76.9591 280.703 76.8236 280.14 76.8236 279.484C76.8236 279.141 76.8667 278.799 76.9591 278.478C77.0453 278.15 77.1746 277.85 77.3347 277.565C77.4948 277.287 77.6857 277.03 77.9135 276.809C78.1414 276.588 78.3877 276.402 78.6525 276.26C78.8434 276.16 79.0589 276.067 79.2991 275.989C79.5454 275.91 79.804 275.839 80.0811 275.775V274.526C80.0811 273.977 80.3213 273.699 80.7955 273.699C81.2696 273.699 81.5283 273.977 81.5283 274.526V275.775C82.4766 275.939 83.234 276.288 83.8005 276.823C84.3671 277.358 84.6442 277.993 84.6442 278.735C84.6442 279.134 84.5333 279.462 84.3116 279.726C84.09 279.99 83.8129 280.118 83.4803 280.118C83.1847 280.118 82.9323 280.011 82.7352 279.805C82.5382 279.591 82.4396 279.341 82.4396 279.048ZM78.6094 279.198C78.6094 279.605 78.7202 279.926 78.9481 280.147C79.1759 280.368 79.5516 280.575 80.0811 280.753V277.486C79.6193 277.565 79.256 277.757 78.9973 278.064C78.7387 278.371 78.6094 278.749 78.6094 279.198ZM80.0811 280.753C80.0811 280.753 80.1058 280.775 80.1304 280.775C80.1858 280.789 80.2351 280.803 80.272 280.824C80.309 280.846 80.3521 280.86 80.3952 280.874L80.0811 281.124V280.76V280.753ZM81.5283 283.121H81.5098C81.4544 283.093 81.3558 283.078 81.2142 283.064L81.5283 282.815V283.121ZM83.234 284.94C83.234 284.412 83.0985 284.013 82.8337 283.727C82.569 283.449 82.1317 283.242 81.5221 283.114V286.959C81.7561 286.93 81.9593 286.866 82.1441 286.766C82.3288 286.666 82.5074 286.531 82.6859 286.359C83.0493 286.003 83.234 285.525 83.234 284.94Z" fill="#2A2F7D"/>
<path d="M64.3225 338.392C64.3225 338.392 77.4266 347.244 98.1789 338.392C98.1789 338.392 95.18 347.394 79.8837 347.486C66.5024 347.565 64.3225 338.392 64.3225 338.392Z" fill="#CADEF1"/>
<path d="M79.89 293.956C73.9168 293.956 68.313 295.332 63.4729 297.736C63.0911 295.454 61.841 290.19 58.7128 292.437C56.0094 294.377 58.0046 297.957 59.5256 300.026C53.9096 303.827 49.7345 309.163 47.844 315.304H43.0285L41.1873 329.534L49.1064 333.506C51.4033 338.471 55.2335 342.75 60.0983 345.903L57.7706 358H69.4399L70.8809 350.511C73.7443 351.21 76.7679 351.595 79.89 351.595C84.2313 351.595 88.3756 350.86 92.1751 349.548V358H103.844V342.7C109.547 337.522 113.057 330.511 113.057 322.779C113.057 306.866 98.2037 293.963 79.8838 293.963L79.89 293.956Z" stroke="#2A2F7D" stroke-width="4" stroke-linecap="round" stroke-linejoin="round"/>
<path d="M74.7664 298.464C74.7664 298.464 96.5778 293.956 107.022 313.407C107.022 313.407 95.5556 297.872 74.7664 298.464Z" fill="white" stroke="white" stroke-linecap="round" stroke-linejoin="round"/>
<path d="M79.9883 270.832C79.9883 270.832 89.2006 270.475 91.7623 280.91C91.7623 280.91 88.9974 272.487 79.9883 270.832Z" fill="white" stroke="white" stroke-linecap="round" stroke-linejoin="round"/>
<mask id="path-90-outside-1_44_2" maskUnits="userSpaceOnUse" x="89" y="279.727" width="42" height="41" fill="black">
<rect fill="white" x="89" y="279.727" width="42" height="41"/>
<path fill-rule="evenodd" clip-rule="evenodd" d="M110.495 283.627C110.374 282.427 108.626 282.427 108.505 283.627L108.445 284.221C108.386 284.81 108.848 285.321 109.44 285.321H109.56C110.152 285.321 110.614 284.81 110.555 284.221L110.495 283.627ZM122.332 290.151C122.842 290.29 123.156 290.802 123.048 291.319L122.832 292.359C122.828 292.38 122.806 292.394 122.785 292.388C122.754 292.38 122.728 292.409 122.738 292.438L126.051 301.544C126.136 301.779 126.297 302.035 126.463 302.298C126.723 302.711 126.993 303.141 126.999 303.532C127 303.567 127 303.603 127 303.64C127 306.763 124.991 309.294 122.513 309.294C120.035 309.294 118.026 306.763 118.026 303.64C118.026 303.603 118.026 303.567 118.027 303.532C118.033 303.141 118.304 302.711 118.563 302.298C118.729 302.035 118.89 301.779 118.975 301.544L121.978 293.29C122.178 292.74 121.866 292.137 121.301 291.983L98.5888 285.787C97.8063 285.573 97.1085 286.331 97.3858 287.093L100.732 296.292C100.738 296.308 100.743 296.329 100.749 296.352C100.762 296.401 100.777 296.456 100.8 296.485C100.914 296.623 100.974 296.93 100.974 297.473C100.974 300.595 98.9654 303.126 96.4872 303.126C94.009 303.126 92 300.595 92 297.473C92 296.93 92.0607 296.622 92.1739 296.485C92.1975 296.456 92.2122 296.401 92.225 296.352C92.231 296.329 92.2366 296.308 92.2425 296.292L96.1909 285.438C96.2452 285.288 96.1603 285.124 96.007 285.083C95.8684 285.045 95.7832 284.906 95.8124 284.765L95.9598 284.056C96.0771 283.492 96.646 283.143 97.2021 283.295L122.332 290.151ZM100.557 296.385C100.562 296.392 100.559 296.402 100.55 296.404C100.295 296.461 99.9333 296.809 99.4925 297.234C98.697 298 97.6431 299.014 96.4872 299.014C95.3312 299.014 94.2774 298 93.4819 297.234C93.041 296.809 92.6795 296.461 92.424 296.404C92.4157 296.402 92.4124 296.392 92.4174 296.385L96.4063 290.902C96.4462 290.847 96.5281 290.847 96.568 290.902L100.557 296.385ZM125.684 302.346C125.956 302.718 125.918 303.238 125.611 303.581C124.805 304.479 123.714 305.696 122.513 305.696C121.312 305.696 120.221 304.479 119.415 303.581L119.415 303.581L119.415 303.581C119.108 303.238 119.071 302.718 119.342 302.346L122.432 298.098C122.472 298.043 122.554 298.043 122.594 298.098L125.684 302.346ZM108.516 291.425C108.718 290.333 110.282 290.333 110.483 291.425L115.111 316.52C115.224 317.135 114.752 317.702 114.128 317.702H104.872C104.247 317.702 103.775 317.135 103.889 316.52L108.516 291.425Z"/>
</mask>
<path fill-rule="evenodd" clip-rule="evenodd" d="M110.495 283.627C110.374 282.427 108.626 282.427 108.505 283.627L108.445 284.221C108.386 284.81 108.848 285.321 109.44 285.321H109.56C110.152 285.321 110.614 284.81 110.555 284.221L110.495 283.627ZM122.332 290.151C122.842 290.29 123.156 290.802 123.048 291.319L122.832 292.359C122.828 292.38 122.806 292.394 122.785 292.388C122.754 292.38 122.728 292.409 122.738 292.438L126.051 301.544C126.136 301.779 126.297 302.035 126.463 302.298C126.723 302.711 126.993 303.141 126.999 303.532C127 303.567 127 303.603 127 303.64C127 306.763 124.991 309.294 122.513 309.294C120.035 309.294 118.026 306.763 118.026 303.64C118.026 303.603 118.026 303.567 118.027 303.532C118.033 303.141 118.304 302.711 118.563 302.298C118.729 302.035 118.89 301.779 118.975 301.544L121.978 293.29C122.178 292.74 121.866 292.137 121.301 291.983L98.5888 285.787C97.8063 285.573 97.1085 286.331 97.3858 287.093L100.732 296.292C100.738 296.308 100.743 296.329 100.749 296.352C100.762 296.401 100.777 296.456 100.8 296.485C100.914 296.623 100.974 296.93 100.974 297.473C100.974 300.595 98.9654 303.126 96.4872 303.126C94.009 303.126 92 300.595 92 297.473C92 296.93 92.0607 296.622 92.1739 296.485C92.1975 296.456 92.2122 296.401 92.225 296.352C92.231 296.329 92.2366 296.308 92.2425 296.292L96.1909 285.438C96.2452 285.288 96.1603 285.124 96.007 285.083C95.8684 285.045 95.7832 284.906 95.8124 284.765L95.9598 284.056C96.0771 283.492 96.646 283.143 97.2021 283.295L122.332 290.151ZM100.557 296.385C100.562 296.392 100.559 296.402 100.55 296.404C100.295 296.461 99.9333 296.809 99.4925 297.234C98.697 298 97.6431 299.014 96.4872 299.014C95.3312 299.014 94.2774 298 93.4819 297.234C93.041 296.809 92.6795 296.461 92.424 296.404C92.4157 296.402 92.4124 296.392 92.4174 296.385L96.4063 290.902C96.4462 290.847 96.5281 290.847 96.568 290.902L100.557 296.385ZM125.684 302.346C125.956 302.718 125.918 303.238 125.611 303.581C124.805 304.479 123.714 305.696 122.513 305.696C121.312 305.696 120.221 304.479 119.415 303.581L119.415 303.581L119.415 303.581C119.108 303.238 119.071 302.718 119.342 302.346L122.432 298.098C122.472 298.043 122.554 298.043 122.594 298.098L125.684 302.346ZM108.516 291.425C108.718 290.333 110.282 290.333 110.483 291.425L115.111 316.52C115.224 317.135 114.752 317.702 114.128 317.702H104.872C104.247 317.702 103.775 317.135 103.889 316.52L108.516 291.425Z" fill="#D2202E"/>
<path d="M108.505 283.627L105.52 283.326V283.326L108.505 283.627ZM110.495 283.627L113.48 283.326V283.326L110.495 283.627ZM108.445 284.221L111.43 284.522V284.522L108.445 284.221ZM110.555 284.221L107.57 284.522V284.522L110.555 284.221ZM123.048 291.319L120.111 290.709L120.111 290.709L123.048 291.319ZM122.332 290.151L121.543 293.045L122.332 290.151ZM122.832 292.359L125.769 292.969L125.769 292.969L122.832 292.359ZM122.785 292.388L123.574 289.494L123.574 289.494L122.785 292.388ZM122.738 292.438L119.919 293.463L119.919 293.464L122.738 292.438ZM126.051 301.544L123.231 302.569L123.231 302.569L126.051 301.544ZM126.463 302.298L129.002 300.701L129.002 300.701L126.463 302.298ZM126.999 303.532L129.999 303.484L129.999 303.483L126.999 303.532ZM118.027 303.532L121.026 303.581L121.026 303.581L118.027 303.532ZM118.563 302.298L121.102 303.896L121.102 303.896L118.563 302.298ZM118.975 301.544L121.795 302.569L121.795 302.569L118.975 301.544ZM121.978 293.29L119.159 292.264V292.264L121.978 293.29ZM121.301 291.983L120.512 294.877L121.301 291.983ZM98.5888 285.787L99.3783 282.893L99.3783 282.893L98.5888 285.787ZM97.3858 287.093L100.205 286.068V286.068L97.3858 287.093ZM100.732 296.292L103.551 295.266L103.551 295.266L100.732 296.292ZM100.749 296.352L103.65 295.586L103.65 295.586L100.749 296.352ZM100.8 296.485L98.4836 298.391L98.4836 298.391L100.8 296.485ZM92.1739 296.485L89.8571 294.579L89.8571 294.579L92.1739 296.485ZM92.225 296.352L95.1257 297.118L95.1257 297.118L92.225 296.352ZM92.2425 296.292L95.0618 297.317L95.0618 297.317L92.2425 296.292ZM96.1909 285.438L93.3716 284.412L93.3716 284.412L96.1909 285.438ZM96.007 285.083L95.2174 287.977L95.2174 287.977L96.007 285.083ZM95.8124 284.765L92.8753 284.154L92.8753 284.154L95.8124 284.765ZM95.9598 284.056L98.897 284.667L98.897 284.667L95.9598 284.056ZM97.2021 283.295L97.9916 280.401H97.9916L97.2021 283.295ZM100.55 296.404L99.9012 293.475L99.901 293.475L100.55 296.404ZM100.557 296.385L98.1311 298.15L98.1312 298.15L100.557 296.385ZM99.4925 297.234L101.573 299.394H101.573L99.4925 297.234ZM93.4819 297.234L91.4009 299.394L91.4009 299.394L93.4819 297.234ZM92.424 296.404L91.7744 299.333L91.7744 299.333L92.424 296.404ZM92.4174 296.385L94.8432 298.15L94.8433 298.15L92.4174 296.385ZM96.4063 290.902L93.9803 289.137L93.9803 289.137L96.4063 290.902ZM96.568 290.902L94.1421 292.667L94.1421 292.667L96.568 290.902ZM125.611 303.581L123.377 301.578L123.377 301.578L125.611 303.581ZM125.684 302.346L128.11 300.581L125.684 302.346ZM119.415 303.581L121.649 301.578L121.594 301.517L121.537 301.46L119.415 303.581ZM119.415 303.581L117.182 305.584L117.236 305.644L117.294 305.702L119.415 303.581ZM119.342 302.346L121.768 304.111L121.768 304.11L119.342 302.346ZM122.432 298.098L124.858 299.862L124.858 299.862L122.432 298.098ZM122.594 298.098L120.168 299.862L120.168 299.862L122.594 298.098ZM110.483 291.425L107.533 291.969L110.483 291.425ZM108.516 291.425L111.467 291.969L108.516 291.425ZM115.111 316.52L112.161 317.064L115.111 316.52ZM103.889 316.52L106.839 317.064L106.839 317.064L103.889 316.52ZM111.49 283.927C111.443 284.396 111.199 284.905 110.753 285.271C110.347 285.604 109.889 285.727 109.5 285.727C109.111 285.727 108.653 285.604 108.247 285.271C107.801 284.905 107.557 284.396 107.51 283.927L113.48 283.326C112.996 278.527 106.004 278.527 105.52 283.326L111.49 283.927ZM111.43 284.522L111.49 283.927L105.52 283.326L105.46 283.92L111.43 284.522ZM109.44 282.321C110.624 282.321 111.549 283.344 111.43 284.522L105.46 283.92C105.223 286.276 107.072 288.321 109.44 288.321V282.321ZM109.56 282.321H109.44V288.321H109.56V282.321ZM107.57 284.522C107.451 283.344 108.376 282.321 109.56 282.321V288.321C111.928 288.321 113.777 286.276 113.54 283.92L107.57 284.522ZM107.51 283.927L107.57 284.522L113.54 283.92L113.48 283.326L107.51 283.927ZM125.985 291.93C126.416 289.86 125.161 287.813 123.122 287.257L121.543 293.045C120.523 292.767 119.896 291.743 120.111 290.709L125.985 291.93ZM125.769 292.969L125.985 291.93L120.111 290.709L119.895 291.748L125.769 292.969ZM121.995 295.282C123.685 295.743 125.413 294.684 125.769 292.969L119.895 291.748C120.243 290.077 121.927 289.044 123.574 289.494L121.995 295.282ZM125.558 291.413C126.379 293.67 124.312 295.914 121.995 295.282L123.574 289.494C121.197 288.845 119.077 291.148 119.919 293.463L125.558 291.413ZM128.87 300.518L125.558 291.412L119.919 293.464L123.231 302.569L128.87 300.518ZM129.002 300.701C128.959 300.632 128.927 300.581 128.897 300.532C128.868 300.485 128.849 300.453 128.836 300.43C128.823 300.407 128.821 300.402 128.826 300.413C128.831 300.423 128.848 300.459 128.87 300.518L123.231 302.569C123.449 303.169 123.812 303.719 123.924 303.896L129.002 300.701ZM129.999 303.483C129.985 302.652 129.706 301.985 129.525 301.614C129.339 301.23 129.113 300.876 129.002 300.701L123.924 303.896C123.992 304.005 124.037 304.076 124.075 304.141C124.093 304.17 124.106 304.193 124.115 304.209C124.124 304.225 124.127 304.233 124.127 304.232C124.127 304.231 124.121 304.219 124.112 304.197C124.103 304.175 124.089 304.138 124.074 304.088C124.046 303.992 124.004 303.816 124 303.581L129.999 303.483ZM130 303.64C130 303.588 130 303.535 129.999 303.484L124 303.581C124 303.599 124 303.618 124 303.64H130ZM122.513 312.294C127.258 312.294 130 307.736 130 303.64H124C124 304.574 123.697 305.318 123.336 305.773C122.979 306.223 122.668 306.294 122.513 306.294V312.294ZM115.026 303.64C115.026 307.736 117.769 312.294 122.513 312.294V306.294C122.358 306.294 122.047 306.223 121.69 305.773C121.329 305.318 121.026 304.574 121.026 303.64H115.026ZM115.027 303.483C115.026 303.535 115.026 303.588 115.026 303.64H121.026C121.026 303.618 121.026 303.599 121.026 303.581L115.027 303.483ZM116.024 300.701C115.913 300.876 115.687 301.23 115.501 301.614C115.321 301.985 115.041 302.652 115.027 303.483L121.026 303.581C121.023 303.816 120.981 303.992 120.952 304.088C120.937 304.138 120.923 304.175 120.914 304.197C120.905 304.219 120.9 304.231 120.899 304.232C120.899 304.233 120.903 304.225 120.912 304.209C120.92 304.193 120.933 304.17 120.951 304.141C120.989 304.076 121.034 304.005 121.102 303.896L116.024 300.701ZM116.156 300.518C116.178 300.459 116.195 300.423 116.2 300.413C116.205 300.402 116.203 300.407 116.19 300.43C116.177 300.453 116.158 300.485 116.129 300.532C116.099 300.581 116.067 300.632 116.024 300.701L121.102 303.896C121.214 303.719 121.577 303.169 121.795 302.569L116.156 300.518ZM119.159 292.264L116.156 300.518L121.795 302.569L124.797 294.315L119.159 292.264ZM120.512 294.877C119.383 294.57 118.759 293.363 119.159 292.264L124.797 294.315C125.597 292.117 124.348 289.705 122.091 289.089L120.512 294.877ZM97.7992 288.681L120.512 294.877L122.091 289.089L99.3783 282.893L97.7992 288.681ZM100.205 286.068C100.76 287.592 99.3641 289.108 97.7992 288.681L99.3783 282.893C96.2484 282.039 93.4575 285.07 94.5665 288.119L100.205 286.068ZM103.551 295.266L100.205 286.068L94.5665 288.119L97.9126 297.317L103.551 295.266ZM103.65 295.586C103.649 295.581 103.638 295.542 103.626 295.5C103.615 295.46 103.59 295.372 103.551 295.266L97.9126 297.317C97.895 297.269 97.882 297.229 97.8735 297.202C97.8648 297.174 97.8584 297.152 97.8547 297.139C97.8485 297.117 97.8441 297.1 97.8487 297.118L103.65 295.586ZM103.117 294.579C103.306 294.808 103.419 295.017 103.479 295.139C103.542 295.269 103.582 295.376 103.603 295.437C103.64 295.544 103.663 295.634 103.65 295.586L97.8487 297.118C97.8489 297.118 97.8849 297.261 97.9386 297.415C97.9751 297.52 98.1242 297.954 98.4836 298.391L103.117 294.579ZM103.974 297.473C103.974 297.112 103.956 296.701 103.882 296.292C103.819 295.946 103.657 295.235 103.117 294.579L98.4836 298.391C98.2527 298.11 98.1325 297.848 98.0724 297.69C98.011 297.529 97.9866 297.409 97.9779 297.361C97.9624 297.276 97.9744 297.29 97.9744 297.473H103.974ZM96.4872 306.126C101.232 306.126 103.974 301.568 103.974 297.473H97.9744C97.9744 298.406 97.6713 299.15 97.3102 299.605C96.9533 300.055 96.6419 300.126 96.4872 300.126V306.126ZM89 297.473C89 301.568 91.7427 306.126 96.4872 306.126V300.126C96.3325 300.126 96.0211 300.055 95.6641 299.605C95.303 299.15 95 298.406 95 297.473H89ZM89.8571 294.579C89.3174 295.235 89.1552 295.946 89.0925 296.292C89.0184 296.701 89 297.112 89 297.473H95C95 297.29 95.0119 297.276 94.9965 297.361C94.9878 297.409 94.9634 297.529 94.902 297.69C94.8419 297.848 94.7217 298.11 94.4907 298.391L89.8571 294.579ZM89.3244 295.586C89.3117 295.634 89.334 295.544 89.3712 295.437C89.3925 295.376 89.4323 295.269 89.4957 295.139C89.5558 295.017 89.6688 294.808 89.8571 294.579L94.4907 298.391C94.8502 297.954 94.9993 297.519 95.0358 297.415C95.0895 297.261 95.1255 297.118 95.1257 297.118L89.3244 295.586ZM89.4233 295.266C89.3847 295.372 89.3592 295.46 89.3479 295.5C89.3359 295.542 89.3257 295.581 89.3244 295.586L95.1257 297.118C95.1303 297.1 95.1258 297.117 95.1197 297.139C95.1159 297.152 95.1096 297.174 95.1009 297.202C95.0923 297.229 95.0793 297.269 95.0618 297.317L89.4233 295.266ZM93.3716 284.412L89.4232 295.266L95.0618 297.317L99.0101 286.463L93.3716 284.412ZM95.2174 287.977C93.6782 287.557 92.8262 285.911 93.3716 284.412L99.0101 286.463C99.6642 284.665 98.6425 282.692 96.7966 282.188L95.2174 287.977ZM92.8753 284.154C92.5233 285.847 93.5493 287.522 95.2174 287.977L96.7966 282.188C98.1876 282.568 99.0431 283.964 98.7496 285.376L92.8753 284.154ZM93.0226 283.446L92.8753 284.154L98.7496 285.376L98.897 284.667L93.0226 283.446ZM97.9916 280.401C95.7674 279.794 93.492 281.188 93.0226 283.446L98.897 284.667C98.6623 285.796 97.5246 286.493 96.4125 286.189L97.9916 280.401ZM123.122 287.257L97.9916 280.401L96.4125 286.189L121.543 293.045L123.122 287.257ZM101.2 299.333C102.412 299.064 103.134 298.162 103.407 297.339C103.673 296.534 103.622 295.499 102.983 294.62L98.1312 298.15C97.4966 297.278 97.4463 296.252 97.7107 295.453C97.9805 294.639 98.6972 293.742 99.9012 293.475L101.2 299.333ZM101.573 299.394C101.688 299.285 101.775 299.2 101.855 299.126C101.935 299.052 101.981 299.011 102.006 298.99C102.037 298.965 102 298.999 101.912 299.053C101.865 299.082 101.785 299.128 101.676 299.177C101.569 299.225 101.407 299.287 101.2 299.333L99.901 293.475C98.9981 293.676 98.3533 294.225 98.1756 294.372C97.8942 294.605 97.6057 294.886 97.4116 295.073L101.573 299.394ZM96.4872 302.014C97.9373 302.014 99.093 301.387 99.8267 300.882C100.57 300.37 101.205 299.749 101.573 299.394L97.4116 295.073C96.9846 295.484 96.695 295.753 96.4233 295.941C96.1423 296.134 96.193 296.014 96.4872 296.014V302.014ZM91.4009 299.394C91.7695 299.749 92.4045 300.37 93.1477 300.882C93.8814 301.387 95.0371 302.014 96.4872 302.014V296.014C96.7813 296.014 96.8321 296.134 96.551 295.941C96.2794 295.753 95.9897 295.484 95.5628 295.073L91.4009 299.394ZM91.7744 299.333C91.567 299.287 91.4056 299.225 91.2981 299.177C91.1893 299.128 91.1094 299.082 91.0621 299.053C90.9744 298.999 90.9378 298.965 90.9681 298.99C90.993 299.011 91.0398 299.052 91.1196 299.126C91.1991 299.2 91.2868 299.285 91.4009 299.394L95.5628 295.073C95.3687 294.886 95.0801 294.605 94.7988 294.372C94.621 294.225 93.9764 293.676 93.0735 293.475L91.7744 299.333ZM89.9915 294.62C89.352 295.499 89.3009 296.533 89.5677 297.339C89.8399 298.161 90.5622 299.064 91.7744 299.333L93.0735 293.475C94.2775 293.742 94.994 294.639 95.2637 295.454C95.528 296.252 95.4778 297.278 94.8432 298.15L89.9915 294.62ZM93.9803 289.137L89.9914 294.62L94.8433 298.15L98.8322 292.667L93.9803 289.137ZM98.9939 289.137C97.7559 287.435 95.2183 287.435 93.9803 289.137L98.8322 292.667C97.6741 294.259 95.3002 294.259 94.1421 292.667L98.9939 289.137ZM102.983 294.62L98.9939 289.137L94.1421 292.667L98.1311 298.15L102.983 294.62ZM127.844 305.584C129.055 304.233 129.25 302.147 128.11 300.581L123.259 304.11C122.661 303.29 122.782 302.242 123.377 301.578L127.844 305.584ZM122.513 308.696C124.118 308.696 125.352 307.901 126.078 307.323C126.832 306.723 127.471 306 127.844 305.584L123.377 301.578C122.945 302.06 122.636 302.395 122.343 302.627C122.21 302.733 122.149 302.761 122.156 302.758C122.171 302.751 122.299 302.696 122.513 302.696V308.696ZM117.182 305.584C117.555 306 118.194 306.723 118.948 307.323C119.674 307.901 120.908 308.696 122.513 308.696V302.696C122.727 302.696 122.855 302.751 122.87 302.758C122.877 302.761 122.816 302.733 122.683 302.627C122.391 302.395 122.081 302.06 121.649 301.578L117.182 305.584ZM117.294 305.702L117.294 305.702L121.537 301.46L121.537 301.46L117.294 305.702ZM117.294 305.702L117.294 305.702L121.537 301.46L121.537 301.46L117.294 305.702ZM116.916 300.581C115.776 302.147 115.971 304.233 117.182 305.584L121.649 301.578C122.244 302.242 122.365 303.289 121.768 304.111L116.916 300.581ZM120.006 296.333L116.916 300.581L121.768 304.11L124.858 299.862L120.006 296.333ZM125.02 296.333C123.782 294.631 121.244 294.631 120.006 296.333L124.858 299.862C123.7 301.454 121.326 301.454 120.168 299.862L125.02 296.333ZM128.11 300.581L125.02 296.333L120.168 299.862L123.259 304.11L128.11 300.581ZM113.433 290.881C112.628 286.515 106.371 286.515 105.566 290.881L111.467 291.969C111.064 294.152 107.936 294.152 107.533 291.969L113.433 290.881ZM118.061 315.976L113.433 290.881L107.533 291.969L112.161 317.064L118.061 315.976ZM114.128 320.702C116.627 320.702 118.515 318.435 118.061 315.976L112.161 317.064C111.934 315.835 112.878 314.702 114.128 314.702V320.702ZM104.872 320.702H114.128V314.702H104.872V320.702ZM100.938 315.976C100.485 318.435 102.372 320.702 104.872 320.702V314.702C106.122 314.702 107.066 315.835 106.839 317.064L100.938 315.976ZM105.566 290.881L100.938 315.976L106.839 317.064L111.467 291.969L105.566 290.881Z" fill="#F5F5F5" mask="url(#path-90-outside-1_44_2)"/>
<path d="M358.87 305.74H164V360.94H358.87V305.74Z" fill="white"/>
<path d="M264.21 276.01C257.6 276.01 251.64 278.8 247.43 283.25L284.45 310.14C286.25 306.85 287.29 303.09 287.29 299.08C287.29 286.33 276.96 276 264.21 276V276.01Z" fill="#CADEF1"/>
<path d="M314.72 363.77C316.03 360.28 316.75 356.61 316.75 352.8C316.75 330.49 292.63 312.4 262.88 312.4C253.18 312.4 244.08 314.33 236.22 317.7C235.6 314.5 233.57 307.12 228.49 310.27C224.1 312.99 227.34 318.01 229.81 320.91C220.69 326.24 213.91 333.72 210.84 342.33H203.02L201.62 351.69L220.76 358.73C220.76 358.73 229 331.47 277.51 333.9C295.25 334.79 310.07 347.9 314.72 363.77Z" fill="#CADEF1"/>
<path d="M227.13 344.03C228.632 344.03 229.85 342.06 229.85 339.63C229.85 337.2 228.632 335.23 227.13 335.23C225.628 335.23 224.41 337.2 224.41 339.63C224.41 342.06 225.628 344.03 227.13 344.03Z" fill="#2A2F7D"/>
<path d="M246.14 313.46C243 309.52 241.13 304.53 241.13 299.1C241.13 286.35 251.46 276.02 264.21 276.02C276.96 276.02 287.29 286.35 287.29 299.1C287.29 304.91 285.14 310.22 281.59 314.28" stroke="#2A2F7D" stroke-width="4" stroke-linecap="round" stroke-linejoin="round"/>
<path d="M317.08 346.31C320.54 345.29 328.45 345.11 329.59 340.24C330.35 336.97 327.09 334.86 324.58 337.29C318.52 343.18 330.08 347.54 334.04 347.64" stroke="#2A2F7D" stroke-width="4" stroke-linecap="round" stroke-linejoin="round"/>
<path d="M267.02 291.49C267.02 291.11 267.18 290.77 267.5 290.47C267.21 289.81 266.56 289.42 265.53 289.31V294.43L265.83 294.51C266.4 294.65 266.97 294.81 267.53 294.97C268.09 295.13 268.49 295.28 268.74 295.4C269.01 295.54 269.28 295.74 269.56 295.98C269.84 296.22 270.09 296.5 270.33 296.8C270.92 297.55 271.22 298.45 271.22 299.49C271.22 300.46 270.95 301.37 270.4 302.22C269.85 303.07 269.12 303.71 268.2 304.12C267.86 304.3 267.46 304.46 267 304.6C266.54 304.74 266.05 304.87 265.53 304.98V306.87C265.53 307.55 265.13 307.89 264.34 307.89C263.55 307.89 263.18 307.55 263.18 306.87V305.01C261.28 304.83 259.79 304.31 258.72 303.46C257.65 302.61 257.12 301.49 257.12 300.11C257.12 299.3 257.33 298.65 257.75 298.16C258.17 297.67 258.73 297.42 259.43 297.42C259.91 297.42 260.33 297.58 260.68 297.9C261.03 298.22 261.2 298.62 261.2 299.09C261.2 299.52 261.11 299.86 260.92 300.1C260.73 300.34 260.4 300.51 259.94 300.6C260.1 301.19 260.46 301.66 261 302C261.55 302.34 262.27 302.55 263.17 302.62V296.72C262.42 296.5 261.78 296.32 261.27 296.15C260.76 295.98 260.4 295.86 260.21 295.77C259.89 295.63 259.58 295.44 259.28 295.2C258.98 294.97 258.75 294.72 258.57 294.47C258.12 293.81 257.9 293.02 257.9 292.1C257.9 291.62 257.97 291.14 258.12 290.69C258.26 290.23 258.47 289.81 258.73 289.41C258.99 289.02 259.3 288.66 259.67 288.35C260.04 288.04 260.44 287.78 260.87 287.58C261.18 287.44 261.53 287.31 261.92 287.2C262.32 287.09 262.74 286.99 263.19 286.9V285.15C263.19 284.38 263.58 283.99 264.35 283.99C265.12 283.99 265.54 284.38 265.54 285.15V286.9C267.08 287.13 268.31 287.62 269.23 288.37C270.15 289.12 270.6 290.01 270.6 291.05C270.6 291.61 270.42 292.07 270.06 292.44C269.7 292.81 269.25 292.99 268.71 292.99C268.23 292.99 267.82 292.84 267.5 292.55C267.18 292.25 267.02 291.9 267.02 291.49ZM260.8 291.7C260.8 292.27 260.98 292.72 261.35 293.03C261.72 293.34 262.33 293.63 263.19 293.88V289.3C262.44 289.41 261.85 289.68 261.43 290.11C261.01 290.54 260.8 291.07 260.8 291.7ZM263.19 293.88C263.19 293.88 263.23 293.91 263.27 293.91C263.36 293.93 263.44 293.95 263.5 293.98C263.56 294.01 263.63 294.03 263.7 294.05L263.19 294.4V293.89V293.88ZM265.54 297.2H265.51C265.42 297.16 265.26 297.14 265.03 297.12L265.54 296.77V297.2ZM268.31 299.75C268.31 299.01 268.09 298.45 267.66 298.05C267.23 297.66 266.52 297.37 265.53 297.19V302.58C265.91 302.54 266.24 302.45 266.54 302.31C266.84 302.17 267.13 301.98 267.42 301.74C268.01 301.24 268.31 300.57 268.31 299.75Z" fill="#2A2F7D"/>
<path d="M237.6 374.69C237.6 374.69 258.88 387.1 292.58 374.69C292.58 374.69 287.71 387.31 262.87 387.44C241.14 387.55 237.6 374.69 237.6 374.69Z" fill="#CADEF1"/>
<path d="M262.88 312.39C253.18 312.39 244.08 314.32 236.22 317.69C235.6 314.49 233.57 307.11 228.49 310.26C224.1 312.98 227.34 318 229.81 320.9C220.69 326.23 213.91 333.71 210.84 342.32H203.02L200.03 362.27L212.89 367.84C216.62 374.8 222.84 380.8 230.74 385.22L226.96 402.18H245.91L248.25 391.68C252.9 392.66 257.81 393.2 262.88 393.2C269.93 393.2 276.66 392.17 282.83 390.33V402.18H301.78V380.73C311.04 373.47 316.74 363.64 316.74 352.8C316.74 330.49 292.62 312.4 262.87 312.4L262.88 312.39Z" stroke="#2A2F7D" stroke-width="4" stroke-linecap="round" stroke-linejoin="round"/>
<path d="M254.56 318.71C254.56 318.71 289.98 312.39 306.94 339.66C306.94 339.66 288.32 317.88 254.56 318.71Z" fill="white" stroke="white" stroke-linecap="round" stroke-linejoin="round"/>
<path d="M263.04 279.97C263.04 279.97 278 279.47 282.16 294.1C282.16 294.1 277.67 282.29 263.04 279.97Z" fill="white" stroke="white" stroke-linecap="round" stroke-linejoin="round"/>
<path d="M83.7328 407.08L81.5752 418.38H85.56L83.6259 425.25H86.7457L84.0535 432.13L103.083 432.12L84.4812 405.75L83.7328 407.08Z" fill="#CBDEF0"/>
<path d="M110.178 456.07L86.1042 455.96L88.2521 446.43H83.9466L85.8807 437.12H70.1553L73.0515 432.12H94.6764L110.178 456.07Z" fill="#CBDEF0"/>
<path d="M114.921 478.68L90.8375 478.57L92.9951 469.04H88.6895L90.6236 459.73H65.4221L68.1046 456.28H99.1958L114.921 478.68Z" fill="#CBDEF0"/>
<path d="M116 478.52L98.7973 456.07H110.178L94.6764 432.12H103.083L83.7813 404.86L64.9069 432.12H73.0515L57.8217 456.07H68.8917L52 478.52H116Z" stroke="#2A2F7D" stroke-width="3" stroke-linecap="round" stroke-linejoin="round"/>
<path d="M90.4586 491.49H76.5701L78.5139 483.01H88.5148L90.4586 491.49Z" fill="#2A2F7D" stroke="#2A2F7D" stroke-width="3" stroke-linecap="round" stroke-linejoin="round"/>
<path d="M68.8916 456.06H99.7788" stroke="#2A2F7D" stroke-width="3" stroke-linecap="round" stroke-linejoin="round"/>
<path d="M66.4912 431.9H99.779" stroke="#2A2F7D" stroke-width="3" stroke-linecap="round" stroke-linejoin="round"/>
<path d="M89.104 386.369L86.5575 378.123C85.6287 375.115 81.3713 375.115 80.4424 378.123L77.8959 386.369H69.5471C66.4863 386.369 65.1721 390.253 67.6042 392.111L74.4917 397.374L71.8824 405.823C70.9631 408.8 74.4072 411.202 76.8827 409.31L83.5 404.254L90.1173 409.31C92.5928 411.202 96.0369 408.8 95.1176 405.823L92.5083 397.374L99.3957 392.111C101.828 390.253 100.514 386.369 97.4529 386.369H89.104Z" fill="#D2202E" stroke="#F5F5F5" stroke-width="4" stroke-linecap="round" stroke-linejoin="round"/>
<path d="M85.0039 391.261C85.0039 391.039 85.077 390.851 85.2632 390.669C85.1169 390.299 84.7512 390.077 84.1593 390.003V392.978L84.3455 393.018C84.678 393.092 85.0039 393.207 85.3031 393.281C85.6356 393.355 85.8551 393.469 86.0014 393.543C86.1477 393.617 86.294 393.732 86.4802 393.88C86.6265 394.028 86.7728 394.176 86.9191 394.364C87.2516 394.809 87.4312 395.293 87.4312 395.892C87.4312 396.451 87.2849 396.969 86.9523 397.454C86.6597 397.938 86.2209 398.309 85.7021 398.531C85.5159 398.645 85.2965 398.719 85.0438 398.793C84.7844 398.867 84.4918 398.941 84.1992 399.015V400.092C84.1992 400.462 83.9798 400.684 83.5409 400.684C83.102 400.684 82.8825 400.496 82.8825 400.092V399.015C81.8185 398.901 80.974 398.605 80.3489 398.12C79.7637 397.635 79.4312 397.003 79.4312 396.188C79.4312 395.744 79.5442 395.367 79.7969 395.071C80.0563 394.775 80.3489 394.66 80.7545 394.66C81.0139 394.66 81.2666 394.734 81.4528 394.923C81.639 395.111 81.7454 395.334 81.7454 395.589C81.7454 395.845 81.7055 396.034 81.5991 396.182C81.486 396.33 81.3065 396.404 81.0471 396.478C81.1203 396.814 81.3397 397.07 81.6323 397.299C81.9249 397.487 82.3638 397.595 82.8426 397.669V394.284C82.4037 394.169 82.0712 394.061 81.7786 393.947C81.486 393.873 81.2998 393.799 81.1934 393.725C81.0072 393.651 80.8277 393.536 80.6814 393.388C80.4952 393.24 80.3888 393.126 80.2757 392.978C80.0164 392.608 79.91 392.157 79.91 391.638C79.91 391.376 79.9499 391.08 80.023 390.817C80.0962 390.555 80.2092 390.299 80.3555 390.077C80.5018 389.855 80.688 389.633 80.8676 389.484C81.087 389.296 81.3065 389.148 81.5259 389.04C81.7121 388.966 81.8917 388.892 82.1111 388.818C82.3306 388.744 82.5899 388.704 82.8094 388.63V387.627C82.8094 387.183 83.0288 386.96 83.4677 386.96C83.9066 386.96 84.1261 387.183 84.1261 387.627V388.63C85.0105 388.778 85.7088 389.04 86.2209 389.484C86.7329 389.895 86.9923 390.413 86.9923 391.012C86.9923 391.349 86.8792 391.605 86.6997 391.793C86.4802 392.015 86.2607 392.089 85.9282 392.089C85.6689 392.089 85.4162 392.015 85.23 391.827C85.1169 391.712 85.0105 391.531 85.0105 391.268L85.0039 391.261ZM81.4794 391.409C81.4794 391.746 81.5924 392.002 81.772 392.15C81.9914 392.338 82.3239 392.486 82.8027 392.634V390.03C82.3638 390.104 82.0313 390.252 81.8119 390.474C81.6257 390.736 81.4794 391.033 81.4794 391.403V391.409ZM82.836 392.641H82.8759C82.9158 392.641 82.9889 392.682 83.0222 392.682C83.0554 392.682 83.0953 392.722 83.1352 392.722L82.8426 392.91V392.648L82.836 392.641ZM84.1593 394.539C84.0862 394.499 84.013 394.499 83.8667 394.499L84.1593 394.31V394.533V394.539ZM85.742 396.027C85.742 395.616 85.629 395.286 85.3763 395.058C85.1169 394.835 84.7179 394.687 84.166 394.573V397.662C84.3854 397.622 84.5716 397.588 84.7512 397.514C84.9307 397.44 85.0837 397.326 85.23 397.178C85.5625 396.882 85.742 396.471 85.742 396.027Z" fill="#F5F5F5"/>
</svg>
